<?xml version="1.0" encoding="UTF-8" standalone="no"?>
<svg
   xmlns:dc="http://purl.org/dc/elements/1.1/"
   xmlns:cc="http://creativecommons.org/ns#"
   xmlns:rdf="http://www.w3.org/1999/02/22-rdf-syntax-ns#"
   xmlns:svg="http://www.w3.org/2000/svg"
   xmlns="http://www.w3.org/2000/svg"
   xmlns:sodipodi="http://sodipodi.sourceforge.net/DTD/sodipodi-0.dtd"
   xmlns:inkscape="http://www.inkscape.org/namespaces/inkscape"
   enable-background="new 0 0 24 24"
   height="160"
   viewBox="0 0 640 160"
   width="640"
   version="1.1"
   id="svg26"
   sodipodi:docname="app_header_logo.svg"
   style="fill:#000000"
   inkscape:version="0.92.5 (2060ec1f9f, 2020-04-08)">
  <metadata
     id="metadata32">
    <rdf:RDF>
      <cc:Work
         rdf:about="">
        <dc:format>image/svg+xml</dc:format>
        <dc:type
           rdf:resource="http://purl.org/dc/dcmitype/StillImage" />
        <dc:title></dc:title>
      </cc:Work>
    </rdf:RDF>
  </metadata>
  <defs
     id="defs30" />
  <sodipodi:namedview
     pagecolor="#ffffff"
     bordercolor="#666666"
     borderopacity="1"
     objecttolerance="10"
     gridtolerance="10"
     guidetolerance="10"
     inkscape:pageopacity="0"
     inkscape:pageshadow="2"
     inkscape:window-width="1920"
     inkscape:window-height="1007"
     id="namedview28"
     showgrid="false"
     inkscape:zoom="2.1265625"
     inkscape:cx="320"
     inkscape:cy="80"
     inkscape:window-x="0"
     inkscape:window-y="0"
     inkscape:window-maximized="1"
     inkscape:current-layer="svg26" />
  <text
     id="text3727"
     y="116.28133"
     x="201.57838"
     style="font-style:normal;font-weight:normal;font-size:40px;line-height:1.25;font-family:sans-serif;letter-spacing:0px;word-spacing:0px;fill:#404e4d;fill-opacity:1;stroke:none;stroke-width:1.5"
     xml:space="preserve"><tspan
       style="font-style:normal;font-variant:normal;font-weight:bold;font-stretch:normal;font-size:114.66666412px;font-family:Ubuntu;-inkscape-font-specification:'Ubuntu Bold';fill:#404e4d;fill-opacity:1"
       y="116.28133"
       x="201.57838"
       id="tspan3725"
       sodipodi:role="line">k-<tspan
   style="font-style:normal;font-variant:normal;font-weight:300;font-stretch:normal;font-family:Ubuntu;-inkscape-font-specification:'Ubuntu Light';fill:#404e4d;fill-opacity:1"
   id="tspan68">library</tspan></tspan></text>
  <path
     style="font-style:normal;font-weight:normal;font-size:60px;line-height:1.25;font-family:sans-serif;letter-spacing:0px;word-spacing:0px;fill:#404e4d;fill-opacity:1;stroke:none;stroke-width:8.85002136"
     id="path3781-3"
     d="m 114.60207,34.809874 c -0.47201,0 -0.944,-0.118 -1.357,-0.354002 -11.32806,-5.841007 -21.122063,-8.319023 -32.863094,-8.319023 -11.682033,0 -22.774054,2.773009 -32.863088,8.319023 -1.415999,0.767001 -3.186005,0.236002 -4.012013,-1.180004 -0.766987,-1.416002 -0.235994,-3.245008 1.180007,-4.012006 10.974032,-5.959022 23.010059,-9.027024 35.695094,-9.027024 12.567032,0 23.541054,2.773008 35.577084,8.968024 1.47502,0.766998 2.00601,2.537004 1.23902,3.953011 -0.53102,1.061997 -1.53401,1.652001 -2.59601,1.652001 z M 30.17285,65.784952 c -0.590007,0 -1.180004,-0.177003 -1.711009,-0.531005 -1.356999,-0.944003 -1.652,-2.773008 -0.707999,-4.130009 5.841017,-8.26002 13.275044,-14.750036 22.125056,-19.293048 18.52604,-9.55802 42.244109,-9.617021 60.829152,-0.059 8.85004,4.543011 16.28406,10.974029 22.12507,19.175049 0.94398,1.298008 0.64899,3.18601 -0.70801,4.130015 -1.35702,0.943999 -3.18602,0.648998 -4.13001,-0.708011 -5.31002,-7.434003 -12.03604,-13.275016 -20.00105,-17.34603 -16.933048,-8.673018 -38.586108,-8.673018 -55.460145,0.05897 -8.024029,4.130015 -14.750031,10.030027 -20.060051,17.464047 -0.471997,0.825999 -1.356997,1.239004 -2.301004,1.239006 z m 79.1782,60.298148 c -7.02102,0 -13.216033,-1.77 -18.290048,-5.25103 C 82.26998,114.87305 77.01897,105.19703 77.01897,94.931032 c 0,-1.652004 1.298002,-2.950013 2.950009,-2.950013 1.652004,0 2.950012,1.298009 2.950012,2.950013 0,8.319008 4.248,16.166038 11.446017,21.004058 4.189037,2.83199 9.086032,4.18899 14.986042,4.18899 1.41599,0 3.77601,-0.17698 6.13601,-0.59 1.59301,-0.295 3.127,0.76697 3.42198,2.41902 0.29502,1.59296 -0.76694,3.127 -2.41897,3.422 -3.36301,0.64901 -6.31303,0.708 -7.13902,0.708 z m -11.859025,12.15405 c -0.236008,0 -0.531002,-0.0587 -0.767005,-0.11805 -9.381029,-2.596 -15.51704,-6.07698 -21.948058,-12.39001 -8.260025,-8.20102 -12.803025,-19.11602 -12.803025,-30.798058 0,-9.558035 8.14201,-17.34605 18.172043,-17.34605 10.030021,0 18.172045,7.788015 18.172045,17.34605 0,6.312978 5.487055,11.446028 12.271995,11.446028 6.78505,0 12.27204,-5.13305 12.27204,-11.446028 0,-22.243059 -19.17502,-40.297111 -42.775078,-40.297111 -16.756045,0 -32.096088,9.322026 -38.999096,23.777067 -2.30101,4.779007 -3.481015,10.384021 -3.481015,16.520044 0,4.601994 0.413004,11.859028 3.953014,21.299058 0.589999,1.53402 -0.177004,3.24501 -1.711005,3.77601 -1.534009,0.58997 -3.245011,-0.23603 -3.776009,-1.71102 -2.891008,-7.72903 -4.307018,-15.39904 -4.307018,-23.364048 0,-7.080023 1.357011,-13.511039 4.012015,-19.116057 7.84701,-16.46104 25.252065,-27.140068 44.309114,-27.140068 26.845078,0 48.675128,20.709053 48.675128,46.197121 0,9.558032 -8.14202,17.346032 -18.17209,17.346032 -10.02996,0 -18.172018,-7.788 -18.172018,-17.346032 0,-6.313021 -5.487016,-11.446036 -12.272022,-11.446036 -6.785026,0 -12.272038,5.133016 -12.272038,11.446036 0,10.089052 3.89401,19.529042 11.033035,26.609072 5.605015,5.54603 10.974021,8.61401 19.29304,10.915 1.593033,0.41302 2.478013,2.06503 2.065003,3.59904 -0.295003,1.35699 -1.533992,2.24201 -2.772995,2.24201 z"
     inkscape:connector-curvature="0"
     sodipodi:nodetypes="scscccsccsscccccsccccsscssscscccssccsssssscscccscsssssscccs" />
  <path
     inkscape:connector-curvature="0"
     d="m 67.047942,136.99814 c -0.767003,0 -1.534012,-0.29501 -2.065007,-0.885 -5.133007,-5.13302 -7.906013,-8.43701 -11.859024,-15.57603 -4.071015,-7.25704 -6.195022,-16.10704 -6.195022,-25.606086 0,-17.523039 14.98605,-31.801077 33.394088,-31.801077 18.408051,0 33.394063,14.278038 33.394063,31.801077 0,1.652008 -1.29797,2.950016 -2.95,2.950016 -1.652,0 -2.94999,-1.298008 -2.94999,-2.950016 0,-14.278034 -12.33104,-25.90106 -27.494073,-25.90106 -15.16304,0 -27.494068,11.623026 -27.494068,25.90106 0,8.496016 1.888004,16.343036 5.487012,22.715056 3.776018,6.78502 6.372009,9.67601 10.915024,14.27806 1.121008,1.17999 1.121008,3.009 0,4.189 -0.649004,0.58999 -1.416006,0.885 -2.183003,0.885 z"
     id="path3804-6"
     style="font-style:normal;font-weight:normal;font-size:60px;line-height:1.25;font-family:sans-serif;letter-spacing:0px;word-spacing:0px;fill:#c3423f;fill-opacity:1;stroke:none;stroke-width:8.85002136"
     sodipodi:nodetypes="sccssssssscccs" />
</svg>
