<?xml version="1.0" encoding="UTF-8" standalone="no"?>
<svg
   xmlns:dc="http://purl.org/dc/elements/1.1/"
   xmlns:cc="http://creativecommons.org/ns#"
   xmlns:rdf="http://www.w3.org/1999/02/22-rdf-syntax-ns#"
   xmlns:svg="http://www.w3.org/2000/svg"
   xmlns="http://www.w3.org/2000/svg"
   xmlns:sodipodi="http://sodipodi.sourceforge.net/DTD/sodipodi-0.dtd"
   xmlns:inkscape="http://www.inkscape.org/namespaces/inkscape"
   width="48"
   height="48"
   id="svg5974"
   version="1.1"
   inkscape:version="0.92.5 (2060ec1f9f, 2020-04-08)"
   sodipodi:docname="baykus_orange.svg"
   inkscape:export-filename="/var/www/html/favicon_kapkara.png"
   inkscape:export-xdpi="90"
   inkscape:export-ydpi="90">
  <defs
     id="defs5976">
    <clipPath
       id="_clipPath_nXuP1H4JEuJEGNecXDwHu9dkKVCaACbs">
      <rect
         y="0"
         x="0"
         id="rect700"
         height="315"
         width="560" />
    </clipPath>
    <clipPath
       id="_clipPath_5GnptCOllSOJ3bO73qvNTUgcvzTIUkS6">
      <rect
         y="0"
         x="0"
         id="rect993"
         height="315"
         width="560" />
    </clipPath>
  </defs>
  <sodipodi:namedview
     id="base"
     pagecolor="#ffffff"
     bordercolor="#666666"
     borderopacity="1.0"
     inkscape:pageopacity="0.0"
     inkscape:pageshadow="2"
     inkscape:zoom="9.5781745"
     inkscape:cx="-26.590749"
     inkscape:cy="35.923252"
     inkscape:document-units="px"
     inkscape:current-layer="text3781-8"
     showgrid="false"
     inkscape:window-width="1920"
     inkscape:window-height="1028"
     inkscape:window-x="0"
     inkscape:window-y="0"
     inkscape:window-maximized="1"
     borderlayer="true"
     showguides="true"
     inkscape:guide-bbox="true"
     inkscape:document-rotation="0" />
  <metadata
     id="metadata5979">
    <rdf:RDF>
      <cc:Work
         rdf:about="">
        <dc:format>image/svg+xml</dc:format>
        <dc:type
           rdf:resource="http://purl.org/dc/dcmitype/StillImage" />
        <dc:title></dc:title>
      </cc:Work>
    </rdf:RDF>
  </metadata>
  <g
     inkscape:label="MAIN"
     inkscape:groupmode="layer"
     id="layer1"
     transform="translate(0,467.63782)"
     style="display:inline" />
  <g
     inkscape:groupmode="layer"
     id="layer5"
     inkscape:label="TR"
     style="display:inline"
     transform="translate(0,1459)">
    <g
       aria-label="j"
       style="font-style:normal;font-weight:normal;font-size:61.70612335px;line-height:1.25;font-family:sans-serif;letter-spacing:0px;word-spacing:0px;display:inline;fill:#000000;fill-opacity:1;stroke:none;stroke-width:1.54265296"
       id="text3781-8">
      <g
         style="display:inline;isolation:isolate;fill:#db5c00;fill-opacity:1"
         id="g1012"
         transform="matrix(-0.30306606,0,0,0.30306606,77.093069,-1479.0029)">
        <g
           id="g1000"
           clip-path="url(#_clipPath_5GnptCOllSOJ3bO73qvNTUgcvzTIUkS6)"
           style="fill:#db5c00;fill-opacity:1">
          <path
             id="path998"
             d="m 242.483,219.074 -11.874,-25.79 -13.476,-29.182 -35.276,-76.521 c 0,-0.032 -0.032,-0.063 -0.032,-0.095 -1.382,-2.984 -3.141,-5.748 -5.246,-8.23 2.859,-1.005 5.906,-1.539 9.078,-1.539 2.074,0 3.77,-1.696 3.77,-3.77 0,-2.073 -1.696,-3.769 -3.77,-3.769 -5.371,0 -10.429,1.194 -15.078,3.361 C 164.36,68.827 156.632,66 148.214,66 c -8.388,0 -16.147,2.796 -22.366,7.539 -4.618,-2.199 -9.707,-3.361 -15.078,-3.361 -2.074,0 -3.77,1.696 -3.77,3.769 0,2.074 1.696,3.77 3.77,3.77 3.172,0 6.219,0.534 9.078,1.539 -5.619,6.662 -8.701,15.096 -8.702,23.811 -0.012,5.348 1.146,10.634 3.393,15.487 l 20.952,45.328 c 3.958,8.576 9.456,16.115 16.209,22.335 l -6.816,23.905 c -0.911,-0.157 -1.822,-0.22 -2.733,-0.22 h -0.723 c -4.617,-0.005 -9.046,1.826 -12.313,5.089 -0.954,0.954 -1.327,2.344 -0.978,3.647 0.349,1.303 1.367,2.321 2.67,2.67 1.303,0.349 2.694,-0.023 3.648,-0.977 1.853,-1.854 4.335,-2.89 6.973,-2.89 h 0.691 c 2.639,0 5.121,1.036 6.974,2.89 1.476,1.471 3.864,1.471 5.34,0 1.477,-1.477 1.477,-3.864 0,-5.34 -0.785,-0.786 -1.633,-1.477 -2.513,-2.105 l 6.157,-21.518 c 5.152,3.707 10.806,6.754 16.932,9.016 1.413,0.502 2.795,0.973 4.209,1.413 l -2.387,8.293 c -0.911,-0.157 -1.822,-0.22 -2.733,-0.22 h -0.691 c -4.618,-0.004 -9.047,1.827 -12.314,5.089 -0.954,0.954 -1.327,2.344 -0.978,3.648 0.35,1.303 1.367,2.321 2.67,2.67 1.304,0.349 2.694,-0.024 3.648,-0.978 1.853,-1.853 4.335,-2.89 6.974,-2.89 h 0.691 c 2.638,0 5.12,1.037 6.973,2.89 1.49,1.378 3.803,1.333 5.238,-0.102 1.435,-1.435 1.48,-3.748 0.102,-5.238 -0.785,-0.785 -1.633,-1.476 -2.513,-2.104 l 2.67,-9.33 c 4.241,0.785 8.545,1.194 12.817,1.194 8.795,0 17.56,-1.665 25.915,-4.995 l 7.885,17.12 h -14.607 l -3.801,-8.199 c -0.879,-1.885 -3.11,-2.701 -4.995,-1.822 -1.884,0.88 -2.701,3.11 -1.821,4.995 l 4.806,10.366 c 0.628,1.319 1.947,2.199 3.424,2.199 h 22.9 c 1.287,0 2.481,-0.66 3.172,-1.728 0.66,-1.036 0.754,-2.418 0.22,-3.581 z m -33.831,-55.38 c -21.424,7.759 -45.643,-2.074 -55.381,-23.12 l -0.346,-0.785 c 15.55,-1.979 28.115,-13.634 31.445,-28.743 z M 148.214,73.57 c 5.622,0 10.868,1.571 15.36,4.335 -6.722,5.246 -12.031,12.88 -15.36,22.146 -3.299,-9.266 -8.639,-16.931 -15.361,-22.146 4.492,-2.732 9.738,-4.335 15.361,-4.335 z m 12.47,24.974 c 2.45,0.091 4.389,2.103 4.389,4.554 0,2.452 -1.939,4.464 -4.389,4.555 -2.513,0 -4.554,-2.042 -4.554,-4.555 0.031,-2.544 2.073,-4.554 4.554,-4.554 z m -20.387,4.523 c -0.091,2.45 -2.103,4.389 -4.554,4.389 -2.452,0 -4.464,-1.939 -4.555,-4.389 0,-2.513 2.042,-4.555 4.555,-4.555 2.513,0.032 4.554,2.042 4.554,4.555 z M 126.821,82.806 c 3.11,2.136 5.875,4.9 8.262,8.199 -6.403,0.36 -11.416,5.649 -11.434,12.062 0,6.66 5.434,12.094 12.094,12.094 2.984,0 5.748,-1.1 7.853,-2.921 0.565,3.361 0.848,6.91 0.848,10.554 0,2.073 1.696,3.77 3.77,3.77 2.073,0 3.769,-1.697 3.769,-3.77 0,-3.675 0.283,-7.193 0.848,-10.554 2.105,1.821 4.869,2.921 7.853,2.921 6.66,0 12.094,-5.434 12.094,-12.094 -0.007,-6.418 -5.026,-11.712 -11.434,-12.062 2.387,-3.299 5.183,-6.063 8.262,-8.199 5.19,5.468 8.08,12.722 8.073,20.261 0,16.272 -13.225,29.497 -29.497,29.497 -16.272,0 -29.496,-13.225 -29.496,-29.497 0.062,-7.822 3.109,-14.952 8.135,-20.261 z m 61.789,113.494 2.733,-9.581 c 0.566,-1.994 -0.585,-4.071 -2.576,-4.649 -1.994,-0.566 -4.071,0.585 -4.649,2.576 l -2.827,9.895 c -1.225,-0.377 -2.45,-0.785 -3.675,-1.225 -15.738,-5.812 -28.24,-17.371 -35.277,-32.607 l -11.528,-24.973 c 4.241,2.262 8.952,3.738 13.979,4.21 l 1.57,3.675 c 0,0.031 0.032,0.063 0.032,0.094 8.764,18.973 27.58,30.188 47.244,30.188 6.063,0 12.22,-1.068 18.188,-3.33 l 10.304,22.334 c -10.647,4.196 -22.246,5.37 -33.518,3.393 z"
             inkscape:connector-curvature="0"
             style="fill:#db5c00;fill-opacity:1" />
        </g>
      </g>
    </g>
  </g>
</svg>
