<?xml version="1.0" encoding="UTF-8" standalone="no"?>
<!-- Generator: Gravit.io -->

<svg
   xmlns:dc="http://purl.org/dc/elements/1.1/"
   xmlns:cc="http://creativecommons.org/ns#"
   xmlns:rdf="http://www.w3.org/1999/02/22-rdf-syntax-ns#"
   xmlns:svg="http://www.w3.org/2000/svg"
   xmlns="http://www.w3.org/2000/svg"
   xmlns:sodipodi="http://sodipodi.sourceforge.net/DTD/sodipodi-0.dtd"
   xmlns:inkscape="http://www.inkscape.org/namespaces/inkscape"
   style="isolation:isolate"
   viewBox="0 0 246 90"
   width="246"
   height="90"
   id="svg4259"
   version="1.1"
   inkscape:version="0.92.5 (2060ec1f9f, 2020-04-08)"
   sodipodi:docname="edoc_brand_logo.svg">
  <metadata
     id="metadata4293">
    <rdf:RDF>
      <cc:Work
         rdf:about="">
        <dc:format>image/svg+xml</dc:format>
        <dc:type
           rdf:resource="http://purl.org/dc/dcmitype/StillImage" />
        <dc:title></dc:title>
      </cc:Work>
    </rdf:RDF>
  </metadata>
  <sodipodi:namedview
     pagecolor="#ffffff"
     bordercolor="#666666"
     borderopacity="1"
     objecttolerance="10"
     gridtolerance="10"
     guidetolerance="10"
     inkscape:pageopacity="0"
     inkscape:pageshadow="2"
     inkscape:window-width="1920"
     inkscape:window-height="1007"
     id="namedview4291"
     showgrid="false"
     inkscape:zoom="5.5325203"
     inkscape:cx="123"
     inkscape:cy="45"
     inkscape:window-x="0"
     inkscape:window-y="0"
     inkscape:window-maximized="1"
     inkscape:current-layer="svg4259" />
  <defs
     id="defs4261">
    <clipPath
       id="_clipPath_QDLCauB5rNziMZr8STcPCmG1C2ohRiZf">
      <rect
         width="1000"
         height="400"
         id="rect4264"
         x="0"
         y="0" />
    </clipPath>
  </defs>
  <g
     style="font-style:normal;font-weight:normal;font-size:40px;line-height:0%;font-family:sans-serif;letter-spacing:1.42999995px;word-spacing:0px;fill:#000000;fill-opacity:1;stroke:none;stroke-width:1px;stroke-linecap:butt;stroke-linejoin:miter;stroke-opacity:1"
     id="text4942"
     transform="translate(173.64291,52.461425)" />
  <g
     aria-label="&lt;/edoc&gt;"
     style="font-style:normal;font-weight:normal;font-size:40px;line-height:1.25;font-family:sans-serif;letter-spacing:0px;word-spacing:0px;fill:#000000;fill-opacity:1;stroke:none"
     id="text2223">
    <path
       d="m 4.8070399,48.159834 v -5.290667 l 25.6853341,-15.701334 3.157333,5.546667 -21.76,12.8 21.76,12.800001 -3.157333,5.546666 z"
       style="font-style:normal;font-variant:normal;font-weight:normal;font-stretch:normal;font-size:85.33333588px;font-family:'Ubuntu Condensed';-inkscape-font-specification:'Ubuntu Condensed, '"
       id="path2963" />
    <path
       d="M 42.182906,86.389168 H 35.356239 L 56.006906,3.7864989 h 6.826667 z"
       style="font-style:normal;font-variant:normal;font-weight:normal;font-stretch:normal;font-size:85.33333588px;font-family:'Ubuntu Condensed';-inkscape-font-specification:'Ubuntu Condensed, '"
       id="path2965" />
    <path
       d="m 72.305451,50.3785 q 0.08533,3.242667 0.597334,5.973334 0.512,2.645333 1.621333,4.693333 1.194667,1.962667 3.072,3.072 1.962667,1.109334 4.949334,1.109334 2.474667,0 4.522667,-0.682667 2.133333,-0.768 3.072,-1.28 l 1.365333,5.888 q -1.109333,0.768 -3.754667,1.621334 -2.56,0.938666 -6.144,0.938666 -4.693333,0 -7.936,-1.706666 -3.157334,-1.706667 -5.205334,-4.778667 -1.962666,-3.072 -2.816,-7.338667 -0.853333,-4.266667 -0.853333,-9.386667 0,-12.373334 4.096,-18.090667 4.096,-5.717334 10.837334,-5.717334 7.594667,0 10.752,5.717334 3.157333,5.717333 3.157333,16.042667 0,0.938667 0,1.962667 0,0.938666 -0.08533,1.962666 z m 7.424001,-19.456 q -3.669334,0 -5.376,3.669333 -1.621334,3.669334 -1.962667,9.813334 h 13.568 q 0,-6.229334 -1.28,-9.813334 -1.28,-3.669333 -4.949333,-3.669333 z"
       style="fill:#ff0000"
       id="path2967" />
    <path
       d="m 123.76136,32.543833 q -2.47467,-1.365333 -5.29067,-1.365333 -2.13333,0 -3.75467,0.853333 -1.62133,0.853333 -2.816,2.816 -1.10933,1.962667 -1.70666,5.205334 -0.59734,3.242666 -0.59734,8.021333 0,9.216001 2.38934,13.226667 2.47466,3.925334 7.424,3.925334 0.93866,0 2.048,-0.08533 1.10933,-0.170666 2.304,-0.512 z m 0,-26.8800007 7.33866,-1.28 V 69.407834 q -2.38933,1.024 -5.46133,1.621334 -3.072,0.682666 -6.22933,0.682666 -9.216,0 -13.39734,-5.888 -4.096,-5.888 -4.096,-17.749334 0,-5.376 0.85334,-9.642667 0.93866,-4.352 2.816,-7.338667 1.96266,-3.072 4.94933,-4.693333 2.98667,-1.706667 7.08267,-1.706667 1.96266,0 3.328,0.426667 1.45066,0.341333 2.816,1.024 z"
       style="fill:#ff0000"
       id="path2969" />
    <path
       d="m 173.08395,48.245167 q 0,5.290667 -0.93867,9.642667 -0.93866,4.266667 -2.90133,7.338667 -1.87733,3.072 -4.864,4.778667 -2.90133,1.706666 -6.912,1.706666 -4.01067,0 -6.99733,-1.706666 -2.98667,-1.706667 -4.94934,-4.778667 -1.87733,-3.072 -2.816,-7.338667 -0.93866,-4.352 -0.93866,-9.642667 0,-5.205334 0.93866,-9.557334 0.93867,-4.352 2.816,-7.424 1.96267,-3.157333 4.94934,-4.864 2.98666,-1.706667 6.99733,-1.706667 4.01067,0 6.912,1.706667 2.98667,1.706667 4.864,4.864 1.96267,3.072 2.90133,7.424 0.93867,4.352 0.93867,9.557334 z m -7.68,0 q 0,-3.754667 -0.42667,-6.826667 -0.42666,-3.157333 -1.36533,-5.376 -0.93867,-2.304 -2.47467,-3.498667 -1.536,-1.28 -3.66933,-1.28 -2.21867,0 -3.75467,1.28 -1.45066,1.194667 -2.47466,3.498667 -0.93867,2.218667 -1.36534,5.376 -0.42666,3.072 -0.42666,6.826667 0,3.754667 0.42666,6.912 0.42667,3.072 1.36534,5.290667 1.024,2.218667 2.47466,3.498667 1.536,1.194666 3.75467,1.194666 2.13333,0 3.66933,-1.194666 1.536,-1.28 2.47467,-3.498667 0.93867,-2.218667 1.36533,-5.290667 0.42667,-3.157333 0.42667,-6.912 z"
       style="fill:#ff0000"
       id="path2971" />
    <path
       d="m 197.48923,71.711834 q -4.608,0 -7.68,-1.792 -3.072,-1.792 -5.03467,-4.864 -1.87733,-3.157333 -2.73067,-7.424 -0.768,-4.266667 -0.768,-9.301334 0,-11.093333 4.01067,-17.322667 4.096,-6.314667 12.288,-6.314667 2.47467,0 4.43733,0.597334 1.96267,0.597333 3.66934,1.536 l -1.87734,6.058666 q -2.64533,-1.706666 -5.888,-1.706666 -4.608,0 -6.82666,4.181333 -2.13334,4.181334 -2.13334,12.970667 0,3.669334 0.42667,6.826667 0.42667,3.072 1.45067,5.290667 1.10933,2.218667 2.816,3.498667 1.792,1.28 4.52266,1.28 1.87734,0 3.328,-0.426667 1.536,-0.512 2.90134,-1.28 l 1.62133,5.717334 q -1.36533,0.938666 -3.66933,1.706666 -2.21867,0.768 -4.864,0.768 z"
       style="fill:#ff0000"
       id="path2973" />
    <path
       d="m 214.38512,63.861167 -3.15733,-5.546666 21.76,-12.800001 -21.76,-12.8 3.15733,-5.546667 25.68533,15.701334 v 5.290667 z"
       style="font-style:normal;font-variant:normal;font-weight:normal;font-stretch:normal;font-size:85.33333588px;font-family:'Ubuntu Condensed';-inkscape-font-specification:'Ubuntu Condensed, '"
       id="path2975" />
  </g>
</svg>
