<?xml version="1.0" encoding="UTF-8" standalone="no"?>
<!-- Generator: Gravit.io -->

<svg
   xmlns:dc="http://purl.org/dc/elements/1.1/"
   xmlns:cc="http://creativecommons.org/ns#"
   xmlns:rdf="http://www.w3.org/1999/02/22-rdf-syntax-ns#"
   xmlns:svg="http://www.w3.org/2000/svg"
   xmlns="http://www.w3.org/2000/svg"
   xmlns:sodipodi="http://sodipodi.sourceforge.net/DTD/sodipodi-0.dtd"
   xmlns:inkscape="http://www.inkscape.org/namespaces/inkscape"
   style="isolation:isolate"
   viewBox="0 0 640 160"
   width="640"
   height="160"
   id="svg4259"
   version="1.1"
   inkscape:version="0.92.5 (2060ec1f9f, 2020-04-08)"
   sodipodi:docname="edoc_brand_logo.svg">
  <metadata
     id="metadata4293">
    <rdf:RDF>
      <cc:Work
         rdf:about="">
        <dc:format>image/svg+xml</dc:format>
        <dc:type
           rdf:resource="http://purl.org/dc/dcmitype/StillImage" />
        <dc:title />
      </cc:Work>
    </rdf:RDF>
  </metadata>
  <sodipodi:namedview
     pagecolor="#ffffff"
     bordercolor="#666666"
     borderopacity="1"
     objecttolerance="10"
     gridtolerance="10"
     guidetolerance="10"
     inkscape:pageopacity="0"
     inkscape:pageshadow="2"
     inkscape:window-width="1920"
     inkscape:window-height="1007"
     id="namedview4291"
     showgrid="false"
     inkscape:zoom="1.6412412"
     inkscape:cx="233.52907"
     inkscape:cy="31.549757"
     inkscape:window-x="0"
     inkscape:window-y="0"
     inkscape:window-maximized="1"
     inkscape:current-layer="svg4259" />
  <defs
     id="defs4261">
    <clipPath
       id="_clipPath_QDLCauB5rNziMZr8STcPCmG1C2ohRiZf">
      <rect
         width="1000"
         height="400"
         id="rect4264"
         x="0"
         y="0" />
    </clipPath>
  </defs>
  <g
     style="font-style:normal;font-weight:normal;font-size:40px;line-height:0%;font-family:sans-serif;letter-spacing:1.42999995px;word-spacing:0px;fill:#000000;fill-opacity:1;stroke:none;stroke-width:1px;stroke-linecap:butt;stroke-linejoin:miter;stroke-opacity:1"
     id="text4942"
     transform="translate(173.64291,122.46142)" />
  <g
     id="g7624"
     transform="matrix(0.26556469,0,0,0.26556469,486.6282,15.690656)">
    <g
       id="freepik--background-simple--inject-2">
      <path
         id="path7283"
         style="fill:#ff725e"
         d="M 465,182.66 C 449,130.35 407.85,88.48 359.15,66.41 312.72,45.35 254,35 210,67.35 c -29,21.34 -45.4,55.54 -71.93,79.47 -13.19,11.9 -27.63,15.77 -43.32,22.88 -38.25,17.35 -70.26,50.79 -72.89,94.92 -4.4,73.77 54.08,124.8 119.33,141.53 86.23,22.12 150.68,22.12 209.91,-1.77 30.76,-12.4 62.06,-28.1 84.24,-53.78 33.54,-38.85 42.8,-94 35.18,-143.93 A 171.09,171.09 0 0 0 465,182.66 Z"
         inkscape:connector-curvature="0" />
      <path
         id="path7285"
         style="opacity:0.8;fill:#ffffff"
         d="M 465,182.66 C 449,130.35 407.85,88.48 359.15,66.41 312.72,45.35 254,35 210,67.35 c -29,21.34 -45.4,55.54 -71.93,79.47 -13.19,11.9 -27.63,15.77 -43.32,22.88 -38.25,17.35 -70.26,50.79 -72.89,94.92 -4.4,73.77 54.08,124.8 119.33,141.53 86.23,22.12 150.68,22.12 209.91,-1.77 30.76,-12.4 62.06,-28.1 84.24,-53.78 33.54,-38.85 42.8,-94 35.18,-143.93 A 171.09,171.09 0 0 0 465,182.66 Z"
         inkscape:connector-curvature="0" />
    </g>
    <g
       id="freepik--Page--inject-2">
      <rect
         id="rect7288"
         style="fill:#ffffff;stroke:#263238;stroke-linecap:round;stroke-linejoin:round"
         height="208"
         width="343"
         y="39"
         x="72" />
      <rect
         id="rect7290"
         style="fill:none;stroke:#263238;stroke-linecap:round;stroke-linejoin:round"
         height="16.25"
         width="186"
         y="66.330002"
         x="83.669998" />
      <rect
         id="rect7292"
         style="fill:none;stroke:#263238;stroke-linecap:round;stroke-linejoin:round"
         height="93.879997"
         width="186"
         y="91.790001"
         x="83.669998" />
      <rect
         id="rect7294"
         style="fill:none;stroke:#263238;stroke-linecap:round;stroke-linejoin:round"
         height="74.779999"
         width="125.97"
         y="159.66"
         x="280.20999" />
      <line
         id="line7296"
         style="fill:none;stroke:#263238;stroke-linecap:round;stroke-linejoin:round"
         y2="159.66"
         x2="406.17999"
         y1="234.44"
         x1="280.20999" />
      <line
         id="line7298"
         style="fill:none;stroke:#263238;stroke-linecap:round;stroke-linejoin:round"
         y2="159.66"
         x2="280.20999"
         y1="234.44"
         x1="406.17999" />
      <line
         id="line7300"
         style="fill:none;stroke:#263238;stroke-linecap:round;stroke-linejoin:round"
         y2="199.92999"
         x2="267.54999"
         y1="199.92999"
         x1="237.07001" />
      <line
         id="line7302"
         style="fill:none;stroke:#263238;stroke-linecap:round;stroke-linejoin:round"
         y2="199.92999"
         x2="230.74001"
         y1="199.92999"
         x1="183" />
      <line
         id="line7304"
         style="fill:none;stroke:#263238;stroke-linecap:round;stroke-linejoin:round"
         y2="199.92999"
         x2="173.78999"
         y1="199.92999"
         x1="109.37" />
      <line
         id="line7306"
         style="fill:none;stroke:#263238;stroke-linecap:round;stroke-linejoin:round"
         y2="199.92999"
         x2="101.89"
         y1="199.92999"
         x1="84.639999" />
      <line
         id="line7308"
         style="fill:none;stroke:#263238;stroke-linecap:round;stroke-linejoin:round"
         y2="208.55"
         x2="267.54999"
         y1="208.55"
         x1="129.5" />
      <line
         id="line7310"
         style="fill:none;stroke:#263238;stroke-linecap:round;stroke-linejoin:round"
         y2="208.55"
         x2="122.6"
         y1="208.55"
         x1="84.639999" />
      <line
         id="line7312"
         style="fill:none;stroke:#263238;stroke-linecap:round;stroke-linejoin:round"
         y2="217.17999"
         x2="267.54999"
         y1="217.17999"
         x1="202.55" />
      <line
         id="line7314"
         style="fill:none;stroke:#263238;stroke-linecap:round;stroke-linejoin:round"
         y2="217.17999"
         x2="193.35001"
         y1="217.17999"
         x1="138.13" />
      <line
         id="line7316"
         style="fill:none;stroke:#263238;stroke-linecap:round;stroke-linejoin:round"
         y2="217.17999"
         x2="131.8"
         y1="217.17999"
         x1="84.639999" />
      <line
         id="line7318"
         style="fill:none;stroke:#263238;stroke-linecap:round;stroke-linejoin:round"
         y2="225.81"
         x2="267.54999"
         y1="225.81"
         x1="192.2" />
      <line
         id="line7320"
         style="fill:none;stroke:#263238;stroke-linecap:round;stroke-linejoin:round"
         y2="225.81"
         x2="184.72"
         y1="225.81"
         x1="130.64999" />
      <line
         id="line7322"
         style="fill:none;stroke:#263238;stroke-linecap:round;stroke-linejoin:round"
         y2="225.81"
         x2="124.33"
         y1="225.81"
         x1="84.639999" />
      <line
         id="line7324"
         style="fill:none;stroke:#263238;stroke-linecap:round;stroke-linejoin:round"
         y2="234.44"
         x2="267.54999"
         y1="234.44"
         x1="234.19" />
      <line
         id="line7326"
         style="fill:none;stroke:#263238;stroke-linecap:round;stroke-linejoin:round"
         y2="234.44"
         x2="227.86"
         y1="234.44"
         x1="155.39" />
      <line
         id="line7328"
         style="fill:none;stroke:#263238;stroke-linecap:round;stroke-linejoin:round"
         y2="234.44"
         x2="149.06"
         y1="234.44"
         x1="122.6" />
      <line
         id="line7330"
         style="fill:none;stroke:#263238;stroke-linecap:round;stroke-linejoin:round"
         y2="234.44"
         x2="112.25"
         y1="234.44"
         x1="96.720001" />
      <line
         id="line7332"
         style="fill:none;stroke:#263238;stroke-linecap:round;stroke-linejoin:round"
         y2="234.44"
         x2="96.720001"
         y1="234.44"
         x1="84.639999" />
      <rect
         id="rect7334"
         style="fill:#ff725e;stroke:#263238;stroke-linecap:round;stroke-linejoin:round"
         height="15"
         width="343"
         y="39"
         x="72" />
      <rect
         id="rect7336"
         style="fill:#ffffff;stroke:#263238;stroke-linecap:round;stroke-linejoin:round"
         height="6.0500002"
         width="286"
         y="43.5"
         x="121.27" />
      <rect
         id="rect7338"
         style="fill:#ffffff;stroke:#263238;stroke-linecap:round;stroke-linejoin:round"
         height="6.0500002"
         width="38.029999"
         y="43.5"
         x="77.279999" />
      <rect
         id="rect7340"
         style="fill:#ffffff;stroke:#263238;stroke-linecap:round;stroke-linejoin:round"
         height="74"
         width="130"
         y="74.959999"
         x="304.70001" />
      <rect
         id="rect7342"
         style="fill:#ffffff;stroke:#263238;stroke-linecap:round;stroke-linejoin:round"
         height="14"
         width="130"
         y="134.96001"
         x="304.70001" />
      <polygon
         id="polygon7344"
         style="fill:#ff725e;stroke:#263238;stroke-linecap:round;stroke-linejoin:round"
         points="386.81,106.26 352.6,86.51 352.6,126.01 " />
      <rect
         id="rect7346"
         style="fill:#ffffff;stroke:#263238;stroke-linecap:round;stroke-linejoin:round"
         height="7.48"
         width="7.48"
         y="71.080002"
         x="301.48999" />
      <rect
         id="rect7348"
         style="fill:#ffffff;stroke:#263238;stroke-linecap:round;stroke-linejoin:round"
         height="7.48"
         width="7.48"
         y="71.080002"
         x="430.62" />
      <rect
         id="rect7350"
         style="fill:#ffffff;stroke:#263238;stroke-linecap:round;stroke-linejoin:round"
         height="7.48"
         width="7.48"
         y="143.84"
         x="301.48999" />
      <rect
         id="rect7352"
         style="fill:#ffffff;stroke:#263238;stroke-linecap:round;stroke-linejoin:round"
         height="7.48"
         width="7.48"
         y="143.84"
         x="430.62" />
      <path
         id="path7354"
         style="fill:#263238"
         d="m 149.34,135.84 v 13 h -3.23 v -28.92 h 3.23 v 13 h 7.11 v -13 h 3.22 v 28.94 h -3.22 v -13 z"
         inkscape:connector-curvature="0" />
      <path
         id="path7356"
         style="fill:#263238"
         d="m 167.15,148.86 v -26 h -5.33 v -2.94 h 13.85 v 2.94 h -5.33 v 26 z"
         inkscape:connector-curvature="0" />
      <path
         id="path7358"
         style="fill:#263238"
         d="m 188.52,148.82 h -3.1 l -4.79,-23 v 23.07 h -2.81 v -28.97 h 4.5 l 4.76,23.08 4.59,-23.11 h 4.5 v 28.94 h -3.06 v -23.24 z"
         inkscape:connector-curvature="0" />
      <path
         id="path7360"
         style="fill:#263238"
         d="m 199.48,148.86 v -28.94 h 3.22 v 26 h 8.3 v 2.94 z"
         inkscape:connector-curvature="0" />
      <path
         id="path7362"
         style="fill:#263238"
         d="m 417.2,145.5 6.91,31 a 1.09,1.09 0 0 0 2,0.19 l 4.48,-9.43 a 1.07,1.07 0 0 1 1,-0.62 l 10.42,0.57 a 1.09,1.09 0 0 0 0.81,-1.87 L 419,144.43 a 1.09,1.09 0 0 0 -1.8,1.07 z"
         inkscape:connector-curvature="0" />
      <rect
         id="rect7364"
         style="fill:#ffffff;stroke:#263238;stroke-width:0.75px;stroke-linecap:round;stroke-linejoin:round"
         height="9.3299999"
         width="9.3299999"
         y="173"
         x="436.32999" />
      <rect
         id="rect7366"
         style="fill:#263238"
         height="1.4"
         width="1.4"
         y="172.25999"
         x="435.57999" />
      <rect
         id="rect7368"
         style="fill:#263238"
         height="1.4"
         width="1.4"
         y="172.25999"
         x="440.32001" />
      <rect
         id="rect7370"
         style="fill:#263238"
         height="1.4"
         width="1.4"
         y="172.25999"
         x="444.85999" />
      <rect
         id="rect7372"
         style="fill:#263238"
         height="1.4"
         width="1.4"
         y="176.98"
         x="435.57999" />
      <rect
         id="rect7374"
         style="fill:#263238"
         height="1.4"
         width="1.4"
         y="176.98"
         x="440.32001" />
      <rect
         id="rect7376"
         style="fill:#263238"
         height="1.4"
         width="1.4"
         y="176.98"
         x="444.85999" />
      <rect
         id="rect7378"
         style="fill:#263238"
         height="1.4"
         width="1.4"
         y="181.52"
         x="435.57999" />
      <rect
         id="rect7380"
         style="fill:#263238"
         height="1.4"
         width="1.4"
         y="181.52"
         x="440.32001" />
      <rect
         id="rect7382"
         style="fill:#263238"
         height="1.4"
         width="1.4"
         y="181.52"
         x="444.85999" />
    </g>
    <g
       id="freepik--Character--inject-2">
      <polygon
         id="polygon7385"
         style="fill:#ffffff;stroke:#263238;stroke-linecap:round;stroke-linejoin:round"
         points="191.47,316.84 188.51,317.42 179.94,275.05 182.9,274.47 " />
      <rect
         id="rect7387"
         style="fill:#ffffff;stroke:#263238;stroke-linecap:round;stroke-linejoin:round"
         height="2.01"
         width="56.299999"
         y="316"
         x="188.33" />
      <rect
         id="rect7389"
         style="fill:#ffffff;stroke:#263238;stroke-linecap:round;stroke-linejoin:round"
         height="4.25"
         width="86.989998"
         y="421.54999"
         x="260.20999" />
      <path
         id="path7391"
         style="fill:#263238;stroke:#263238;stroke-linecap:round;stroke-linejoin:round"
         d="m 360.33,290.59 c 0,0 -8.24,65.32 -10.52,85.56 -2.28,20.24 6.68,83.78 6.68,83.78 h -5.23 l -10.27,-72 h -76.74 l -4.91,70.71 h -3.92 L 262,376.48 v -8.93 a 3.48,3.48 0 0 1 3.48,-3.48 H 339 l 11.51,-80.66 c 0,0 1.3,-7.51 7.83,-5.22 6.53,2.29 1.99,12.4 1.99,12.4 z"
         inkscape:connector-curvature="0" />
      <path
         id="path7393"
         style="fill:#ffffff;stroke:#263238;stroke-linecap:round;stroke-linejoin:round"
         d="m 358.37,278.19 a 5.25,5.25 0 0 0 -0.52,-0.17 c 0.5,1 0.8,2.74 0.2,6 -1.31,7.19 -15.1,92.75 -15.1,92.75 h -81 l -6.49,82.82 h 3.92 l 8.54,-71.72 H 341 l 10.27,72 h 5.23 c 0,0 -9,-63.53 -6.68,-83.78 2.32,-20.25 12.06,-84.07 12.06,-84.07 0,0 3.03,-11.55 -3.51,-13.83 z"
         inkscape:connector-curvature="0" />
      <path
         id="path7395"
         style="fill:#ffffff;stroke:#263238;stroke-linecap:round;stroke-linejoin:round"
         d="m 280.1,296.29 -40.87,2.32 -18.23,10.54 -3.6,6.17 2.82,0.51 6.43,-2.83 c 0,0 7.2,-1.28 9.26,-2.05 2.06,-0.77 7.69,-6.95 7.69,-6.95 l 38,6.17 z"
         inkscape:connector-curvature="0" />
      <path
         id="path7397"
         style="fill:#ffffff;stroke:#263238;stroke-linecap:round;stroke-linejoin:round"
         d="m 221.15,422.6 c 0,0 -7.2,12.6 -8.23,12.6 -1.03,0 -9.37,1.85 -16,-1.49 -6.63,-3.34 -11.57,-5.91 -13.63,-2.83 a 23.27,23.27 0 0 0 -2.57,4.63 c 0,0 6.17,8.74 11.83,11.82 5.66,3.08 8.08,1.49 14,4.83 5.92,3.34 6.43,5.91 11.31,4.89 4.88,-1.02 7.72,-16.71 9,-18.51 1.28,-1.8 6.14,-11.83 6.14,-11.83 z"
         inkscape:connector-curvature="0" />
      <path
         id="path7399"
         style="fill:#263238;stroke:#263238;stroke-linecap:round;stroke-linejoin:round"
         d="m 214.16,433.9 c -0.59,0.8 -1,1.3 -1.24,1.3 -1,0 -9.37,1.85 -16,-1.49 -6.63,-3.34 -11.57,-5.91 -13.63,-2.83 a 23.27,23.27 0 0 0 -2.57,4.63 c 0,0 6.17,8.74 11.83,11.82 5.66,3.08 8.08,1.49 14,4.83 5.92,3.34 6.43,5.91 11.31,4.89 4.33,-0.92 7,-13.31 8.5,-17.39 -4.44,-1.14 -9.2,-3.85 -12.2,-5.76 z"
         inkscape:connector-curvature="0" />
      <path
         id="path7401"
         style="fill:#ffffff;stroke:#263238;stroke-linecap:round;stroke-linejoin:round"
         d="m 217.8,457.05 a 3.09,3.09 0 0 0 0.43,-0.14 0.84,0.84 0 0 0 0.14,-0.06 l 0.28,-0.14 0.16,-0.1 0.25,-0.17 0.16,-0.13 0.24,-0.21 0.15,-0.15 a 3.07,3.07 0 0 0 0.25,-0.26 l 0.14,-0.16 c 0.08,-0.1 0.17,-0.2 0.25,-0.31 l 0.12,-0.15 0.29,-0.42 0.07,-0.1 c 0.2,-0.3 0.39,-0.63 0.58,-1 -5,0 -8.4,-3.15 -13.79,-5 -6.68,-2.31 -7.06,-0.45 -11.94,-3.8 -4.88,-3.35 -5.4,-5.39 -5.4,-5.39 l 4.33,-6.84 c -5.47,-2.7 -9.46,-4.36 -11.27,-1.65 a 23.27,23.27 0 0 0 -2.57,4.63 c 0,0 6.17,8.74 11.83,11.82 5.66,3.08 8.08,1.49 14,4.83 5.92,3.34 6.42,5.92 11.3,4.9 z"
         inkscape:connector-curvature="0" />
      <path
         id="path7403"
         style="fill:#ff725e;stroke:#263238;stroke-linecap:round;stroke-linejoin:round"
         d="M 228.86,358.33 206,415.4 l 27.25,15.43 c 0,0 29,-65.81 29.3,-67.1 0.3,-1.29 5.4,-2.57 5.4,-2.57 l 20.8,2.84 c 0,0 -31.36,-13.88 -40.61,-15.94 -9.25,-2.06 -15.43,-0.52 -19.28,10.27 z"
         inkscape:connector-curvature="0" />
      <path
         id="path7405"
         style="fill:#ffffff;stroke:#263238;stroke-linecap:round;stroke-linejoin:round"
         d="m 252.59,402.72 12.86,12.08 c 0,0 -4.37,10.8 -9.51,17.74 -5.14,6.94 -5.66,11 -3.35,12.59 2.31,1.59 6.94,1.29 10,-0.77 3.06,-2.06 20.56,-19.28 22.62,-22.36 a 5.17,5.17 0 0 0 -1,-6.68 c -0.77,-0.52 -17.73,-20.83 -17.73,-20.83 z"
         inkscape:connector-curvature="0" />
      <path
         id="path7407"
         style="fill:#263238;stroke:#263238;stroke-linecap:round;stroke-linejoin:round"
         d="m 285.24,422 a 5.17,5.17 0 0 0 -1,-6.68 c -0.36,-0.25 -4.35,-4.92 -8.46,-9.78 -3.76,4.55 -10.55,7.09 -12.05,7.62 l 1.75,1.64 c 0,0 -4.37,10.8 -9.51,17.74 -5.14,6.94 -5.66,11 -3.35,12.59 2.31,1.59 6.94,1.29 10,-0.77 3.06,-2.06 20.56,-19.28 22.62,-22.36 z"
         inkscape:connector-curvature="0" />
      <path
         id="path7409"
         style="fill:#ffffff;stroke:#263238;stroke-linecap:round;stroke-linejoin:round"
         d="m 284.54,415.6 a 9,9 0 0 1 -1.87,4.86 c -3.08,3.85 -20.31,19.79 -20.31,19.79 l -8,-5.52 c -3.68,5.62 -3.87,9 -1.82,10.4 2.32,1.55 6.94,1.29 10,-0.77 3.06,-2.06 20.56,-19.28 22.62,-22.36 a 5.18,5.18 0 0 0 -0.62,-6.4 z"
         inkscape:connector-curvature="0" />
      <path
         id="path7411"
         style="fill:#ffffff"
         d="m 277.27,414.29 a 2.7,2.7 0 1 1 -2.7,-2.57 2.64,2.64 0 0 1 2.7,2.57 z"
         inkscape:connector-curvature="0" />
      <path
         id="path7413"
         style="fill:#ff725e;stroke:#263238;stroke-linecap:round;stroke-linejoin:round"
         d="m 285.5,321.49 -1.29,4.37 c 0,0 -38.81,0.51 -55.78,5.14 -16.97,4.63 -21.59,7.2 -20.31,16.71 1.28,9.51 27.51,64.29 27.51,64.29 a 105.89,105.89 0 0 0 15.42,-5.65 97.43,97.43 0 0 0 16.71,-10.35 l -19.54,-37.28 c 0,0 22.37,4.63 47.3,6.94 24.93,2.31 35.48,-0.26 39.59,-7.71 4.11,-7.45 -2.83,-37.27 -2.83,-37.27 l -46.52,-1.55 z"
         inkscape:connector-curvature="0" />
      <path
         id="path7415"
         style="fill:none;stroke:#263238;stroke-linecap:round;stroke-linejoin:round"
         d="m 231,346.45 a 15.23,15.23 0 0 1 -2.29,-2.86"
         inkscape:connector-curvature="0" />
      <path
         id="path7417"
         style="fill:none;stroke:#263238;stroke-linecap:round;stroke-linejoin:round"
         d="M 248.22,358.76 A 114.21,114.21 0 0 1 233.4,348.69"
         inkscape:connector-curvature="0" />
      <path
         id="path7419"
         style="fill:none;stroke:#263238;stroke-linecap:round;stroke-linejoin:round"
         d="m 251.1,380.23 2.06,1"
         inkscape:connector-curvature="0" />
      <path
         id="path7421"
         style="fill:none;stroke:#263238;stroke-linecap:round;stroke-linejoin:round"
         d="m 215.11,349.92 a 108.61,108.61 0 0 0 32.42,28.35"
         inkscape:connector-curvature="0" />
      <path
         id="path7423"
         style="fill:none;stroke:#263238;stroke-linecap:round;stroke-linejoin:round"
         d="M 322.81,338.53 A 29,29 0 0 1 325.6,341"
         inkscape:connector-curvature="0" />
      <path
         id="path7425"
         style="fill:none;stroke:#263238;stroke-linecap:round;stroke-linejoin:round"
         d="m 286.78,326.37 c 0,0 18.84,1.46 32.14,9.48"
         inkscape:connector-curvature="0" />
      <path
         id="path7427"
         style="fill:none;stroke:#263238;stroke-linecap:round;stroke-linejoin:round"
         d="m 312.49,330.74 c 0,0 12.34,0.26 17.22,5.4"
         inkscape:connector-curvature="0" />
      <path
         id="path7429"
         style="fill:#263238;stroke:#263238;stroke-linecap:round;stroke-linejoin:round"
         d="m 289.1,244.37 c 0,0 -8.74,26 -10,33.93 -1.26,7.93 -0.51,42.67 -0.51,42.67 0,0 20.56,6.17 32.13,4.89 11.57,-1.28 26,-3.6 26,-3.6 0,0 -2.57,-46 -4.88,-61.95 -2.31,-15.95 -7.71,-25.2 -12.85,-29.05 a 80.38,80.38 0 0 0 -10.8,-6.69 z"
         inkscape:connector-curvature="0" />
      <path
         id="path7431"
         style="fill:#ffffff;stroke:#263238;stroke-linecap:round;stroke-linejoin:round"
         d="m 243.85,204.27 a 27.83,27.83 0 0 0 3.35,9.25 c 2.57,4.11 6.17,5.91 5.14,10 -1.03,4.09 -1,6.94 2,7.19 l 3.09,0.26 c 0,0 6.17,10.54 10.8,10.54 4.63,0 17.77,-11.79 17.77,-11.79 0,0 -6.94,-32.65 -6.94,-33.68 0,-1.03 -36.76,3.86 -36.76,3.86 z"
         inkscape:connector-curvature="0" />
      <path
         id="path7433"
         style="fill:#263238"
         d="m 259.15,217.48 c 0.49,1 0.32,2.13 -0.39,2.47 -0.71,0.34 -1.67,-0.22 -2.16,-1.25 -0.49,-1.03 -0.32,-2.13 0.39,-2.46 0.71,-0.33 1.67,0.22 2.16,1.24 z"
         inkscape:connector-curvature="0" />
      <path
         id="path7435"
         style="fill:none;stroke:#263238;stroke-linecap:round;stroke-linejoin:round"
         d="m 252.85,214.55 c 0,0 -0.26,-3.6 5.14,-2.83"
         inkscape:connector-curvature="0" />
      <path
         id="path7437"
         style="fill:none;stroke:#263238;stroke-linecap:round;stroke-linejoin:round"
         d="m 260.36,231.82 c 0.16,0.57 6.28,0.23 5.34,-5.19"
         inkscape:connector-curvature="0" />
      <path
         id="path7439"
         style="fill:#ff725e;stroke:#263238;stroke-linecap:round;stroke-linejoin:round"
         d="m 296,192.18 c -0.85,-10.41 -13.81,-6.42 -19.88,-3.27 l -0.17,-0.32 -24.42,6.94 a 4.84,4.84 0 0 0 2.31,5.14 35.62,35.62 0 0 0 17.49,6.85 c 1.82,10.88 4.36,27.14 4.36,33.25 0,9.51 -3.6,13.11 -3.6,13.11 0,0 16.45,-5.14 26,-14.14 a 86.14,86.14 0 0 0 14.4,-17.48 c 0,0 -15.42,-17.48 -16.49,-30.08 z"
         inkscape:connector-curvature="0" />
      <line
         id="line7441"
         style="fill:none;stroke:#263238;stroke-linecap:round;stroke-linejoin:round"
         y2="204.12"
         x2="270.64001"
         y1="207.52"
         x1="271.37" />
      <path
         id="path7443"
         style="fill:none;stroke:#263238;stroke-linecap:round;stroke-linejoin:round"
         d="m 283.57,231.18 c 0.21,1.17 0.38,2.26 0.5,3.21"
         inkscape:connector-curvature="0" />
      <path
         id="path7445"
         style="fill:none;stroke:#263238;stroke-linecap:round;stroke-linejoin:round"
         d="m 277.21,204.12 c 0,0 3.63,13.41 5.68,23.48"
         inkscape:connector-curvature="0" />
      <line
         id="line7447"
         style="fill:none;stroke:#263238;stroke-linecap:round;stroke-linejoin:round"
         y2="220.67999"
         x2="294.34"
         y1="207.49001"
         x1="289.35001" />
      <line
         id="line7449"
         style="fill:none;stroke:#263238;stroke-linecap:round;stroke-linejoin:round"
         y2="205.24001"
         x2="288.5"
         y1="201.83"
         x1="287.20999" />
      <line
         id="line7451"
         style="fill:none;stroke:#263238;stroke-linecap:round;stroke-linejoin:round"
         y2="207.83"
         x2="295.76999"
         y1="202.12"
         x1="293.48999" />
      <path
         id="path7453"
         style="fill:#757575;stroke:#263238;stroke-linecap:round;stroke-linejoin:round"
         d="m 241.33,203.87 c 0,0 -17.2,9.13 -11.47,9.13 5.73,0 34.41,-11.85 35.55,-11.85 1.14,0 -19.11,1.95 -24.08,2.72 z"
         inkscape:connector-curvature="0" />
      <path
         id="path7455"
         style="fill:#757575;stroke:#263238;stroke-linecap:round;stroke-linejoin:round"
         d="m 241.33,203.87 c 0,0 -10.29,3.26 -5.7,-7.83 4.59,-11.09 35.84,-27.25 48.84,-27.25 13,0 22.61,19.4 20.7,25.52 -1.91,6.12 -6.12,6.88 -8,6.88 -1.88,0 -55.84,2.68 -55.84,2.68 z"
         inkscape:connector-curvature="0" />
      <path
         id="path7457"
         style="fill:none;stroke:#263238;stroke-linecap:round;stroke-linejoin:round"
         d="m 246.3,200.43 c 0,0 18.73,0.38 34.79,-1.91 16.06,-2.29 22.55,-4.59 22.55,-4.59"
         inkscape:connector-curvature="0" />
      <line
         id="line7459"
         style="fill:none;stroke:#263238;stroke-linecap:round;stroke-linejoin:round"
         y2="199.28"
         x2="276.12"
         y1="198.89999"
         x1="301.35001" />
      <path
         id="path7461"
         style="fill:#ffffff;stroke:#263238;stroke-linecap:round;stroke-linejoin:round"
         d="m 285.5,299.89 -3.34,3.11 c 0,0 -41.65,-5.4 -44.48,-4.63 -2.83,0.77 -12.85,3.6 -12.85,3.6 l -8,0.51 -6.42,10.8 h 2.05 l 4.63,-6.43 H 220 l -4.89,5.66 -2.11,3.06 7.19,0.26 1.05,-0.89 4.1,-3.48 -1.29,3.86 h 1.54 l 3.6,-6.17 4.89,-2.57 5.14,-3.6 c 0,0 52.44,18.25 53.72,19 1.28,0.75 4.12,2.83 6.43,0.77 2.31,-2.06 8.48,-19.28 8.48,-19.28 z"
         inkscape:connector-curvature="0" />
      <path
         id="path7463"
         style="fill:none;stroke:#263238;stroke-linecap:round;stroke-linejoin:round"
         d="m 216.22,315.22 a 35.91,35.91 0 0 0 7,-7.31 c 0,0 0.35,-2.71 2.71,-3.14"
         inkscape:connector-curvature="0" />
      <polyline
         id="polyline7465"
         style="fill:none;stroke:#263238;stroke-linecap:round;stroke-linejoin:round"
         points="225.35 311.46 226.51 306.99 227.79 305.96" />
      <path
         id="path7467"
         style="fill:none;stroke:#263238;stroke-linecap:round;stroke-linejoin:round"
         d="m 220,306.83 a 14.24,14.24 0 0 1 2.44,-2.94 c 0.87,-0.52 1.4,-0.78 1.4,-0.78"
         inkscape:connector-curvature="0" />
      <path
         id="path7469"
         style="fill:#757575;stroke:#263238;stroke-linecap:round;stroke-linejoin:round"
         d="m 263.5,311.46 c 13.92,4.88 28.78,10.14 29.5,10.54 1.29,0.77 4.12,2.83 6.43,0.77 2.31,-2.06 8.48,-19.28 8.48,-19.28 l -22.36,-3.6 -3.39,3.11 c 0,0 -7.66,-1 -16.62,-2.07 z"
         inkscape:connector-curvature="0" />
      <path
         id="path7471"
         style="fill:#263238;stroke:#263238;stroke-linecap:round;stroke-linejoin:round"
         d="m 293,260.82 -11.1,37.27 c 0,0 1,5.15 11.31,8 a 64,64 0 0 0 17.48,2.57 l 8.23,-46.27"
         inkscape:connector-curvature="0" />
      <line
         id="line7473"
         style="fill:none;stroke:#707070;stroke-linecap:round;stroke-linejoin:round"
         y2="295.26999"
         x2="282.23001"
         y1="264.17999"
         x1="292.26001" />
      <line
         id="line7475"
         style="fill:none;stroke:#707070;stroke-linecap:round;stroke-linejoin:round"
         y2="305.79999"
         x2="311.82001"
         y1="274.14001"
         x1="316.75" />
      <line
         id="line7477"
         style="fill:none;stroke:#707070;stroke-linecap:round;stroke-linejoin:round"
         y2="270.66"
         x2="317.29001"
         y1="267.17999"
         x1="317.82999" />
    </g>
    <g
       id="freepik--Table--inject-2">
      <rect
         id="rect7480"
         style="fill:#263238;stroke:#263238;stroke-linecap:round;stroke-linejoin:round"
         height="133.8"
         width="9"
         y="320.5"
         x="191.5" />
      <rect
         id="rect7482"
         style="fill:#757575;stroke:#263238;stroke-linecap:round;stroke-linejoin:round"
         height="5.5300002"
         width="133.96001"
         y="318.14001"
         x="127.89" />
      <path
         id="path7484"
         style="fill:#757575;stroke:#263238;stroke-linecap:round;stroke-linejoin:round"
         d="m 244.23,459.77 h -96.44 a 5.54,5.54 0 0 1 5.53,-5.53 h 85.38 a 5.54,5.54 0 0 1 5.53,5.53 z"
         inkscape:connector-curvature="0" />
    </g>
    <g
       id="freepik--Coffee--inject-2">
      <polygon
         id="polygon7487"
         style="fill:#ff725e;stroke:#263238;stroke-linecap:round;stroke-linejoin:round"
         points="166.61,319.12 149.01,319.12 146.37,286.2 169.25,286.2 " />
      <rect
         id="rect7489"
         style="fill:#ffffff;stroke:#263238;stroke-linecap:round;stroke-linejoin:round"
         height="7.5"
         width="25.42"
         y="282.95001"
         x="144.77" />
      <polygon
         id="polygon7491"
         style="fill:#ffffff;stroke:#263238;stroke-linecap:round;stroke-linejoin:round"
         points="167.34,309.99 168.31,297.94 147.31,297.94 148.28,309.99 " />
    </g>
    <g
       id="freepik--Floor--inject-2">
      <line
         id="line7494"
         style="fill:none;stroke:#263238;stroke-linecap:round;stroke-linejoin:round"
         y2="459.92999"
         x2="464.32999"
         y1="459.92999"
         x1="452.32999" />
      <line
         id="line7496"
         style="fill:none;stroke:#263238;stroke-linecap:round;stroke-linejoin:round"
         y2="459.92999"
         x2="445"
         y1="459.92999"
         x1="432.32999" />
      <line
         id="line7498"
         style="fill:none;stroke:#263238;stroke-linecap:round;stroke-linejoin:round"
         y2="459.92999"
         x2="425"
         y1="459.92999"
         x1="127.67" />
      <line
         id="line7500"
         style="fill:none;stroke:#263238;stroke-linecap:round;stroke-linejoin:round"
         y2="459.92999"
         x2="118.33"
         y1="459.92999"
         x1="45.470001" />
    </g>
  </g>
  <text
     xml:space="preserve"
     style="font-style:normal;font-weight:normal;font-size:40px;line-height:1.25;font-family:sans-serif;letter-spacing:0px;word-spacing:0px;isolation:isolate;fill:#000000;fill-opacity:1;stroke:none"
     x="1.6366004"
     y="117.91856"
     id="text5201"><tspan
       sodipodi:role="line"
       id="tspan5199"
       x="1.6366004"
       y="117.91856"
       style="font-style:normal;font-variant:normal;font-weight:normal;font-stretch:normal;font-size:96px;font-family:Ailerons;-inkscape-font-specification:Ailerons;letter-spacing:-16.35000038px"><tspan
   style="font-size:96px;fill:#ff0000"
   id="tspan4128">H</tspan>Documentor</tspan></text>
</svg>
