<?xml version="1.0" encoding="UTF-8" standalone="no"?>
<!-- Generator: Gravit.io -->

<svg
   xmlns:dc="http://purl.org/dc/elements/1.1/"
   xmlns:cc="http://creativecommons.org/ns#"
   xmlns:rdf="http://www.w3.org/1999/02/22-rdf-syntax-ns#"
   xmlns:svg="http://www.w3.org/2000/svg"
   xmlns="http://www.w3.org/2000/svg"
   xmlns:sodipodi="http://sodipodi.sourceforge.net/DTD/sodipodi-0.dtd"
   xmlns:inkscape="http://www.inkscape.org/namespaces/inkscape"
   style="isolation:isolate"
   viewBox="0 0 600 90"
   width="600"
   height="90"
   id="svg4259"
   version="1.1"
   inkscape:version="0.92.5 (2060ec1f9f, 2020-04-08)"
   sodipodi:docname="ememo_brand_logo.svg">
  <metadata
     id="metadata4293">
    <rdf:RDF>
      <cc:Work
         rdf:about="">
        <dc:format>image/svg+xml</dc:format>
        <dc:type
           rdf:resource="http://purl.org/dc/dcmitype/StillImage" />
        <dc:title></dc:title>
      </cc:Work>
    </rdf:RDF>
  </metadata>
  <sodipodi:namedview
     pagecolor="#ffffff"
     bordercolor="#666666"
     borderopacity="1"
     objecttolerance="10"
     gridtolerance="10"
     guidetolerance="10"
     inkscape:pageopacity="0"
     inkscape:pageshadow="2"
     inkscape:window-width="1920"
     inkscape:window-height="1007"
     id="namedview4291"
     showgrid="false"
     inkscape:zoom="2.2683333"
     inkscape:cx="300"
     inkscape:cy="45"
     inkscape:window-x="0"
     inkscape:window-y="0"
     inkscape:window-maximized="1"
     inkscape:current-layer="svg4259" />
  <defs
     id="defs4261">
    <clipPath
       id="_clipPath_QDLCauB5rNziMZr8STcPCmG1C2ohRiZf">
      <rect
         width="1000"
         height="400"
         id="rect4264"
         x="0"
         y="0" />
    </clipPath>
  </defs>
  <g
     style="font-style:normal;font-weight:normal;font-size:40px;line-height:0%;font-family:sans-serif;letter-spacing:1.42999995px;word-spacing:0px;fill:#000000;fill-opacity:1;stroke:none;stroke-width:1px;stroke-linecap:butt;stroke-linejoin:miter;stroke-opacity:1"
     id="text4942"
     transform="translate(48)">
    <path
       d="m 106.85709,63.054177 q -6.78,0 -9.719998,-3.72 -2.94,-3.72 -2.94,-11.1 v -17.64 q 0,-6.06 3.48,-9.24 3.479998,-3.18 9.719998,-3.18 12.66,0 12.66,12.42 v 3.18 q 0,4.8 -0.12,7.8 h -15.24 v 8.52 q 0,2.28 0.48,3.6 0.48,1.26 2.04,1.26 1.2,0 1.68,-0.72 0.54,-0.72 0.6,-1.62 0.12,-0.96 0.12,-2.76 v -4.26 h 10.44 v 2.52 q 0,7.68 -3,11.34 -2.94,3.6 -10.2,3.6 z m 2.76,-26.7 v -5.64 q 0,-4.74 -2.34,-4.74 -2.64,0 -2.64,4.74 v 5.64 z"
       style="font-size:60px;fill:#b3b3b3"
       id="path5067"
       inkscape:connector-curvature="0" />
    <path
       d="m 125.46397,62.574177 v -51.54 h 15.72 l 4.32,31.44 4.32,-31.44 h 15.84 v 51.54 h -9.42 v -37.14 l -5.94,37.14 h -9.24 l -6.3,-37.14 v 37.14 z"
       style="font-size:60px;fill:#000080"
       id="path5069"
       inkscape:connector-curvature="0" />
    <path
       d="m 183.77959,63.054177 q -6.78,0 -9.72,-3.72 -2.94,-3.72 -2.94,-11.1 v -17.64 q 0,-6.06 3.48,-9.24 3.48,-3.18 9.72,-3.18 12.66,0 12.66,12.42 v 3.18 q 0,4.8 -0.12,7.8 h -15.24 v 8.52 q 0,2.28 0.48,3.6 0.48,1.26 2.04,1.26 1.2,0 1.68,-0.72 0.54,-0.72 0.6,-1.62 0.12,-0.96 0.12,-2.76 v -4.26 h 10.44 v 2.52 q 0,7.68 -3,11.34 -2.94,3.6 -10.2,3.6 z m 2.76,-26.7 v -5.64 q 0,-4.74 -2.34,-4.74 -2.64,0 -2.64,4.74 v 5.64 z"
       style="font-size:60px;fill:#000080"
       id="path5071"
       inkscape:connector-curvature="0" />
    <path
       d="m 202.20647,18.654177 h 10.26 v 5.1 q 0.72,-2.82 2.46,-4.2 1.74,-1.38 4.92,-1.38 2.58,0 4.44,1.2 1.92,1.14 2.7,3.18 1.32,-2.28 2.94,-3.3 1.62,-1.08 4.5,-1.08 5.16,0 7.14,3.18 2.04,3.12 2.04,9.12 l -0.12,32.1 h -10.56 v -32.28 q 0,-4.26 -2.16,-4.26 -1.5,0 -2.16,1.5 -0.66,1.44 -0.66,3.48 v 31.56 h -10.5 v -32.28 q 0,-1.86 -0.42,-3 -0.36,-1.14 -1.62,-1.14 -1.62,0 -2.28,1.62 -0.66,1.56 -0.66,3.78 v 31.02 h -10.26 z"
       style="font-size:60px;fill:#000080"
       id="path5073"
       inkscape:connector-curvature="0" />
    <path
       d="m 261.88522,63.054177 q -13.14,0 -13.14,-13.62 v -17.64 q 0,-6.24 3.48,-9.9 3.54,-3.72 9.66,-3.72 6.12,0 9.6,3.72 3.54,3.66 3.54,9.9 v 17.64 q 0,13.62 -13.14,13.62 z m 0,-8.1 q 1.26,0 1.86,-0.9 0.6,-0.9 0.6,-2.46 v -21.48 q 0,-3.84 -2.46,-3.84 -2.46,0 -2.46,3.84 v 21.48 q 0,1.56 0.6,2.46 0.6,0.9 1.86,0.9 z"
       style="font-size:60px;fill:#000080"
       id="path5075"
       inkscape:connector-curvature="0" />
  </g>
  <g
     style="font-style:normal;font-weight:normal;font-size:40px;line-height:0%;font-family:sans-serif;letter-spacing:1.42999995px;word-spacing:0px;isolation:isolate;fill:#000000;fill-opacity:1;stroke:none;stroke-width:1px;stroke-linecap:butt;stroke-linejoin:miter;stroke-opacity:1"
     id="text4942-3-0-8-2"
     transform="translate(26)">
    <path
       d="m 119.50986,83.658184 q -1.54,0 -2.48,-0.94 -0.92,-0.94 -0.92,-2.52 v -7.42 q 0,-1.56 0.92,-2.5 0.94,-0.94 2.48,-0.94 1.56,0 2.48,0.94 0.94,0.92 0.94,2.5 v 0.34 q 0,0.2 -0.2,0.2 l -1.04,0.06 q -0.2,0 -0.2,-0.2 v -0.5 q 0,-0.94 -0.54,-1.52 -0.54,-0.58 -1.44,-0.58 -0.88,0 -1.44,0.58 -0.54,0.58 -0.54,1.52 v 7.64 q 0,0.94 0.54,1.52 0.56,0.58 1.44,0.58 0.9,0 1.44,-0.58 0.54,-0.58 0.54,-1.52 v -0.5 q 0,-0.2 0.2,-0.2 l 1.04,0.06 q 0.2,0 0.2,0.2 v 0.32 q 0,1.58 -0.94,2.52 -0.94,0.94 -2.48,0.94 z"
       style="font-style:normal;font-variant:normal;font-weight:normal;font-stretch:condensed;font-size:20px;font-family:'Barlow Condensed';-inkscape-font-specification:'Barlow Condensed, Condensed'"
       id="path5225"
       inkscape:connector-curvature="0" />
    <path
       d="m 129.25173,83.658184 q -1.44,0 -2.3,-0.84 -0.84,-0.84 -0.84,-2.22 v -4.32 q 0,-1.36 0.86,-2.2 0.86,-0.86 2.28,-0.86 1.42,0 2.28,0.86 0.88,0.84 0.88,2.2 v 4.32 q 0,1.38 -0.86,2.22 -0.86,0.84 -2.3,0.84 z m 0,-1.24 q 0.76,0 1.24,-0.52 0.5,-0.54 0.5,-1.38 v -4.14 q 0,-0.86 -0.5,-1.38 -0.48,-0.54 -1.24,-0.54 -0.76,0 -1.24,0.54 -0.48,0.52 -0.48,1.38 v 4.14 q 0,0.84 0.48,1.38 0.48,0.52 1.24,0.52 z"
       style="font-style:normal;font-variant:normal;font-weight:normal;font-stretch:condensed;font-size:20px;font-family:'Barlow Condensed';-inkscape-font-specification:'Barlow Condensed, Condensed'"
       id="path5227"
       inkscape:connector-curvature="0" />
    <path
       d="m 138.96298,83.658184 q -1.44,0 -2.3,-0.84 -0.84,-0.84 -0.84,-2.22 v -4.32 q 0,-1.36 0.86,-2.2 0.86,-0.86 2.28,-0.86 1.42,0 2.28,0.86 0.88,0.84 0.88,2.2 v 4.32 q 0,1.38 -0.86,2.22 -0.86,0.84 -2.3,0.84 z m 0,-1.24 q 0.76,0 1.24,-0.52 0.5,-0.54 0.5,-1.38 v -4.14 q 0,-0.86 -0.5,-1.38 -0.48,-0.54 -1.24,-0.54 -0.76,0 -1.24,0.54 -0.48,0.52 -0.48,1.38 v 4.14 q 0,0.84 0.48,1.38 0.48,0.52 1.24,0.52 z"
       style="font-style:normal;font-variant:normal;font-weight:normal;font-stretch:condensed;font-size:20px;font-family:'Barlow Condensed';-inkscape-font-specification:'Barlow Condensed, Condensed'"
       id="path5229"
       inkscape:connector-curvature="0" />
    <path
       d="m 149.17423,73.278184 q 0.5,0 0.86,0.22 0.14,0.08 0.1,0.26 l -0.22,1.02 q -0.02,0.18 -0.26,0.12 -0.24,-0.1 -0.54,-0.1 -0.2,0 -0.3,0.02 -0.72,0.04 -1.18,0.76 -0.46,0.7 -0.46,1.72 v 6 q 0,0.2 -0.2,0.2 h -1.02 q -0.2,0 -0.2,-0.2 v -9.72 q 0,-0.2 0.2,-0.2 h 1.02 q 0.2,0 0.2,0.2 v 1.2 q 0,0.06 0.02,0.06 0.04,0 0.08,-0.04 0.58,-1.52 1.9,-1.52 z"
       style="font-style:normal;font-variant:normal;font-weight:normal;font-stretch:condensed;font-size:20px;font-family:'Barlow Condensed';-inkscape-font-specification:'Barlow Condensed, Condensed'"
       id="path5231"
       inkscape:connector-curvature="0" />
    <path
       d="m 157.52642,69.698184 q 0,-0.2 0.2,-0.2 h 1.02 q 0.2,0 0.2,0.2 v 13.6 q 0,0.2 -0.2,0.2 h -1.02 q -0.2,0 -0.2,-0.2 v -0.58 q 0,-0.04 -0.04,-0.06 -0.02,-0.02 -0.06,0.02 -0.34,0.48 -0.86,0.74 -0.5,0.24 -1.12,0.24 -1.18,0 -1.92,-0.84 -0.72,-0.86 -0.78,-2.22 -0.02,-0.74 -0.02,-2.22 0,-1.42 0.02,-2.16 0.04,-1.34 0.76,-2.16 0.74,-0.84 1.94,-0.84 1.3,0 1.98,0.96 0.04,0.04 0.06,0.02 0.04,-0.02 0.04,-0.06 z m -1.66,12.72 q 0.72,0 1.18,-0.54 0.48,-0.56 0.48,-1.46 v -3.96 q 0,-0.9 -0.48,-1.44 -0.46,-0.56 -1.18,-0.56 -0.78,0 -1.26,0.56 -0.48,0.54 -0.46,1.44 v 0.7 1.28 1.98 q -0.02,0.88 0.46,1.44 0.48,0.56 1.26,0.56 z"
       style="font-style:normal;font-variant:normal;font-weight:normal;font-stretch:condensed;font-size:20px;font-family:'Barlow Condensed';-inkscape-font-specification:'Barlow Condensed, Condensed'"
       id="path5233"
       inkscape:connector-curvature="0" />
    <path
       d="m 163.65298,71.578184 q -0.44,0 -0.72,-0.3 -0.28,-0.3 -0.28,-0.76 0,-0.44 0.28,-0.72 0.28,-0.3 0.72,-0.3 0.42,0 0.68,0.3 0.28,0.28 0.28,0.72 0,0.46 -0.28,0.76 -0.26,0.3 -0.68,0.3 z m -0.52,11.92 q -0.2,0 -0.2,-0.2 v -9.72 q 0,-0.2 0.2,-0.2 h 1.02 q 0.2,0 0.2,0.2 v 9.72 q 0,0.2 -0.2,0.2 z"
       style="font-style:normal;font-variant:normal;font-weight:normal;font-stretch:condensed;font-size:20px;font-family:'Barlow Condensed';-inkscape-font-specification:'Barlow Condensed, Condensed'"
       id="path5235"
       inkscape:connector-curvature="0" />
    <path
       d="m 171.88642,73.238184 q 1.22,0 1.88,0.84 0.68,0.84 0.68,2.34 v 6.88 q 0,0.2 -0.2,0.2 h -1.02 q -0.2,0 -0.2,-0.2 v -6.76 q 0,-0.98 -0.42,-1.52 -0.42,-0.54 -1.18,-0.54 -0.8,0 -1.26,0.58 -0.46,0.58 -0.46,1.58 v 6.66 q 0,0.2 -0.2,0.2 h -1.02 q -0.2,0 -0.2,-0.2 v -9.72 q 0,-0.2 0.2,-0.2 h 1.02 q 0.2,0 0.2,0.2 v 0.66 q 0,0.04 0.04,0.06 0.04,0 0.06,-0.04 0.74,-1.02 2.08,-1.02 z"
       style="font-style:normal;font-variant:normal;font-weight:normal;font-stretch:condensed;font-size:20px;font-family:'Barlow Condensed';-inkscape-font-specification:'Barlow Condensed, Condensed'"
       id="path5237"
       inkscape:connector-curvature="0" />
    <path
       d="m 181.13298,73.218184 q 1.4,0 2.22,0.92 0.84,0.9 0.84,2.42 v 6.74 q 0,0.2 -0.2,0.2 h -1.02 q -0.2,0 -0.2,-0.2 v -0.58 q 0,-0.04 -0.04,-0.04 -0.02,-0.02 -0.06,0.02 -0.74,0.96 -2.2,0.96 -1.1,0 -1.92,-0.62 -0.8,-0.64 -0.8,-2.24 0,-1.7 0.98,-2.48 0.98,-0.8 2.58,-0.8 h 1.38 q 0.08,0 0.08,-0.08 v -0.78 q 0,-1 -0.46,-1.6 -0.44,-0.6 -1.22,-0.6 -0.6,0 -1.04,0.4 -0.44,0.4 -0.5,1.02 -0.02,0.2 -0.22,0.2 l -1.1,-0.02 q -0.1,0 -0.16,-0.06 -0.04,-0.06 -0.02,-0.14 0.1,-1.18 0.96,-1.9 0.86,-0.74 2.12,-0.74 z m -0.36,9.2 q 0.82,0 1.4,-0.52 0.6,-0.54 0.6,-1.48 v -1.68 q 0,-0.08 -0.08,-0.08 h -1.4 q -0.96,0 -1.52,0.52 -0.56,0.5 -0.56,1.5 0,0.88 0.42,1.32 0.44,0.42 1.14,0.42 z"
       style="font-style:normal;font-variant:normal;font-weight:normal;font-stretch:condensed;font-size:20px;font-family:'Barlow Condensed';-inkscape-font-specification:'Barlow Condensed, Condensed'"
       id="path5239"
       inkscape:connector-curvature="0" />
    <path
       d="m 191.38611,74.238184 q 0,0.2 -0.2,0.2 h -1.52 q -0.08,0 -0.08,0.08 v 6.12 q 0,0.92 0.32,1.28 0.32,0.34 0.98,0.32 h 0.2 q 0.2,0 0.2,0.2 v 0.86 q 0,0.2 -0.2,0.2 h -0.5 q -1.18,0 -1.8,-0.5 -0.6,-0.52 -0.6,-1.94 v -6.54 q 0,-0.08 -0.08,-0.08 h -0.78 q -0.2,0 -0.2,-0.2 v -0.66 q 0,-0.2 0.2,-0.2 h 0.78 q 0.08,0 0.08,-0.08 v -2.24 q 0,-0.2 0.2,-0.2 h 1 q 0.2,0 0.2,0.2 v 2.24 q 0,0.08 0.08,0.08 h 1.52 q 0.2,0 0.2,0.2 z"
       style="font-style:normal;font-variant:normal;font-weight:normal;font-stretch:condensed;font-size:20px;font-family:'Barlow Condensed';-inkscape-font-specification:'Barlow Condensed, Condensed'"
       id="path5241"
       inkscape:connector-curvature="0" />
    <path
       d="m 195.42767,71.578184 q -0.44,0 -0.72,-0.3 -0.28,-0.3 -0.28,-0.76 0,-0.44 0.28,-0.72 0.28,-0.3 0.72,-0.3 0.42,0 0.68,0.3 0.28,0.28 0.28,0.72 0,0.46 -0.28,0.76 -0.26,0.3 -0.68,0.3 z m -0.52,11.92 q -0.2,0 -0.2,-0.2 v -9.72 q 0,-0.2 0.2,-0.2 h 1.02 q 0.2,0 0.2,0.2 v 9.72 q 0,0.2 -0.2,0.2 z"
       style="font-style:normal;font-variant:normal;font-weight:normal;font-stretch:condensed;font-size:20px;font-family:'Barlow Condensed';-inkscape-font-specification:'Barlow Condensed, Condensed'"
       id="path5243"
       inkscape:connector-curvature="0" />
    <path
       d="m 202.98111,83.658184 q -1.44,0 -2.3,-0.84 -0.84,-0.84 -0.84,-2.22 v -4.32 q 0,-1.36 0.86,-2.2 0.86,-0.86 2.28,-0.86 1.42,0 2.28,0.86 0.88,0.84 0.88,2.2 v 4.32 q 0,1.38 -0.86,2.22 -0.86,0.84 -2.3,0.84 z m 0,-1.24 q 0.76,0 1.24,-0.52 0.5,-0.54 0.5,-1.38 v -4.14 q 0,-0.86 -0.5,-1.38 -0.48,-0.54 -1.24,-0.54 -0.76,0 -1.24,0.54 -0.48,0.52 -0.48,1.38 v 4.14 q 0,0.84 0.48,1.38 0.48,0.52 1.24,0.52 z"
       style="font-style:normal;font-variant:normal;font-weight:normal;font-stretch:condensed;font-size:20px;font-family:'Barlow Condensed';-inkscape-font-specification:'Barlow Condensed, Condensed'"
       id="path5245"
       inkscape:connector-curvature="0" />
    <path
       d="m 213.37235,73.238184 q 1.22,0 1.88,0.84 0.68,0.84 0.68,2.34 v 6.88 q 0,0.2 -0.2,0.2 h -1.02 q -0.2,0 -0.2,-0.2 v -6.76 q 0,-0.98 -0.42,-1.52 -0.42,-0.54 -1.18,-0.54 -0.8,0 -1.26,0.58 -0.46,0.58 -0.46,1.58 v 6.66 q 0,0.2 -0.2,0.2 h -1.02 q -0.2,0 -0.2,-0.2 v -9.72 q 0,-0.2 0.2,-0.2 h 1.02 q 0.2,0 0.2,0.2 v 0.66 q 0,0.04 0.04,0.06 0.04,0 0.06,-0.04 0.74,-1.02 2.08,-1.02 z"
       style="font-style:normal;font-variant:normal;font-weight:normal;font-stretch:condensed;font-size:20px;font-family:'Barlow Condensed';-inkscape-font-specification:'Barlow Condensed, Condensed'"
       id="path5247"
       inkscape:connector-curvature="0" />
    <path
       d="m 225.49329,83.498184 q -0.2,0 -0.2,-0.2 v -13.6 q 0,-0.2 0.2,-0.2 h 1.04 q 0.16,0 0.22,0.16 l 2.24,5.42 q 0.02,0.04 0.06,0.04 0.04,0 0.06,-0.04 l 2.26,-5.42 q 0.06,-0.16 0.22,-0.16 h 1.04 q 0.2,0 0.2,0.2 v 13.6 q 0,0.2 -0.2,0.2 h -1.02 q -0.2,0 -0.2,-0.2 v -10.24 q 0,-0.06 -0.04,-0.06 -0.04,0 -0.06,0.04 l -2.04,4.64 q -0.06,0.16 -0.18,0.16 -0.14,0 -0.2,-0.16 l -2.08,-4.66 q -0.02,-0.04 -0.06,-0.04 -0.04,0 -0.04,0.06 v 10.26 q 0,0.2 -0.2,0.2 z"
       style="font-style:normal;font-variant:normal;font-weight:normal;font-stretch:condensed;font-size:20px;font-family:'Barlow Condensed';-inkscape-font-specification:'Barlow Condensed, Condensed'"
       id="path5249"
       inkscape:connector-curvature="0" />
    <path
       d="m 242.95392,78.778184 q 0,0.2 -0.2,0.2 h -4.56 q -0.08,0 -0.08,0.08 v 1.46 q 0,0.84 0.46,1.38 0.48,0.52 1.24,0.52 0.64,0 1.08,-0.38 0.46,-0.4 0.6,-1.02 0.06,-0.18 0.22,-0.18 l 1,0.04 q 0.08,0 0.14,0.06 0.06,0.06 0.04,0.16 -0.16,1.18 -0.98,1.88 -0.8,0.68 -2.1,0.68 -1.42,0 -2.28,-0.84 -0.84,-0.84 -0.84,-2.22 v -4.32 q 0,-1.36 0.84,-2.2 0.86,-0.86 2.28,-0.86 1.44,0 2.28,0.86 0.86,0.84 0.86,2.2 z m -3.14,-4.32 q -0.76,0 -1.24,0.54 -0.46,0.52 -0.46,1.38 v 1.34 q 0,0.08 0.08,0.08 h 3.28 q 0.08,0 0.08,-0.08 v -1.34 q 0,-0.86 -0.48,-1.38 -0.48,-0.54 -1.26,-0.54 z"
       style="font-style:normal;font-variant:normal;font-weight:normal;font-stretch:condensed;font-size:20px;font-family:'Barlow Condensed';-inkscape-font-specification:'Barlow Condensed, Condensed'"
       id="path5251"
       inkscape:connector-curvature="0" />
    <path
       d="m 254.56892,73.238184 q 1.2,0 1.86,0.88 0.66,0.88 0.66,2.44 v 6.74 q 0,0.2 -0.2,0.2 h -1 q -0.2,0 -0.2,-0.2 v -6.62 q 0,-1.02 -0.44,-1.6 -0.42,-0.6 -1.12,-0.6 -0.76,0 -1.2,0.58 -0.44,0.58 -0.44,1.58 v 6.66 q 0,0.2 -0.2,0.2 h -1.02 q -0.2,0 -0.2,-0.2 v -6.62 q 0,-1.02 -0.44,-1.6 -0.42,-0.6 -1.1,-0.6 -0.76,0 -1.22,0.58 -0.44,0.58 -0.44,1.58 v 6.66 q 0,0.2 -0.2,0.2 h -1 q -0.2,0 -0.2,-0.2 v -9.72 q 0,-0.2 0.2,-0.2 h 1 q 0.2,0 0.2,0.2 v 0.62 q 0,0.04 0.02,0.06 0.04,0 0.08,-0.04 0.38,-0.5 0.9,-0.74 0.52,-0.24 1.1,-0.24 0.76,0 1.32,0.38 0.56,0.36 0.86,1.04 0.02,0.04 0.06,0.04 0.04,0 0.06,-0.06 0.36,-0.72 0.98,-1.06 0.62,-0.34 1.32,-0.34 z"
       style="font-style:normal;font-variant:normal;font-weight:normal;font-stretch:condensed;font-size:20px;font-family:'Barlow Condensed';-inkscape-font-specification:'Barlow Condensed, Condensed'"
       id="path5253"
       inkscape:connector-curvature="0" />
    <path
       d="m 263.74861,83.658184 q -1.44,0 -2.3,-0.84 -0.84,-0.84 -0.84,-2.22 v -4.32 q 0,-1.36 0.86,-2.2 0.86,-0.86 2.28,-0.86 1.42,0 2.28,0.86 0.88,0.84 0.88,2.2 v 4.32 q 0,1.38 -0.86,2.22 -0.86,0.84 -2.3,0.84 z m 0,-1.24 q 0.76,0 1.24,-0.52 0.5,-0.54 0.5,-1.38 v -4.14 q 0,-0.86 -0.5,-1.38 -0.48,-0.54 -1.24,-0.54 -0.76,0 -1.24,0.54 -0.48,0.52 -0.48,1.38 v 4.14 q 0,0.84 0.48,1.38 0.48,0.52 1.24,0.52 z"
       style="font-style:normal;font-variant:normal;font-weight:normal;font-stretch:condensed;font-size:20px;font-family:'Barlow Condensed';-inkscape-font-specification:'Barlow Condensed, Condensed'"
       id="path5255"
       inkscape:connector-curvature="0" />
    <path
       d="m 278.89424,73.218184 q 1.4,0 2.22,0.92 0.84,0.9 0.84,2.42 v 6.74 q 0,0.2 -0.2,0.2 h -1.02 q -0.2,0 -0.2,-0.2 v -0.58 q 0,-0.04 -0.04,-0.04 -0.02,-0.02 -0.06,0.02 -0.74,0.96 -2.2,0.96 -1.1,0 -1.92,-0.62 -0.8,-0.64 -0.8,-2.24 0,-1.7 0.98,-2.48 0.98,-0.8 2.58,-0.8 h 1.38 q 0.08,0 0.08,-0.08 v -0.78 q 0,-1 -0.46,-1.6 -0.44,-0.6 -1.22,-0.6 -0.6,0 -1.04,0.4 -0.44,0.4 -0.5,1.02 -0.02,0.2 -0.22,0.2 l -1.1,-0.02 q -0.1,0 -0.16,-0.06 -0.04,-0.06 -0.02,-0.14 0.1,-1.18 0.96,-1.9 0.86,-0.74 2.12,-0.74 z m -0.36,9.2 q 0.82,0 1.4,-0.52 0.6,-0.54 0.6,-1.48 v -1.68 q 0,-0.08 -0.08,-0.08 h -1.4 q -0.96,0 -1.52,0.52 -0.56,0.5 -0.56,1.5 0,0.88 0.42,1.32 0.44,0.42 1.14,0.42 z"
       style="font-style:normal;font-variant:normal;font-weight:normal;font-stretch:condensed;font-size:20px;font-family:'Barlow Condensed';-inkscape-font-specification:'Barlow Condensed, Condensed'"
       id="path5257"
       inkscape:connector-curvature="0" />
    <path
       d="m 289.18736,73.238184 q 1.22,0 1.88,0.84 0.68,0.84 0.68,2.34 v 6.88 q 0,0.2 -0.2,0.2 h -1.02 q -0.2,0 -0.2,-0.2 v -6.76 q 0,-0.98 -0.42,-1.52 -0.42,-0.54 -1.18,-0.54 -0.8,0 -1.26,0.58 -0.46,0.58 -0.46,1.58 v 6.66 q 0,0.2 -0.2,0.2 h -1.02 q -0.2,0 -0.2,-0.2 v -9.72 q 0,-0.2 0.2,-0.2 h 1.02 q 0.2,0 0.2,0.2 v 0.66 q 0,0.04 0.04,0.06 0.04,0 0.06,-0.04 0.74,-1.02 2.08,-1.02 z"
       style="font-style:normal;font-variant:normal;font-weight:normal;font-stretch:condensed;font-size:20px;font-family:'Barlow Condensed';-inkscape-font-specification:'Barlow Condensed, Condensed'"
       id="path5259"
       inkscape:connector-curvature="0" />
    <path
       d="m 300.09393,69.698184 q 0,-0.2 0.2,-0.2 h 1.02 q 0.2,0 0.2,0.2 v 13.6 q 0,0.2 -0.2,0.2 h -1.02 q -0.2,0 -0.2,-0.2 v -0.58 q 0,-0.04 -0.04,-0.06 -0.02,-0.02 -0.06,0.02 -0.34,0.48 -0.86,0.74 -0.5,0.24 -1.12,0.24 -1.18,0 -1.92,-0.84 -0.72,-0.86 -0.78,-2.22 -0.02,-0.74 -0.02,-2.22 0,-1.42 0.02,-2.16 0.04,-1.34 0.76,-2.16 0.74,-0.84 1.94,-0.84 1.3,0 1.98,0.96 0.04,0.04 0.06,0.02 0.04,-0.02 0.04,-0.06 z m -1.66,12.72 q 0.72,0 1.18,-0.54 0.48,-0.56 0.48,-1.46 v -3.96 q 0,-0.9 -0.48,-1.44 -0.46,-0.56 -1.18,-0.56 -0.78,0 -1.26,0.56 -0.48,0.54 -0.46,1.44 v 0.7 1.28 1.98 q -0.02,0.88 0.46,1.44 0.48,0.56 1.26,0.56 z"
       style="font-style:normal;font-variant:normal;font-weight:normal;font-stretch:condensed;font-size:20px;font-family:'Barlow Condensed';-inkscape-font-specification:'Barlow Condensed, Condensed'"
       id="path5261"
       inkscape:connector-curvature="0" />
    <path
       d="m 314.03485,69.338184 q 1.48,0 2.4,0.98 0.92,0.98 0.92,2.58 v 7.2 q 0,1.38 -0.7,2.32 -0.68,0.92 -1.84,1.16 -0.08,0.02 -0.08,0.1 v 1.92 q 0,0.2 -0.2,0.2 h -1.02 q -0.2,0 -0.2,-0.2 v -1.92 q 0,-0.08 -0.08,-0.1 -1.16,-0.26 -1.86,-1.18 -0.68,-0.94 -0.68,-2.3 v -7.2 q 0,-1.58 0.92,-2.56 0.94,-1 2.42,-1 z m 1.9,3.42 q 0,-0.96 -0.52,-1.56 -0.52,-0.62 -1.38,-0.62 -0.86,0 -1.4,0.62 -0.52,0.6 -0.52,1.56 v 7.48 q 0,0.96 0.52,1.58 0.54,0.6 1.4,0.6 0.86,0 1.38,-0.6 0.52,-0.62 0.52,-1.58 z"
       style="font-style:normal;font-variant:normal;font-weight:normal;font-stretch:condensed;font-size:20px;font-family:'Barlow Condensed';-inkscape-font-specification:'Barlow Condensed, Condensed'"
       id="path5263"
       inkscape:connector-curvature="0" />
    <path
       d="m 325.73204,73.578184 q 0,-0.2 0.2,-0.2 h 1.02 q 0.2,0 0.2,0.2 v 9.72 q 0,0.2 -0.2,0.2 h -1.02 q -0.2,0 -0.2,-0.2 v -0.68 q 0,-0.06 -0.04,-0.06 -0.02,0 -0.06,0.04 -0.62,1.04 -2,1.04 -1.2,0 -1.92,-0.72 -0.7,-0.74 -0.7,-2.22 v -7.12 q 0,-0.2 0.2,-0.2 h 1.02 q 0.2,0 0.2,0.2 v 6.8 q 0,1 0.4,1.52 0.42,0.5 1.2,0.5 0.8,0 1.24,-0.58 0.46,-0.58 0.46,-1.58 z"
       style="font-style:normal;font-variant:normal;font-weight:normal;font-stretch:condensed;font-size:20px;font-family:'Barlow Condensed';-inkscape-font-specification:'Barlow Condensed, Condensed'"
       id="path5265"
       inkscape:connector-curvature="0" />
    <path
       d="m 337.0586,78.778184 q 0,0.2 -0.2,0.2 h -4.56 q -0.08,0 -0.08,0.08 v 1.46 q 0,0.84 0.46,1.38 0.48,0.52 1.24,0.52 0.64,0 1.08,-0.38 0.46,-0.4 0.6,-1.02 0.06,-0.18 0.22,-0.18 l 1,0.04 q 0.08,0 0.14,0.06 0.06,0.06 0.04,0.16 -0.16,1.18 -0.98,1.88 -0.8,0.68 -2.1,0.68 -1.42,0 -2.28,-0.84 -0.84,-0.84 -0.84,-2.22 v -4.32 q 0,-1.36 0.84,-2.2 0.86,-0.86 2.28,-0.86 1.44,0 2.28,0.86 0.86,0.84 0.86,2.2 z m -3.14,-4.32 q -0.76,0 -1.24,0.54 -0.46,0.52 -0.46,1.38 v 1.34 q 0,0.08 0.08,0.08 h 3.28 q 0.08,0 0.08,-0.08 v -1.34 q 0,-0.86 -0.48,-1.38 -0.48,-0.54 -1.26,-0.54 z"
       style="font-style:normal;font-variant:normal;font-weight:normal;font-stretch:condensed;font-size:20px;font-family:'Barlow Condensed';-inkscape-font-specification:'Barlow Condensed, Condensed'"
       id="path5267"
       inkscape:connector-curvature="0" />
    <path
       d="m 343.99361,73.278184 q 0.5,0 0.86,0.22 0.14,0.08 0.1,0.26 l -0.22,1.02 q -0.02,0.18 -0.26,0.12 -0.24,-0.1 -0.54,-0.1 -0.2,0 -0.3,0.02 -0.72,0.04 -1.18,0.76 -0.46,0.7 -0.46,1.72 v 6 q 0,0.2 -0.2,0.2 h -1.02 q -0.2,0 -0.2,-0.2 v -9.72 q 0,-0.2 0.2,-0.2 h 1.02 q 0.2,0 0.2,0.2 v 1.2 q 0,0.06 0.02,0.06 0.04,0 0.08,-0.04 0.58,-1.52 1.9,-1.52 z"
       style="font-style:normal;font-variant:normal;font-weight:normal;font-stretch:condensed;font-size:20px;font-family:'Barlow Condensed';-inkscape-font-specification:'Barlow Condensed, Condensed'"
       id="path5269"
       inkscape:connector-curvature="0" />
    <path
       d="m 347.79641,87.498184 q -0.04,0 -0.08,-0.06 -0.04,-0.06 -0.04,-0.14 v -0.82 q 0,-0.2 0.1,-0.2 h 0.1 q 0.62,0 0.96,-0.22 0.36,-0.22 0.58,-0.78 0.22,-0.56 0.44,-1.72 0.02,-0.04 0,-0.06 0,-0.04 0,-0.06 l -2.54,-9.84 -0.02,-0.06 q 0,-0.16 0.2,-0.16 h 1.08 q 0.2,0 0.22,0.18 l 1.76,7.86 q 0.02,0.06 0.04,0.06 0.02,0 0.04,-0.06 l 1.74,-7.86 q 0.04,-0.18 0.22,-0.18 l 1.12,0.02 q 0.1,0 0.14,0.06 0.06,0.06 0.02,0.16 l -2.78,10.76 q -0.36,1.34 -0.72,1.98 -0.34,0.64 -0.9,0.88 -0.56,0.26 -1.58,0.26 z"
       style="font-style:normal;font-variant:normal;font-weight:normal;font-stretch:condensed;font-size:20px;font-family:'Barlow Condensed';-inkscape-font-specification:'Barlow Condensed, Condensed'"
       id="path5271"
       inkscape:connector-curvature="0" />
    <path
       d="m 362.74454,83.498184 q -0.2,0 -0.2,-0.2 v -13.6 q 0,-0.2 0.2,-0.2 h 1.06 q 0.16,0 0.22,0.16 l 4.02,10.08 q 0.02,0.06 0.06,0.06 0.04,0 0.04,-0.06 v -10.04 q 0,-0.2 0.2,-0.2 h 1 q 0.2,0 0.2,0.2 v 13.6 q 0,0.2 -0.2,0.2 h -1.06 q -0.16,0 -0.22,-0.16 l -4.02,-10.08 q -0.02,-0.06 -0.06,-0.04 -0.04,0 -0.04,0.06 l 0.02,10.02 q 0,0.2 -0.2,0.2 z"
       style="font-style:normal;font-variant:normal;font-weight:normal;font-stretch:condensed;font-size:20px;font-family:'Barlow Condensed';-inkscape-font-specification:'Barlow Condensed, Condensed'"
       id="path5273"
       inkscape:connector-curvature="0" />
    <path
       d="m 376.5183,83.658184 q -1.44,0 -2.3,-0.84 -0.84,-0.84 -0.84,-2.22 v -4.32 q 0,-1.36 0.86,-2.2 0.86,-0.86 2.28,-0.86 1.42,0 2.28,0.86 0.88,0.84 0.88,2.2 v 4.32 q 0,1.38 -0.86,2.22 -0.86,0.84 -2.3,0.84 z m 0,-1.24 q 0.76,0 1.24,-0.52 0.5,-0.54 0.5,-1.38 v -4.14 q 0,-0.86 -0.5,-1.38 -0.48,-0.54 -1.24,-0.54 -0.76,0 -1.24,0.54 -0.48,0.52 -0.48,1.38 v 4.14 q 0,0.84 0.48,1.38 0.48,0.52 1.24,0.52 z"
       style="font-style:normal;font-variant:normal;font-weight:normal;font-stretch:condensed;font-size:20px;font-family:'Barlow Condensed';-inkscape-font-specification:'Barlow Condensed, Condensed'"
       id="path5275"
       inkscape:connector-curvature="0" />
    <path
       d="m 386.86954,74.238184 q 0,0.2 -0.2,0.2 h -1.52 q -0.08,0 -0.08,0.08 v 6.12 q 0,0.92 0.32,1.28 0.32,0.34 0.98,0.32 h 0.2 q 0.2,0 0.2,0.2 v 0.86 q 0,0.2 -0.2,0.2 h -0.5 q -1.18,0 -1.8,-0.5 -0.6,-0.52 -0.6,-1.94 v -6.54 q 0,-0.08 -0.08,-0.08 h -0.78 q -0.2,0 -0.2,-0.2 v -0.66 q 0,-0.2 0.2,-0.2 h 0.78 q 0.08,0 0.08,-0.08 v -2.24 q 0,-0.2 0.2,-0.2 h 1 q 0.2,0 0.2,0.2 v 2.24 q 0,0.08 0.08,0.08 h 1.52 q 0.2,0 0.2,0.2 z"
       style="font-style:normal;font-variant:normal;font-weight:normal;font-stretch:condensed;font-size:20px;font-family:'Barlow Condensed';-inkscape-font-specification:'Barlow Condensed, Condensed'"
       id="path5277"
       inkscape:connector-curvature="0" />
    <path
       d="m 396.13109,78.778184 q 0,0.2 -0.2,0.2 h -4.56 q -0.08,0 -0.08,0.08 v 1.46 q 0,0.84 0.46,1.38 0.48,0.52 1.24,0.52 0.64,0 1.08,-0.38 0.46,-0.4 0.6,-1.02 0.06,-0.18 0.22,-0.18 l 1,0.04 q 0.08,0 0.14,0.06 0.06,0.06 0.04,0.16 -0.16,1.18 -0.98,1.88 -0.8,0.68 -2.1,0.68 -1.42,0 -2.28,-0.84 -0.84,-0.84 -0.84,-2.22 v -4.32 q 0,-1.36 0.84,-2.2 0.86,-0.86 2.28,-0.86 1.44,0 2.28,0.86 0.86,0.84 0.86,2.2 z m -3.14,-4.32 q -0.76,0 -1.24,0.54 -0.46,0.52 -0.46,1.38 v 1.34 q 0,0.08 0.08,0.08 h 3.28 q 0.08,0 0.08,-0.08 v -1.34 q 0,-0.86 -0.48,-1.38 -0.48,-0.54 -1.26,-0.54 z"
       style="font-style:normal;font-variant:normal;font-weight:normal;font-stretch:condensed;font-size:20px;font-family:'Barlow Condensed';-inkscape-font-specification:'Barlow Condensed, Condensed'"
       id="path5279"
       inkscape:connector-curvature="0" />
    <path
       d="m 411.42048,69.498184 q 0.2,0 0.2,0.2 v 0.84 q 0,0.2 -0.2,0.2 h -2.64 q -0.08,0 -0.08,0.08 v 12.48 q 0,0.2 -0.2,0.2 h -1.02 q -0.2,0 -0.2,-0.2 v -12.48 q 0,-0.08 -0.08,-0.08 h -2.48 q -0.2,0 -0.2,-0.2 v -0.84 q 0,-0.2 0.2,-0.2 z"
       style="font-style:normal;font-variant:normal;font-weight:normal;font-stretch:condensed;font-size:20px;font-family:'Barlow Condensed';-inkscape-font-specification:'Barlow Condensed, Condensed'"
       id="path5281"
       inkscape:connector-curvature="0" />
    <path
       d="m 417.91829,73.278184 q 0.5,0 0.86,0.22 0.14,0.08 0.1,0.26 l -0.22,1.02 q -0.02,0.18 -0.26,0.12 -0.24,-0.1 -0.54,-0.1 -0.2,0 -0.3,0.02 -0.72,0.04 -1.18,0.76 -0.46,0.7 -0.46,1.72 v 6 q 0,0.2 -0.2,0.2 h -1.02 q -0.2,0 -0.2,-0.2 v -9.72 q 0,-0.2 0.2,-0.2 h 1.02 q 0.2,0 0.2,0.2 v 1.2 q 0,0.06 0.02,0.06 0.04,0 0.08,-0.04 0.58,-1.52 1.9,-1.52 z"
       style="font-style:normal;font-variant:normal;font-weight:normal;font-stretch:condensed;font-size:20px;font-family:'Barlow Condensed';-inkscape-font-specification:'Barlow Condensed, Condensed'"
       id="path5283"
       inkscape:connector-curvature="0" />
    <path
       d="m 424.68859,73.218184 q 1.4,0 2.22,0.92 0.84,0.9 0.84,2.42 v 6.74 q 0,0.2 -0.2,0.2 h -1.02 q -0.2,0 -0.2,-0.2 v -0.58 q 0,-0.04 -0.04,-0.04 -0.02,-0.02 -0.06,0.02 -0.74,0.96 -2.2,0.96 -1.1,0 -1.92,-0.62 -0.8,-0.64 -0.8,-2.24 0,-1.7 0.98,-2.48 0.98,-0.8 2.58,-0.8 h 1.38 q 0.08,0 0.08,-0.08 v -0.78 q 0,-1 -0.46,-1.6 -0.44,-0.6 -1.22,-0.6 -0.6,0 -1.04,0.4 -0.44,0.4 -0.5,1.02 -0.02,0.2 -0.22,0.2 l -1.1,-0.02 q -0.1,0 -0.16,-0.06 -0.04,-0.06 -0.02,-0.14 0.1,-1.18 0.96,-1.9 0.86,-0.74 2.12,-0.74 z m -0.36,9.2 q 0.82,0 1.4,-0.52 0.6,-0.54 0.6,-1.48 v -1.68 q 0,-0.08 -0.08,-0.08 h -1.4 q -0.96,0 -1.52,0.52 -0.56,0.5 -0.56,1.5 0,0.88 0.42,1.32 0.44,0.42 1.14,0.42 z"
       style="font-style:normal;font-variant:normal;font-weight:normal;font-stretch:condensed;font-size:20px;font-family:'Barlow Condensed';-inkscape-font-specification:'Barlow Condensed, Condensed'"
       id="path5285"
       inkscape:connector-curvature="0" />
    <path
       d="m 434.28174,83.658184 q -1.42,0 -2.28,-0.84 -0.84,-0.84 -0.84,-2.22 v -4.32 q 0,-1.36 0.86,-2.2 0.86,-0.86 2.26,-0.86 0.94,0 1.66,0.38 0.72,0.38 1.1,1.02 0.4,0.62 0.4,1.38 v 0.2 q 0,0.2 -0.2,0.2 l -1.02,0.04 q -0.08,0 -0.14,-0.04 -0.06,-0.06 -0.06,-0.14 v -0.16 q 0,-0.66 -0.5,-1.14 -0.48,-0.5 -1.24,-0.5 -0.76,0 -1.24,0.54 -0.46,0.52 -0.46,1.38 v 4.12 q 0,0.86 0.46,1.4 0.48,0.52 1.24,0.52 0.76,0 1.24,-0.48 0.5,-0.5 0.5,-1.16 v -0.14 q 0,-0.2 0.2,-0.2 l 1.02,0.02 q 0.2,0 0.2,0.2 v 0.22 q 0,1.2 -0.88,2 -0.86,0.78 -2.28,0.78 z"
       style="font-style:normal;font-variant:normal;font-weight:normal;font-stretch:condensed;font-size:20px;font-family:'Barlow Condensed';-inkscape-font-specification:'Barlow Condensed, Condensed'"
       id="path5287"
       inkscape:connector-curvature="0" />
    <path
       d="m 441.05861,83.498184 q -0.2,0 -0.2,-0.2 v -13.6 q 0,-0.2 0.2,-0.2 h 1.02 q 0.2,0 0.2,0.2 v 8.04 q 0,0.04 0.04,0.06 0.04,0.02 0.06,-0.02 l 3,-4.28 q 0.08,-0.12 0.24,-0.12 h 1.04 q 0.12,0 0.16,0.08 0.04,0.06 -0.04,0.16 l -1.98,2.84 q -0.06,0.06 -0.02,0.12 l 2.36,6.7 0.02,0.08 q 0,0.14 -0.18,0.14 h -1.06 q -0.18,0 -0.24,-0.16 l -1.78,-5.56 q -0.02,-0.12 -0.12,-0.02 l -1.46,2.08 q -0.04,0.04 -0.04,0.1 v 3.36 q 0,0.2 -0.2,0.2 z"
       style="font-style:normal;font-variant:normal;font-weight:normal;font-stretch:condensed;font-size:20px;font-family:'Barlow Condensed';-inkscape-font-specification:'Barlow Condensed, Condensed'"
       id="path5289"
       inkscape:connector-curvature="0" />
    <path
       d="m 451.19454,71.578184 q -0.44,0 -0.72,-0.3 -0.28,-0.3 -0.28,-0.76 0,-0.44 0.28,-0.72 0.28,-0.3 0.72,-0.3 0.42,0 0.68,0.3 0.28,0.28 0.28,0.72 0,0.46 -0.28,0.76 -0.26,0.3 -0.68,0.3 z m -0.52,11.92 q -0.2,0 -0.2,-0.2 v -9.72 q 0,-0.2 0.2,-0.2 h 1.02 q 0.2,0 0.2,0.2 v 9.72 q 0,0.2 -0.2,0.2 z"
       style="font-style:normal;font-variant:normal;font-weight:normal;font-stretch:condensed;font-size:20px;font-family:'Barlow Condensed';-inkscape-font-specification:'Barlow Condensed, Condensed'"
       id="path5291"
       inkscape:connector-curvature="0" />
    <path
       d="m 459.42797,73.238184 q 1.22,0 1.88,0.84 0.68,0.84 0.68,2.34 v 6.88 q 0,0.2 -0.2,0.2 h -1.02 q -0.2,0 -0.2,-0.2 v -6.76 q 0,-0.98 -0.42,-1.52 -0.42,-0.54 -1.18,-0.54 -0.8,0 -1.26,0.58 -0.46,0.58 -0.46,1.58 v 6.66 q 0,0.2 -0.2,0.2 h -1.02 q -0.2,0 -0.2,-0.2 v -9.72 q 0,-0.2 0.2,-0.2 h 1.02 q 0.2,0 0.2,0.2 v 0.66 q 0,0.04 0.04,0.06 0.04,0 0.06,-0.04 0.74,-1.02 2.08,-1.02 z"
       style="font-style:normal;font-variant:normal;font-weight:normal;font-stretch:condensed;font-size:20px;font-family:'Barlow Condensed';-inkscape-font-specification:'Barlow Condensed, Condensed'"
       id="path5293"
       inkscape:connector-curvature="0" />
    <path
       d="m 470.33456,73.578184 q 0,-0.2 0.2,-0.2 h 1.02 q 0.2,0 0.2,0.2 v 9.72 q 0,2.14 -1,3.24 -0.98,1.12 -3.3,1.02 -0.2,-0.02 -0.2,-0.22 v -0.86 q 0,-0.2 0.2,-0.2 1.6,0.04 2.24,-0.74 0.64,-0.76 0.64,-2.36 v -0.6 q 0,-0.04 -0.04,-0.06 -0.02,-0.02 -0.06,0.02 -0.34,0.5 -0.88,0.76 -0.52,0.26 -1.12,0.26 -1.26,0 -2,-0.84 -0.72,-0.84 -0.72,-2.22 v -4.22 q 0,-1.4 0.72,-2.22 0.74,-0.84 2,-0.84 0.6,0 1.12,0.26 0.54,0.24 0.88,0.74 0.04,0.06 0.06,0.06 0.04,-0.02 0.04,-0.08 z m -1.68,8.74 q 0.74,0 1.2,-0.52 0.48,-0.54 0.48,-1.38 v -4.04 q 0,-0.86 -0.48,-1.38 -0.46,-0.54 -1.2,-0.54 -0.76,0 -1.24,0.54 -0.48,0.52 -0.48,1.38 v 4.04 q 0,0.84 0.48,1.38 0.48,0.52 1.24,0.52 z"
       style="font-style:normal;font-variant:normal;font-weight:normal;font-stretch:condensed;font-size:20px;font-family:'Barlow Condensed';-inkscape-font-specification:'Barlow Condensed, Condensed'"
       id="path5295"
       inkscape:connector-curvature="0" />
    <path
       d="m 486.7811,83.498184 q -0.18,0 -0.22,-0.18 l -0.5,-2.48 q 0,-0.04 -0.04,-0.06 -0.02,-0.02 -0.06,-0.02 h -3.62 q -0.04,0 -0.08,0.02 -0.02,0.02 -0.02,0.06 l -0.52,2.48 q -0.02,0.18 -0.22,0.18 h -1.02 q -0.1,0 -0.16,-0.06 -0.04,-0.06 -0.02,-0.16 l 3.02,-13.6 q 0.04,-0.18 0.22,-0.18 h 1.2 q 0.2,0 0.22,0.18 l 3.04,13.6 v 0.04 q 0,0.18 -0.18,0.18 z m -4.26,-3.98 q 0,0.08 0.06,0.08 h 3.14 q 0.06,0 0.06,-0.08 l -1.58,-7.7 q -0.02,-0.06 -0.04,-0.06 -0.02,0 -0.04,0.06 z"
       style="font-style:normal;font-variant:normal;font-weight:normal;font-stretch:condensed;font-size:20px;font-family:'Barlow Condensed';-inkscape-font-specification:'Barlow Condensed, Condensed'"
       id="path5297"
       inkscape:connector-curvature="0" />
    <path
       d="m 497.67266,76.278184 q 0.02,0.74 0.02,2.22 0,1.42 -0.02,2.16 -0.04,1.34 -0.78,2.18 -0.72,0.82 -1.92,0.82 -1.28,0 -1.98,-0.96 -0.04,-0.04 -0.08,-0.02 -0.02,0.02 -0.02,0.06 v 4.44 q 0,0.2 -0.2,0.2 h -1.02 q -0.2,0 -0.2,-0.2 v -13.6 q 0,-0.2 0.2,-0.2 h 1.02 q 0.2,0 0.2,0.2 v 0.58 q 0,0.04 0.02,0.06 0.04,0.02 0.08,-0.02 0.34,-0.48 0.84,-0.72 0.52,-0.26 1.14,-0.26 1.18,0 1.9,0.86 0.74,0.84 0.8,2.2 z m -3.12,6.14 q 0.78,0 1.26,-0.54 0.48,-0.56 0.46,-1.46 v -0.7 -1.28 -1.98 q 0.02,-0.88 -0.46,-1.44 -0.48,-0.56 -1.26,-0.56 -0.72,0 -1.2,0.56 -0.46,0.54 -0.46,1.44 v 3.96 q 0,0.9 0.46,1.46 0.48,0.54 1.2,0.54 z"
       style="font-style:normal;font-variant:normal;font-weight:normal;font-stretch:condensed;font-size:20px;font-family:'Barlow Condensed';-inkscape-font-specification:'Barlow Condensed, Condensed'"
       id="path5299"
       inkscape:connector-curvature="0" />
    <path
       d="m 507.65734,76.278184 q 0.02,0.74 0.02,2.22 0,1.42 -0.02,2.16 -0.04,1.34 -0.78,2.18 -0.72,0.82 -1.92,0.82 -1.28,0 -1.98,-0.96 -0.04,-0.04 -0.08,-0.02 -0.02,0.02 -0.02,0.06 v 4.44 q 0,0.2 -0.2,0.2 h -1.02 q -0.2,0 -0.2,-0.2 v -13.6 q 0,-0.2 0.2,-0.2 h 1.02 q 0.2,0 0.2,0.2 v 0.58 q 0,0.04 0.02,0.06 0.04,0.02 0.08,-0.02 0.34,-0.48 0.84,-0.72 0.52,-0.26 1.14,-0.26 1.18,0 1.9,0.86 0.74,0.84 0.8,2.2 z m -3.12,6.14 q 0.78,0 1.26,-0.54 0.48,-0.56 0.46,-1.46 v -0.7 -1.28 -1.98 q 0.02,-0.88 -0.46,-1.44 -0.48,-0.56 -1.26,-0.56 -0.72,0 -1.2,0.56 -0.46,0.54 -0.46,1.44 v 3.96 q 0,0.9 0.46,1.46 0.48,0.54 1.2,0.54 z"
       style="font-style:normal;font-variant:normal;font-weight:normal;font-stretch:condensed;font-size:20px;font-family:'Barlow Condensed';-inkscape-font-specification:'Barlow Condensed, Condensed'"
       id="path5301"
       inkscape:connector-curvature="0" />
    <path
       d="m 511.40205,83.498184 q -0.2,0 -0.2,-0.2 v -13.6 q 0,-0.2 0.2,-0.2 h 1.02 q 0.2,0 0.2,0.2 v 13.6 q 0,0.2 -0.2,0.2 z"
       style="font-style:normal;font-variant:normal;font-weight:normal;font-stretch:condensed;font-size:20px;font-family:'Barlow Condensed';-inkscape-font-specification:'Barlow Condensed, Condensed'"
       id="path5303"
       inkscape:connector-curvature="0" />
    <path
       d="m 517.20486,71.578184 q -0.44,0 -0.72,-0.3 -0.28,-0.3 -0.28,-0.76 0,-0.44 0.28,-0.72 0.28,-0.3 0.72,-0.3 0.42,0 0.68,0.3 0.28,0.28 0.28,0.72 0,0.46 -0.28,0.76 -0.26,0.3 -0.68,0.3 z m -0.52,11.92 q -0.2,0 -0.2,-0.2 v -9.72 q 0,-0.2 0.2,-0.2 h 1.02 q 0.2,0 0.2,0.2 v 9.72 q 0,0.2 -0.2,0.2 z"
       style="font-style:normal;font-variant:normal;font-weight:normal;font-stretch:condensed;font-size:20px;font-family:'Barlow Condensed';-inkscape-font-specification:'Barlow Condensed, Condensed'"
       id="path5305"
       inkscape:connector-curvature="0" />
    <path
       d="m 524.73829,83.658184 q -1.42,0 -2.28,-0.84 -0.84,-0.84 -0.84,-2.22 v -4.32 q 0,-1.36 0.86,-2.2 0.86,-0.86 2.26,-0.86 0.94,0 1.66,0.38 0.72,0.38 1.1,1.02 0.4,0.62 0.4,1.38 v 0.2 q 0,0.2 -0.2,0.2 l -1.02,0.04 q -0.08,0 -0.14,-0.04 -0.06,-0.06 -0.06,-0.14 v -0.16 q 0,-0.66 -0.5,-1.14 -0.48,-0.5 -1.24,-0.5 -0.76,0 -1.24,0.54 -0.46,0.52 -0.46,1.38 v 4.12 q 0,0.86 0.46,1.4 0.48,0.52 1.24,0.52 0.76,0 1.24,-0.48 0.5,-0.5 0.5,-1.16 v -0.14 q 0,-0.2 0.2,-0.2 l 1.02,0.02 q 0.2,0 0.2,0.2 v 0.22 q 0,1.2 -0.88,2 -0.86,0.78 -2.28,0.78 z"
       style="font-style:normal;font-variant:normal;font-weight:normal;font-stretch:condensed;font-size:20px;font-family:'Barlow Condensed';-inkscape-font-specification:'Barlow Condensed, Condensed'"
       id="path5307"
       inkscape:connector-curvature="0" />
    <path
       d="m 534.25515,73.218184 q 1.4,0 2.22,0.92 0.84,0.9 0.84,2.42 v 6.74 q 0,0.2 -0.2,0.2 h -1.02 q -0.2,0 -0.2,-0.2 v -0.58 q 0,-0.04 -0.04,-0.04 -0.02,-0.02 -0.06,0.02 -0.74,0.96 -2.2,0.96 -1.1,0 -1.92,-0.62 -0.8,-0.64 -0.8,-2.24 0,-1.7 0.98,-2.48 0.98,-0.8 2.58,-0.8 h 1.38 q 0.08,0 0.08,-0.08 v -0.78 q 0,-1 -0.46,-1.6 -0.44,-0.6 -1.22,-0.6 -0.6,0 -1.04,0.4 -0.44,0.4 -0.5,1.02 -0.02,0.2 -0.22,0.2 l -1.1,-0.02 q -0.1,0 -0.16,-0.06 -0.04,-0.06 -0.02,-0.14 0.1,-1.18 0.96,-1.9 0.86,-0.74 2.12,-0.74 z m -0.36,9.2 q 0.82,0 1.4,-0.52 0.6,-0.54 0.6,-1.48 v -1.68 q 0,-0.08 -0.08,-0.08 h -1.4 q -0.96,0 -1.52,0.52 -0.56,0.5 -0.56,1.5 0,0.88 0.42,1.32 0.44,0.42 1.14,0.42 z"
       style="font-style:normal;font-variant:normal;font-weight:normal;font-stretch:condensed;font-size:20px;font-family:'Barlow Condensed';-inkscape-font-specification:'Barlow Condensed, Condensed'"
       id="path5309"
       inkscape:connector-curvature="0" />
    <path
       d="m 544.5083,74.238184 q 0,0.2 -0.2,0.2 h -1.52 q -0.08,0 -0.08,0.08 v 6.12 q 0,0.92 0.32,1.28 0.32,0.34 0.98,0.32 h 0.2 q 0.2,0 0.2,0.2 v 0.86 q 0,0.2 -0.2,0.2 h -0.5 q -1.18,0 -1.8,-0.5 -0.6,-0.52 -0.6,-1.94 v -6.54 q 0,-0.08 -0.08,-0.08 h -0.78 q -0.2,0 -0.2,-0.2 v -0.66 q 0,-0.2 0.2,-0.2 h 0.78 q 0.08,0 0.08,-0.08 v -2.24 q 0,-0.2 0.2,-0.2 h 1 q 0.2,0 0.2,0.2 v 2.24 q 0,0.08 0.08,0.08 h 1.52 q 0.2,0 0.2,0.2 z"
       style="font-style:normal;font-variant:normal;font-weight:normal;font-stretch:condensed;font-size:20px;font-family:'Barlow Condensed';-inkscape-font-specification:'Barlow Condensed, Condensed'"
       id="path5311"
       inkscape:connector-curvature="0" />
    <path
       d="m 548.54986,71.578184 q -0.44,0 -0.72,-0.3 -0.28,-0.3 -0.28,-0.76 0,-0.44 0.28,-0.72 0.28,-0.3 0.72,-0.3 0.42,0 0.68,0.3 0.28,0.28 0.28,0.72 0,0.46 -0.28,0.76 -0.26,0.3 -0.68,0.3 z m -0.52,11.92 q -0.2,0 -0.2,-0.2 v -9.72 q 0,-0.2 0.2,-0.2 h 1.02 q 0.2,0 0.2,0.2 v 9.72 q 0,0.2 -0.2,0.2 z"
       style="font-style:normal;font-variant:normal;font-weight:normal;font-stretch:condensed;font-size:20px;font-family:'Barlow Condensed';-inkscape-font-specification:'Barlow Condensed, Condensed'"
       id="path5313"
       inkscape:connector-curvature="0" />
    <path
       d="m 556.10329,83.658184 q -1.44,0 -2.3,-0.84 -0.84,-0.84 -0.84,-2.22 v -4.32 q 0,-1.36 0.86,-2.2 0.86,-0.86 2.28,-0.86 1.42,0 2.28,0.86 0.88,0.84 0.88,2.2 v 4.32 q 0,1.38 -0.86,2.22 -0.86,0.84 -2.3,0.84 z m 0,-1.24 q 0.76,0 1.24,-0.52 0.5,-0.54 0.5,-1.38 v -4.14 q 0,-0.86 -0.5,-1.38 -0.48,-0.54 -1.24,-0.54 -0.76,0 -1.24,0.54 -0.48,0.52 -0.48,1.38 v 4.14 q 0,0.84 0.48,1.38 0.48,0.52 1.24,0.52 z"
       style="font-style:normal;font-variant:normal;font-weight:normal;font-stretch:condensed;font-size:20px;font-family:'Barlow Condensed';-inkscape-font-specification:'Barlow Condensed, Condensed'"
       id="path5315"
       inkscape:connector-curvature="0" />
    <path
       d="m 566.49453,73.238184 q 1.22,0 1.88,0.84 0.68,0.84 0.68,2.34 v 6.88 q 0,0.2 -0.2,0.2 h -1.02 q -0.2,0 -0.2,-0.2 v -6.76 q 0,-0.98 -0.42,-1.52 -0.42,-0.54 -1.18,-0.54 -0.8,0 -1.26,0.58 -0.46,0.58 -0.46,1.58 v 6.66 q 0,0.2 -0.2,0.2 h -1.02 q -0.2,0 -0.2,-0.2 v -9.72 q 0,-0.2 0.2,-0.2 h 1.02 q 0.2,0 0.2,0.2 v 0.66 q 0,0.04 0.04,0.06 0.04,0 0.06,-0.04 0.74,-1.02 2.08,-1.02 z"
       style="font-style:normal;font-variant:normal;font-weight:normal;font-stretch:condensed;font-size:20px;font-family:'Barlow Condensed';-inkscape-font-specification:'Barlow Condensed, Condensed'"
       id="path5317"
       inkscape:connector-curvature="0" />
  </g>
  <ellipse
     transform="matrix(0.83973137,-0.54300205,0.16476115,0.98633349,0,0)"
     ry="18.977406"
     rx="37.402393"
     cy="103.11711"
     cx="84.423592"
     id="ellipse836"
     style="fill:#5f8dd3;fill-opacity:1;stroke-width:0.3498854" />
  <ellipse
     transform="matrix(0.87312511,-0.4874962,0.18994087,0.98179553,0,0)"
     ry="21.826334"
     rx="47.694771"
     cy="80.850502"
     cx="55.968788"
     id="ellipse1568"
     style="fill:#003380;fill-opacity:1;stroke-width:0.42372441" />
  <ellipse
     style="fill:#2c5aa0;fill-opacity:1;stroke-width:0.42372441"
     id="path832"
     cx="51.834152"
     cy="78.797508"
     rx="47.694771"
     ry="21.826334"
     transform="matrix(0.87312511,-0.4874962,0.18994087,0.98179553,0,0)" />
  <path
     style="opacity:1;fill:#ffffff;fill-opacity:1;stroke:none;stroke-width:1.07167614"
     d="m 65.772735,28.021072 c -4.27426,5.88948 -6.859118,14.133573 -6.763429,21.57111 -6.888339,2.219021 -13.025631,5.7869 -16.300045,9.475965 -3.040516,-1.211706 -6.551467,-1.854313 -10.163415,-1.860194 -1.914742,0.0042 -3.827978,0.184531 -5.681682,0.539704 -0.02181,0.18746 -0.03917,0.375174 -0.05206,0.563038 -0.144,3.987278 1.740575,7.758436 5.12332,10.252071 1.442392,-2.129923 3.539888,-3.90072 6.061201,-5.117102 0.577741,-0.310833 1.239167,-0.586515 1.968284,-0.820431 0.209341,-0.07381 0.4204,-0.143813 0.633025,-0.20998 0,0 1.585054,-0.740313 5.247742,-0.700692 0.523241,0.006 1.088997,0.02736 1.698435,0.06922 1.586289,0.109091 4.730907,0.429559 6.876208,0.777676 2.432355,0.394704 5.371072,0.849199 10.434042,1.359376 0.863993,0.08706 1.593623,0.14315 2.262244,0.18743 1.372242,0.0558 2.739313,0.06691 3.921708,-0.0048 1.395117,-0.08261 2.450102,-0.133044 3.803747,-0.278352 0.886441,-0.09515 2.640166,-0.427812 2.640166,-0.427812 l 4.974771,-1.421583 3.174477,-1.184402 c 0,0 3.088152,-1.229947 4.690146,-1.657988 0.563314,-0.15052 0.95427,-0.202803 1.720213,-0.317299 0.123704,-0.0185 0.2498,-0.01332 0.374842,-0.01711 2.087794,0.0054 4.014999,0.595964 5.510908,1.308576 0.707369,0.316756 0.613633,0.3055 0.707369,0.316756 0.419671,0.09383 0.860649,0.14218 1.304931,0.14309 2.217177,1.09e-4 4.014757,-1.156157 4.015127,-2.582664 -0.001,-0.331364 -0.10051,-0.659534 -0.29396,-0.966642 0.089,-0.347303 0.13497,-0.703663 0.13687,-1.061518 -8e-5,-2.484547 -2.07827,-4.498677 -4.641932,-4.498849 -1.010091,0.06185 -1.5293,0.307858 -2.017198,0.491932 l -2.312948,1.022703 c -0.81705,0.361277 -2.646981,1.471136 -5.467761,1.476289 -0.830434,-0.003 -1.658332,-0.0898 -2.469892,-0.262064 l -3.626302,-0.881114 -1.895176,-0.663348 -2.79497,-1.279274 -1.84775,-0.796331 -2.658088,-1.245844 c 1.855699,-2.765199 4.838636,-4.654842 8.054367,-5.102312 -0.480516,-1.103723 -0.88579,-2.299978 -1.208506,-3.567191 -0.876269,-3.497187 -1.09803,-7.414619 -0.636141,-11.237385 l -9.839903,2.454338 c 0,0 -2.046365,-1.687452 -4.662932,-3.84871 z M 40.597881,62.415253 c -0.0024,0.006 -0.0048,0.01187 -0.006,0.0179 l 0.006,-0.0024 z"
     id="ellipse2092"
     inkscape:connector-curvature="0"
     sodipodi:nodetypes="ccccccccccsccccsscccsscccccccccsccccccccccccccccc" />
  <path
     style="fill:#b04e3e;fill-opacity:1;stroke:none;stroke-width:0.39816895px;stroke-linecap:butt;stroke-linejoin:miter;stroke-opacity:1"
     d="m 103.42438,54.71116 28.96042,2.884826 -29.18448,1.736514 -0.6722,-1.708511 z"
     id="path2028"
     inkscape:connector-curvature="0" />
  <path
     style="fill:#000000;fill-opacity:1;stroke:none;stroke-width:0.39816895px;stroke-linecap:butt;stroke-linejoin:miter;stroke-opacity:1"
     d="m 53.978058,51.605068 6.069854,-2.388935 -0.438785,-3.412779 0.0975,-3.656545 0.682566,-3.071496 0.706929,-2.120795 0.950703,-2.364566 0.975067,-1.755142 1.560136,-2.437692 1.194459,-1.560127 0.926328,-1.048207 -1.096963,-9.092603 -0.14626,-2.315815 0.07312,-3.36402 0.390034,-3.607788 0.390034,-2.3645669 0.755692,-3.6565408 -1.218853,0.8775692 -1.413864,1.1700941 -0.950709,1.0969643 -0.90194,1.0238319 -0.609421,1.2432228 -0.390028,1.3651114 -0.0975,1.170095 0.0975,1.36511 0.243756,1.560127 0.341283,1.560121 0.706929,2.510829 0.658184,2.388938 0.365652,1.316359 0.780068,2.876481 -0.99946,-1.365111 -1.31635,-3.071496 -4.485361,-9.385129 -0.414409,0.243771 -0.463155,0.487537 -0.414416,0.633802 -0.121884,0.755684 -0.121884,1.048214 0.146266,1.438237 0.268144,1.438242 1.02383,2.925232 0.487542,1.316359 0.560676,1.291978 1.365107,2.803349 1.706389,3.485906 -2.55959,-3.875936 -2.096418,-3.388399 -2.486445,-4.144083 -0.901946,-1.36511 -0.511912,0.950704 -0.438792,0.950699 -0.341276,0.877569 -0.170636,1.218851 0.09749,1.145716 0.219404,1.096963 0.511918,0.999456 0.682548,1.145716 0.901946,1.096963 5.046024,5.70421 -9.360743,-7.703121 -0.268144,0.731309 -0.14626,0.901948 -0.121878,1.023831 0.14626,1.096965 0.292525,0.731308 0.682548,0.999456 0.87757,0.828816 1.02383,0.780061 1.413864,0.853193 1.096963,0.511918 1.82828,0.975075 -8.215035,-1.535744 v 0.755684 l 0.195005,0.828817 0.341283,0.706933 0.5363,0.706929 0.75568,0.609426 0.682559,0.365654 0.804438,0.243766 0.90194,0.243773 0.731311,0.12188 1.096963,0.02436 -6.094236,1.291978 0.170641,0.658178 0.268144,0.682552 0.438791,0.511919 0.658172,0.585046 0.877565,0.146261 0.975085,0.07312 0.853188,-0.121881 0.828826,-0.24377 -3.632178,3.315266 0.219398,0.633801 0.463155,0.828817 0.633808,0.755684 0.560664,0.243772 0.804449,0.07313 0.706923,-0.195003 0.68256,-0.365655 0.292525,-0.170638 -0.438785,0.755676 -0.341283,0.609438 -0.219386,0.877561 -0.12189,1.096958 v 1.096959 l 0.09751,1.194481 z"
     id="path2040"
     inkscape:connector-curvature="0" />
  <path
     style="fill:#666666;fill-opacity:1;stroke:none;stroke-width:0.39816895px;stroke-linecap:butt;stroke-linejoin:miter;stroke-opacity:1"
     d="m 59.875384,55.640857 h 5.896411 l -0.296949,-4.02992 0.636285,-4.793482 1.272618,-4.157175 2.036169,-3.945077 2.333111,-2.884572 2.502782,-2.248271 2.333123,-1.993746 1.993745,-1.187766 1.696802,-0.933245 0.254525,-3.096671 0.636297,-3.605715 0.763568,-2.757313 0.805975,-2.417948 0.890827,-2.333111 1.230189,-2.29069 1.060499,-2.121007 0.975669,-1.5695465 1.44229,-2.2058475 -1.187765,0.38178 -1.781656,0.4666216 -1.230182,0.721144 -1.442283,0.8059815 -1.102929,1.1877659 -1.060499,1.569548 -0.721151,1.951326 -0.33936,2.29069 -0.212095,1.908906 -0.169689,2.248268 -0.254513,3.011834 -0.254519,2.46037 -0.127265,1.230186 -1.44229,-16.119667 -1.018087,0.296943 -0.848404,0.721144 -0.636303,1.187761 -0.46662,1.654388 -0.169683,2.248269 -0.04242,2.333111 0.127247,2.46037 0.16969,2.460369 0.381772,4.284438 -3.096668,-14.210759 -1.145346,1.018084 -1.018082,1.399865 -0.466625,0.721145 -0.424208,0.975665 -0.127248,1.399866 0.127248,1.102925 0.38179,1.315024 2.969408,7.974991 -5.853975,-10.011159 -0.721144,0.805981 -0.636303,1.102924 -0.254525,1.187766 -0.04242,1.442288 0.424208,1.442283 1.018087,1.52713 3.181515,3.563294 -6.956915,-4.157179 -0.466626,0.933244 -0.08484,1.018083 0.296943,1.060508 0.890828,1.357444 0.551461,0.38178 1.145341,0.848404 1.696808,0.721143 -6.193341,-0.721143 -0.127284,1.102923 0.55148,1.145345 0.975657,0.890824 0.975664,0.424201 0.890828,0.169685 1.102917,0.08484 -4.920729,1.696808 -0.04242,1.230183 0.424208,1.230187 0.721144,0.763564 1.060493,0.212102 1.060505,-0.08485 -0.80598,0.805981 -0.80598,1.018085 -0.509038,1.272605 -0.424202,1.399866 -0.254536,1.442288 -0.127242,1.145339 -0.127283,1.951339 0.212119,2.502782 z"
     id="path2034"
     inkscape:connector-curvature="0" />
  <path
     style="fill:#9d4035;fill-opacity:1;stroke:none;stroke-width:0.39816895px;stroke-linecap:butt;stroke-linejoin:miter;stroke-opacity:1"
     d="m 103.20032,59.3325 -0.6722,-1.708511 29.85668,-0.02796 z"
     id="path2030"
     inkscape:connector-curvature="0" />
  <ellipse
     style="fill:#000000;fill-opacity:1;stroke:none;stroke-width:0.43041047"
     id="path2032"
     cx="99.181145"
     cy="54.515099"
     rx="1.022297"
     ry="1.0363014" />
  <path
     inkscape:connector-curvature="0"
     style="opacity:0.56400003;fill:#3358e8;fill-opacity:1;stroke:none;stroke-width:0.64165062"
     d="m 74.082181,49.294341 a 9.5507331,10.70214 49.888175 0 0 -0.982979,1.769202 9.5507331,10.70214 49.888175 0 0 -0.890442,3.623965 5.4994704,6.7710263 16.225488 0 1 4.515177,-4.11934 14.403382,5.654644 15.563318 0 0 -2.641756,-1.273827 z"
     id="ellipse2079" />
  <rect
     style="opacity:0.56400003;fill:#d8dbe8;fill-opacity:1;stroke:none;stroke-width:0.39816895"
     id="rect2139"
     width="0.21337345"
     height="0.053343363"
     x="38.591057"
     y="39.904446" />
  <path
     style="fill:#b9473c;fill-opacity:1;stroke:none;stroke-width:0.39816895px;stroke-linecap:butt;stroke-linejoin:miter;stroke-opacity:1"
     d="m 11.662915,60.232608 28.223602,-0.762803 c 0,0 0.40308,0.04815 0.724658,0.228824 0.281907,0.158396 0.266986,0.419543 0.266986,0.419543 0,0 0.129495,0.549768 0.03815,0.800943 -0.0769,0.211378 -0.27458,0.484662 -0.44539,0.630988 -0.186779,0.160005 -0.380368,0.249185 -0.624817,0.27611 -0.682518,0.07524 -1.711476,-0.03158 -1.711476,-0.03158 L 34.508783,61.643818 11.205248,61.071705 10.289888,61.529382 9.3745214,61.796363 7.1624085,61.681993 7.9252057,61.376873 9.1075526,60.804784 9.0694076,60.461519 8.1921867,60.728494 7.4293895,60.461531 6.5903019,59.851285 7.4293895,60.003842 8.535446,60.118212 8.9168463,59.927518 7.8489231,59.584265 7.3531008,59.241006 6.7428547,58.59262 Z"
     id="path2194"
     inkscape:connector-curvature="0"
     sodipodi:nodetypes="ccscsssccccccccccccccccccc" />
  <path
     style="opacity:0.41700003;fill:#7280bb;fill-opacity:0.91764706;stroke-width:0.43394548"
     d="m 37.493404,61.265074 c -2.962575,-1.69e-4 -5.364305,3.11568 -5.364396,6.959404 0.0018,0.06588 0.0042,0.131725 0.006,0.19753 0.423877,-1.072141 1.850709,-2.809041 3.627628,-4.022573 1.478537,-1.00976 1.766163,-0.978641 4.492062,-2.132725 -0.833176,-0.652628 -1.787495,-0.998876 -2.760736,-1.001636 z"
     id="path833"
     inkscape:connector-curvature="0"
     sodipodi:nodetypes="cccscc" />
  <path
     style="fill:#666666;fill-opacity:1;stroke:none;stroke-width:0.39816895px;stroke-linecap:butt;stroke-linejoin:miter;stroke-opacity:1"
     d="m 46.500583,61.465773 8.266082,-0.678371 4.899324,-0.100534 3.592864,0.0754 5.100349,0.402002 3.89435,0.02507 1.909493,0.05032 2.989861,-0.201013 2.839112,-0.477359 2.185863,-0.603002 2.437115,-0.778875 2.236109,-0.653255 1.834113,-0.301486 1.758739,-0.02507 1.180876,0.150756 0.678366,0.125656 -2.236115,0.502505 -4.145597,1.381896 -4.421978,1.733591 -3.040106,0.929612 -2.66324,0.527628 -3.592857,0.276376 h -3.41698 L 64.188476,63.551241 59.11325,62.948245 55.269152,62.496009 51.224041,61.99351 Z"
     id="path840"
     inkscape:connector-curvature="0" />
</svg>
