<?xml version="1.0" encoding="UTF-8" standalone="no"?>
<!-- Generator: Gravit.io -->

<svg
   xmlns:dc="http://purl.org/dc/elements/1.1/"
   xmlns:cc="http://creativecommons.org/ns#"
   xmlns:rdf="http://www.w3.org/1999/02/22-rdf-syntax-ns#"
   xmlns:svg="http://www.w3.org/2000/svg"
   xmlns="http://www.w3.org/2000/svg"
   xmlns:sodipodi="http://sodipodi.sourceforge.net/DTD/sodipodi-0.dtd"
   xmlns:inkscape="http://www.inkscape.org/namespaces/inkscape"
   style="isolation:isolate"
   viewBox="0 0 640 160"
   width="640"
   height="160"
   id="svg4259"
   version="1.1"
   inkscape:version="0.92.5 (2060ec1f9f, 2020-04-08)"
   sodipodi:docname="ememo_brand_logo.svg">
  <metadata
     id="metadata4293">
    <rdf:RDF>
      <cc:Work
         rdf:about="">
        <dc:format>image/svg+xml</dc:format>
        <dc:type
           rdf:resource="http://purl.org/dc/dcmitype/StillImage" />
        <dc:title></dc:title>
      </cc:Work>
    </rdf:RDF>
  </metadata>
  <sodipodi:namedview
     pagecolor="#ffffff"
     bordercolor="#666666"
     borderopacity="1"
     objecttolerance="10"
     gridtolerance="10"
     guidetolerance="10"
     inkscape:pageopacity="0"
     inkscape:pageshadow="2"
     inkscape:window-width="1920"
     inkscape:window-height="1007"
     id="namedview4291"
     showgrid="false"
     inkscape:zoom="2.1265625"
     inkscape:cx="320"
     inkscape:cy="80"
     inkscape:window-x="0"
     inkscape:window-y="0"
     inkscape:window-maximized="1"
     inkscape:current-layer="svg4259" />
  <defs
     id="defs4261">
    <clipPath
       id="_clipPath_QDLCauB5rNziMZr8STcPCmG1C2ohRiZf">
      <rect
         width="1000"
         height="400"
         id="rect4264"
         x="0"
         y="0" />
    </clipPath>
  </defs>
  <g
     style="font-style:normal;font-weight:normal;font-size:40px;line-height:0%;font-family:sans-serif;letter-spacing:1.42999995px;word-spacing:0px;fill:#000000;fill-opacity:1;stroke:none;stroke-width:1px;stroke-linecap:butt;stroke-linejoin:miter;stroke-opacity:1"
     id="text4942"
     transform="translate(344,60)">
    <path
       d="m 52.163194,30.146434 q -9.290237,0 -13.318744,-5.097296 Q 34.815942,19.95184 34.815942,9.839463 v -24.171052 q 0,-8.303661 4.76844,-12.661026 4.768435,-4.357367 13.318744,-4.357367 17.347246,0 17.347246,17.018393 v 4.357367 q 0,6.577155 -0.164424,10.687881 H 49.20347 v 11.674452 q 0,3.124149 0.65772,4.932866 0.657714,1.726505 2.795292,1.726505 1.644289,0 2.302006,-0.986572 0.739927,-0.986574 0.822143,-2.219793 0.164427,-1.315429 0.164427,-3.781865 V 6.222026 h 14.305314 v 3.453008 q 0,10.523452 -4.110718,15.538532 -4.028511,4.932868 -13.97646,4.932868 z M 55.945058,-6.439 v -7.72816 q 0,-6.494943 -3.206362,-6.494943 -3.617439,0 -3.617439,6.494943 V -6.439 Z"
       style="font-size:60px;fill:#b3b3b3;stroke-width:1.37024081px"
       id="path5067"
       inkscape:connector-curvature="0" />
    <path
       d="m 77.659111,29.488719 v -70.622224 h 21.540175 l 5.919434,43.080379 5.91945,-43.080379 h 21.70462 V 29.488719 H 119.83512 V -21.402032 L 111.6959,29.488719 H 99.034867 L 90.40235,-21.402032 v 50.890751 z"
       style="font-size:60px;fill:#000080;stroke-width:1.37024081px"
       id="path5069"
       inkscape:connector-curvature="0" />
    <path
       d="m 157.56555,30.146434 q -9.29022,0 -13.31873,-5.097296 -4.02851,-5.097298 -4.02851,-15.209675 v -24.171052 q 0,-8.303661 4.76841,-12.661026 4.76847,-4.357367 13.31878,-4.357367 17.34725,0 17.34725,17.018393 v 4.357367 q 0,6.577155 -0.16443,10.687881 h -20.88248 v 11.674452 q 0,3.124149 0.65772,4.932866 0.65773,1.726505 2.79529,1.726505 1.64428,0 2.302,-0.986572 0.73993,-0.986574 0.82215,-2.219793 0.16444,-1.315429 0.16444,-3.781865 V 6.222026 h 14.30531 v 3.453008 q 0,10.523452 -4.11072,15.538532 -4.02852,4.932868 -13.97648,4.932868 z M 161.34744,-6.439 v -7.72816 q 0,-6.494943 -3.20639,-6.494943 -3.61744,0 -3.61744,6.494943 V -6.439 Z"
       style="font-size:60px;fill:#000080;stroke-width:1.37024081px"
       id="path5071"
       inkscape:connector-curvature="0" />
    <path
       d="m 182.81483,-30.692268 h 14.05865 v 6.98823 q 0.98661,-3.86408 3.3708,-5.755012 2.38423,-1.890932 6.74161,-1.890932 3.53523,0 6.08386,1.644286 2.63086,1.56208 3.69966,4.357367 1.8087,-3.124149 4.02849,-4.521794 2.2198,-1.479859 6.16611,-1.479859 7.07042,0 9.7835,4.357367 2.7953,4.275149 2.7953,12.496596 l -0.16444,43.984738 h -14.46973 v -44.23138 q 0,-5.837229 -2.95973,-5.837229 -2.05537,0 -2.95972,2.055364 -0.90436,1.973147 -0.90436,4.768438 v 43.244807 h -14.38752 v -44.23138 q 0,-2.548651 -0.57551,-4.110723 -0.49329,-1.562076 -2.2198,-1.562076 -2.21979,0 -3.12412,2.219791 -0.9044,2.137575 -0.9044,5.179513 v 42.504875 h -14.05865 z"
       style="font-size:60px;fill:#000080;stroke-width:1.37024081px"
       id="path5073"
       inkscape:connector-curvature="0" />
    <path
       d="m 264.58911,30.146434 q -18.00496,0 -18.00496,-18.662682 v -24.17105 q 0,-8.550306 4.76842,-13.56539 4.85067,-5.097294 13.23654,-5.097294 8.38586,0 13.15432,5.097294 4.85064,5.015084 4.85064,13.56539 v 24.17105 q 0,18.662682 -18.00496,18.662682 z m 0,-11.098952 q 1.7265,0 2.54865,-1.233217 0.82214,-1.233216 0.82214,-3.370793 v -29.432777 q 0,-5.261725 -3.37079,-5.261725 -3.37079,0 -3.37079,5.261725 v 29.432777 q 0,2.137577 0.82212,3.370793 0.82214,1.233217 2.54867,1.233217 z"
       style="font-size:60px;fill:#000080;stroke-width:1.37024081px"
       id="path5075"
       inkscape:connector-curvature="0" />
  </g>
  <g
     style="font-style:normal;font-weight:normal;font-size:40px;line-height:0%;font-family:sans-serif;letter-spacing:1.42999995px;word-spacing:0px;isolation:isolate;fill:#000000;fill-opacity:1;stroke:none;stroke-width:1px;stroke-linecap:butt;stroke-linejoin:miter;stroke-opacity:1"
     id="text4942-3-0-8-2"
     transform="matrix(1.370241,0,0,1.370241,27.597921,17.747013)">
    <path
       d="m 119.50986,83.658184 q -1.54,0 -2.48,-0.94 -0.92,-0.94 -0.92,-2.52 v -7.42 q 0,-1.56 0.92,-2.5 0.94,-0.94 2.48,-0.94 1.56,0 2.48,0.94 0.94,0.92 0.94,2.5 v 0.34 q 0,0.2 -0.2,0.2 l -1.04,0.06 q -0.2,0 -0.2,-0.2 v -0.5 q 0,-0.94 -0.54,-1.52 -0.54,-0.58 -1.44,-0.58 -0.88,0 -1.44,0.58 -0.54,0.58 -0.54,1.52 v 7.64 q 0,0.94 0.54,1.52 0.56,0.58 1.44,0.58 0.9,0 1.44,-0.58 0.54,-0.58 0.54,-1.52 v -0.5 q 0,-0.2 0.2,-0.2 l 1.04,0.06 q 0.2,0 0.2,0.2 v 0.32 q 0,1.58 -0.94,2.52 -0.94,0.94 -2.48,0.94 z"
       style="font-style:normal;font-variant:normal;font-weight:normal;font-stretch:condensed;font-size:20px;font-family:'Barlow Condensed';-inkscape-font-specification:'Barlow Condensed, Condensed'"
       id="path5225"
       inkscape:connector-curvature="0" />
    <path
       d="m 129.25173,83.658184 q -1.44,0 -2.3,-0.84 -0.84,-0.84 -0.84,-2.22 v -4.32 q 0,-1.36 0.86,-2.2 0.86,-0.86 2.28,-0.86 1.42,0 2.28,0.86 0.88,0.84 0.88,2.2 v 4.32 q 0,1.38 -0.86,2.22 -0.86,0.84 -2.3,0.84 z m 0,-1.24 q 0.76,0 1.24,-0.52 0.5,-0.54 0.5,-1.38 v -4.14 q 0,-0.86 -0.5,-1.38 -0.48,-0.54 -1.24,-0.54 -0.76,0 -1.24,0.54 -0.48,0.52 -0.48,1.38 v 4.14 q 0,0.84 0.48,1.38 0.48,0.52 1.24,0.52 z"
       style="font-style:normal;font-variant:normal;font-weight:normal;font-stretch:condensed;font-size:20px;font-family:'Barlow Condensed';-inkscape-font-specification:'Barlow Condensed, Condensed'"
       id="path5227"
       inkscape:connector-curvature="0" />
    <path
       d="m 138.96298,83.658184 q -1.44,0 -2.3,-0.84 -0.84,-0.84 -0.84,-2.22 v -4.32 q 0,-1.36 0.86,-2.2 0.86,-0.86 2.28,-0.86 1.42,0 2.28,0.86 0.88,0.84 0.88,2.2 v 4.32 q 0,1.38 -0.86,2.22 -0.86,0.84 -2.3,0.84 z m 0,-1.24 q 0.76,0 1.24,-0.52 0.5,-0.54 0.5,-1.38 v -4.14 q 0,-0.86 -0.5,-1.38 -0.48,-0.54 -1.24,-0.54 -0.76,0 -1.24,0.54 -0.48,0.52 -0.48,1.38 v 4.14 q 0,0.84 0.48,1.38 0.48,0.52 1.24,0.52 z"
       style="font-style:normal;font-variant:normal;font-weight:normal;font-stretch:condensed;font-size:20px;font-family:'Barlow Condensed';-inkscape-font-specification:'Barlow Condensed, Condensed'"
       id="path5229"
       inkscape:connector-curvature="0" />
    <path
       d="m 149.17423,73.278184 q 0.5,0 0.86,0.22 0.14,0.08 0.1,0.26 l -0.22,1.02 q -0.02,0.18 -0.26,0.12 -0.24,-0.1 -0.54,-0.1 -0.2,0 -0.3,0.02 -0.72,0.04 -1.18,0.76 -0.46,0.7 -0.46,1.72 v 6 q 0,0.2 -0.2,0.2 h -1.02 q -0.2,0 -0.2,-0.2 v -9.72 q 0,-0.2 0.2,-0.2 h 1.02 q 0.2,0 0.2,0.2 v 1.2 q 0,0.06 0.02,0.06 0.04,0 0.08,-0.04 0.58,-1.52 1.9,-1.52 z"
       style="font-style:normal;font-variant:normal;font-weight:normal;font-stretch:condensed;font-size:20px;font-family:'Barlow Condensed';-inkscape-font-specification:'Barlow Condensed, Condensed'"
       id="path5231"
       inkscape:connector-curvature="0" />
    <path
       d="m 157.52642,69.698184 q 0,-0.2 0.2,-0.2 h 1.02 q 0.2,0 0.2,0.2 v 13.6 q 0,0.2 -0.2,0.2 h -1.02 q -0.2,0 -0.2,-0.2 v -0.58 q 0,-0.04 -0.04,-0.06 -0.02,-0.02 -0.06,0.02 -0.34,0.48 -0.86,0.74 -0.5,0.24 -1.12,0.24 -1.18,0 -1.92,-0.84 -0.72,-0.86 -0.78,-2.22 -0.02,-0.74 -0.02,-2.22 0,-1.42 0.02,-2.16 0.04,-1.34 0.76,-2.16 0.74,-0.84 1.94,-0.84 1.3,0 1.98,0.96 0.04,0.04 0.06,0.02 0.04,-0.02 0.04,-0.06 z m -1.66,12.72 q 0.72,0 1.18,-0.54 0.48,-0.56 0.48,-1.46 v -3.96 q 0,-0.9 -0.48,-1.44 -0.46,-0.56 -1.18,-0.56 -0.78,0 -1.26,0.56 -0.48,0.54 -0.46,1.44 v 0.7 1.28 1.98 q -0.02,0.88 0.46,1.44 0.48,0.56 1.26,0.56 z"
       style="font-style:normal;font-variant:normal;font-weight:normal;font-stretch:condensed;font-size:20px;font-family:'Barlow Condensed';-inkscape-font-specification:'Barlow Condensed, Condensed'"
       id="path5233"
       inkscape:connector-curvature="0" />
    <path
       d="m 163.65298,71.578184 q -0.44,0 -0.72,-0.3 -0.28,-0.3 -0.28,-0.76 0,-0.44 0.28,-0.72 0.28,-0.3 0.72,-0.3 0.42,0 0.68,0.3 0.28,0.28 0.28,0.72 0,0.46 -0.28,0.76 -0.26,0.3 -0.68,0.3 z m -0.52,11.92 q -0.2,0 -0.2,-0.2 v -9.72 q 0,-0.2 0.2,-0.2 h 1.02 q 0.2,0 0.2,0.2 v 9.72 q 0,0.2 -0.2,0.2 z"
       style="font-style:normal;font-variant:normal;font-weight:normal;font-stretch:condensed;font-size:20px;font-family:'Barlow Condensed';-inkscape-font-specification:'Barlow Condensed, Condensed'"
       id="path5235"
       inkscape:connector-curvature="0" />
    <path
       d="m 171.88642,73.238184 q 1.22,0 1.88,0.84 0.68,0.84 0.68,2.34 v 6.88 q 0,0.2 -0.2,0.2 h -1.02 q -0.2,0 -0.2,-0.2 v -6.76 q 0,-0.98 -0.42,-1.52 -0.42,-0.54 -1.18,-0.54 -0.8,0 -1.26,0.58 -0.46,0.58 -0.46,1.58 v 6.66 q 0,0.2 -0.2,0.2 h -1.02 q -0.2,0 -0.2,-0.2 v -9.72 q 0,-0.2 0.2,-0.2 h 1.02 q 0.2,0 0.2,0.2 v 0.66 q 0,0.04 0.04,0.06 0.04,0 0.06,-0.04 0.74,-1.02 2.08,-1.02 z"
       style="font-style:normal;font-variant:normal;font-weight:normal;font-stretch:condensed;font-size:20px;font-family:'Barlow Condensed';-inkscape-font-specification:'Barlow Condensed, Condensed'"
       id="path5237"
       inkscape:connector-curvature="0" />
    <path
       d="m 181.13298,73.218184 q 1.4,0 2.22,0.92 0.84,0.9 0.84,2.42 v 6.74 q 0,0.2 -0.2,0.2 h -1.02 q -0.2,0 -0.2,-0.2 v -0.58 q 0,-0.04 -0.04,-0.04 -0.02,-0.02 -0.06,0.02 -0.74,0.96 -2.2,0.96 -1.1,0 -1.92,-0.62 -0.8,-0.64 -0.8,-2.24 0,-1.7 0.98,-2.48 0.98,-0.8 2.58,-0.8 h 1.38 q 0.08,0 0.08,-0.08 v -0.78 q 0,-1 -0.46,-1.6 -0.44,-0.6 -1.22,-0.6 -0.6,0 -1.04,0.4 -0.44,0.4 -0.5,1.02 -0.02,0.2 -0.22,0.2 l -1.1,-0.02 q -0.1,0 -0.16,-0.06 -0.04,-0.06 -0.02,-0.14 0.1,-1.18 0.96,-1.9 0.86,-0.74 2.12,-0.74 z m -0.36,9.2 q 0.82,0 1.4,-0.52 0.6,-0.54 0.6,-1.48 v -1.68 q 0,-0.08 -0.08,-0.08 h -1.4 q -0.96,0 -1.52,0.52 -0.56,0.5 -0.56,1.5 0,0.88 0.42,1.32 0.44,0.42 1.14,0.42 z"
       style="font-style:normal;font-variant:normal;font-weight:normal;font-stretch:condensed;font-size:20px;font-family:'Barlow Condensed';-inkscape-font-specification:'Barlow Condensed, Condensed'"
       id="path5239"
       inkscape:connector-curvature="0" />
    <path
       d="m 191.38611,74.238184 q 0,0.2 -0.2,0.2 h -1.52 q -0.08,0 -0.08,0.08 v 6.12 q 0,0.92 0.32,1.28 0.32,0.34 0.98,0.32 h 0.2 q 0.2,0 0.2,0.2 v 0.86 q 0,0.2 -0.2,0.2 h -0.5 q -1.18,0 -1.8,-0.5 -0.6,-0.52 -0.6,-1.94 v -6.54 q 0,-0.08 -0.08,-0.08 h -0.78 q -0.2,0 -0.2,-0.2 v -0.66 q 0,-0.2 0.2,-0.2 h 0.78 q 0.08,0 0.08,-0.08 v -2.24 q 0,-0.2 0.2,-0.2 h 1 q 0.2,0 0.2,0.2 v 2.24 q 0,0.08 0.08,0.08 h 1.52 q 0.2,0 0.2,0.2 z"
       style="font-style:normal;font-variant:normal;font-weight:normal;font-stretch:condensed;font-size:20px;font-family:'Barlow Condensed';-inkscape-font-specification:'Barlow Condensed, Condensed'"
       id="path5241"
       inkscape:connector-curvature="0" />
    <path
       d="m 195.42767,71.578184 q -0.44,0 -0.72,-0.3 -0.28,-0.3 -0.28,-0.76 0,-0.44 0.28,-0.72 0.28,-0.3 0.72,-0.3 0.42,0 0.68,0.3 0.28,0.28 0.28,0.72 0,0.46 -0.28,0.76 -0.26,0.3 -0.68,0.3 z m -0.52,11.92 q -0.2,0 -0.2,-0.2 v -9.72 q 0,-0.2 0.2,-0.2 h 1.02 q 0.2,0 0.2,0.2 v 9.72 q 0,0.2 -0.2,0.2 z"
       style="font-style:normal;font-variant:normal;font-weight:normal;font-stretch:condensed;font-size:20px;font-family:'Barlow Condensed';-inkscape-font-specification:'Barlow Condensed, Condensed'"
       id="path5243"
       inkscape:connector-curvature="0" />
    <path
       d="m 202.98111,83.658184 q -1.44,0 -2.3,-0.84 -0.84,-0.84 -0.84,-2.22 v -4.32 q 0,-1.36 0.86,-2.2 0.86,-0.86 2.28,-0.86 1.42,0 2.28,0.86 0.88,0.84 0.88,2.2 v 4.32 q 0,1.38 -0.86,2.22 -0.86,0.84 -2.3,0.84 z m 0,-1.24 q 0.76,0 1.24,-0.52 0.5,-0.54 0.5,-1.38 v -4.14 q 0,-0.86 -0.5,-1.38 -0.48,-0.54 -1.24,-0.54 -0.76,0 -1.24,0.54 -0.48,0.52 -0.48,1.38 v 4.14 q 0,0.84 0.48,1.38 0.48,0.52 1.24,0.52 z"
       style="font-style:normal;font-variant:normal;font-weight:normal;font-stretch:condensed;font-size:20px;font-family:'Barlow Condensed';-inkscape-font-specification:'Barlow Condensed, Condensed'"
       id="path5245"
       inkscape:connector-curvature="0" />
    <path
       d="m 213.37235,73.238184 q 1.22,0 1.88,0.84 0.68,0.84 0.68,2.34 v 6.88 q 0,0.2 -0.2,0.2 h -1.02 q -0.2,0 -0.2,-0.2 v -6.76 q 0,-0.98 -0.42,-1.52 -0.42,-0.54 -1.18,-0.54 -0.8,0 -1.26,0.58 -0.46,0.58 -0.46,1.58 v 6.66 q 0,0.2 -0.2,0.2 h -1.02 q -0.2,0 -0.2,-0.2 v -9.72 q 0,-0.2 0.2,-0.2 h 1.02 q 0.2,0 0.2,0.2 v 0.66 q 0,0.04 0.04,0.06 0.04,0 0.06,-0.04 0.74,-1.02 2.08,-1.02 z"
       style="font-style:normal;font-variant:normal;font-weight:normal;font-stretch:condensed;font-size:20px;font-family:'Barlow Condensed';-inkscape-font-specification:'Barlow Condensed, Condensed'"
       id="path5247"
       inkscape:connector-curvature="0" />
    <path
       d="m 225.49329,83.498184 q -0.2,0 -0.2,-0.2 v -13.6 q 0,-0.2 0.2,-0.2 h 1.04 q 0.16,0 0.22,0.16 l 2.24,5.42 q 0.02,0.04 0.06,0.04 0.04,0 0.06,-0.04 l 2.26,-5.42 q 0.06,-0.16 0.22,-0.16 h 1.04 q 0.2,0 0.2,0.2 v 13.6 q 0,0.2 -0.2,0.2 h -1.02 q -0.2,0 -0.2,-0.2 v -10.24 q 0,-0.06 -0.04,-0.06 -0.04,0 -0.06,0.04 l -2.04,4.64 q -0.06,0.16 -0.18,0.16 -0.14,0 -0.2,-0.16 l -2.08,-4.66 q -0.02,-0.04 -0.06,-0.04 -0.04,0 -0.04,0.06 v 10.26 q 0,0.2 -0.2,0.2 z"
       style="font-style:normal;font-variant:normal;font-weight:normal;font-stretch:condensed;font-size:20px;font-family:'Barlow Condensed';-inkscape-font-specification:'Barlow Condensed, Condensed'"
       id="path5249"
       inkscape:connector-curvature="0" />
    <path
       d="m 242.95392,78.778184 q 0,0.2 -0.2,0.2 h -4.56 q -0.08,0 -0.08,0.08 v 1.46 q 0,0.84 0.46,1.38 0.48,0.52 1.24,0.52 0.64,0 1.08,-0.38 0.46,-0.4 0.6,-1.02 0.06,-0.18 0.22,-0.18 l 1,0.04 q 0.08,0 0.14,0.06 0.06,0.06 0.04,0.16 -0.16,1.18 -0.98,1.88 -0.8,0.68 -2.1,0.68 -1.42,0 -2.28,-0.84 -0.84,-0.84 -0.84,-2.22 v -4.32 q 0,-1.36 0.84,-2.2 0.86,-0.86 2.28,-0.86 1.44,0 2.28,0.86 0.86,0.84 0.86,2.2 z m -3.14,-4.32 q -0.76,0 -1.24,0.54 -0.46,0.52 -0.46,1.38 v 1.34 q 0,0.08 0.08,0.08 h 3.28 q 0.08,0 0.08,-0.08 v -1.34 q 0,-0.86 -0.48,-1.38 -0.48,-0.54 -1.26,-0.54 z"
       style="font-style:normal;font-variant:normal;font-weight:normal;font-stretch:condensed;font-size:20px;font-family:'Barlow Condensed';-inkscape-font-specification:'Barlow Condensed, Condensed'"
       id="path5251"
       inkscape:connector-curvature="0" />
    <path
       d="m 254.56892,73.238184 q 1.2,0 1.86,0.88 0.66,0.88 0.66,2.44 v 6.74 q 0,0.2 -0.2,0.2 h -1 q -0.2,0 -0.2,-0.2 v -6.62 q 0,-1.02 -0.44,-1.6 -0.42,-0.6 -1.12,-0.6 -0.76,0 -1.2,0.58 -0.44,0.58 -0.44,1.58 v 6.66 q 0,0.2 -0.2,0.2 h -1.02 q -0.2,0 -0.2,-0.2 v -6.62 q 0,-1.02 -0.44,-1.6 -0.42,-0.6 -1.1,-0.6 -0.76,0 -1.22,0.58 -0.44,0.58 -0.44,1.58 v 6.66 q 0,0.2 -0.2,0.2 h -1 q -0.2,0 -0.2,-0.2 v -9.72 q 0,-0.2 0.2,-0.2 h 1 q 0.2,0 0.2,0.2 v 0.62 q 0,0.04 0.02,0.06 0.04,0 0.08,-0.04 0.38,-0.5 0.9,-0.74 0.52,-0.24 1.1,-0.24 0.76,0 1.32,0.38 0.56,0.36 0.86,1.04 0.02,0.04 0.06,0.04 0.04,0 0.06,-0.06 0.36,-0.72 0.98,-1.06 0.62,-0.34 1.32,-0.34 z"
       style="font-style:normal;font-variant:normal;font-weight:normal;font-stretch:condensed;font-size:20px;font-family:'Barlow Condensed';-inkscape-font-specification:'Barlow Condensed, Condensed'"
       id="path5253"
       inkscape:connector-curvature="0" />
    <path
       d="m 263.74861,83.658184 q -1.44,0 -2.3,-0.84 -0.84,-0.84 -0.84,-2.22 v -4.32 q 0,-1.36 0.86,-2.2 0.86,-0.86 2.28,-0.86 1.42,0 2.28,0.86 0.88,0.84 0.88,2.2 v 4.32 q 0,1.38 -0.86,2.22 -0.86,0.84 -2.3,0.84 z m 0,-1.24 q 0.76,0 1.24,-0.52 0.5,-0.54 0.5,-1.38 v -4.14 q 0,-0.86 -0.5,-1.38 -0.48,-0.54 -1.24,-0.54 -0.76,0 -1.24,0.54 -0.48,0.52 -0.48,1.38 v 4.14 q 0,0.84 0.48,1.38 0.48,0.52 1.24,0.52 z"
       style="font-style:normal;font-variant:normal;font-weight:normal;font-stretch:condensed;font-size:20px;font-family:'Barlow Condensed';-inkscape-font-specification:'Barlow Condensed, Condensed'"
       id="path5255"
       inkscape:connector-curvature="0" />
    <path
       d="m 279.42048,69.498184 q 0.2,0 0.2,0.2 v 0.84 q 0,0.2 -0.2,0.2 h -2.64 q -0.08,0 -0.08,0.08 v 12.48 q 0,0.2 -0.2,0.2 h -1.02 q -0.2,0 -0.2,-0.2 v -12.48 q 0,-0.08 -0.08,-0.08 h -2.48 q -0.2,0 -0.2,-0.2 v -0.84 q 0,-0.2 0.2,-0.2 z"
       style="font-style:normal;font-variant:normal;font-weight:normal;font-stretch:condensed;font-size:20px;font-family:'Barlow Condensed';-inkscape-font-specification:'Barlow Condensed, Condensed'"
       id="path5281"
       inkscape:connector-curvature="0" />
    <path
       d="m 285.91829,73.278184 q 0.5,0 0.86,0.22 0.14,0.08 0.1,0.26 l -0.22,1.02 q -0.02,0.18 -0.26,0.12 -0.24,-0.1 -0.54,-0.1 -0.2,0 -0.3,0.02 -0.72,0.04 -1.18,0.76 -0.46,0.7 -0.46,1.72 v 6 q 0,0.2 -0.2,0.2 h -1.02 q -0.2,0 -0.2,-0.2 v -9.72 q 0,-0.2 0.2,-0.2 h 1.02 q 0.2,0 0.2,0.2 v 1.2 q 0,0.06 0.02,0.06 0.04,0 0.08,-0.04 0.58,-1.52 1.9,-1.52 z"
       style="font-style:normal;font-variant:normal;font-weight:normal;font-stretch:condensed;font-size:20px;font-family:'Barlow Condensed';-inkscape-font-specification:'Barlow Condensed, Condensed'"
       id="path5283"
       inkscape:connector-curvature="0" />
    <path
       d="m 292.68859,73.218184 q 1.4,0 2.22,0.92 0.84,0.9 0.84,2.42 v 6.74 q 0,0.2 -0.2,0.2 h -1.02 q -0.2,0 -0.2,-0.2 v -0.58 q 0,-0.04 -0.04,-0.04 -0.02,-0.02 -0.06,0.02 -0.74,0.96 -2.2,0.96 -1.1,0 -1.92,-0.62 -0.8,-0.64 -0.8,-2.24 0,-1.7 0.98,-2.48 0.98,-0.8 2.58,-0.8 h 1.38 q 0.08,0 0.08,-0.08 v -0.78 q 0,-1 -0.46,-1.6 -0.44,-0.6 -1.22,-0.6 -0.6,0 -1.04,0.4 -0.44,0.4 -0.5,1.02 -0.02,0.2 -0.22,0.2 l -1.1,-0.02 q -0.1,0 -0.16,-0.06 -0.04,-0.06 -0.02,-0.14 0.1,-1.18 0.96,-1.9 0.86,-0.74 2.12,-0.74 z m -0.36,9.2 q 0.82,0 1.4,-0.52 0.6,-0.54 0.6,-1.48 v -1.68 q 0,-0.08 -0.08,-0.08 h -1.4 q -0.96,0 -1.52,0.52 -0.56,0.5 -0.56,1.5 0,0.88 0.42,1.32 0.44,0.42 1.14,0.42 z"
       style="font-style:normal;font-variant:normal;font-weight:normal;font-stretch:condensed;font-size:20px;font-family:'Barlow Condensed';-inkscape-font-specification:'Barlow Condensed, Condensed'"
       id="path5285"
       inkscape:connector-curvature="0" />
    <path
       d="m 302.28174,83.658184 q -1.42,0 -2.28,-0.84 -0.84,-0.84 -0.84,-2.22 v -4.32 q 0,-1.36 0.86,-2.2 0.86,-0.86 2.26,-0.86 0.94,0 1.66,0.38 0.72,0.38 1.1,1.02 0.4,0.62 0.4,1.38 v 0.2 q 0,0.2 -0.2,0.2 l -1.02,0.04 q -0.08,0 -0.14,-0.04 -0.06,-0.06 -0.06,-0.14 v -0.16 q 0,-0.66 -0.5,-1.14 -0.48,-0.5 -1.24,-0.5 -0.76,0 -1.24,0.54 -0.46,0.52 -0.46,1.38 v 4.12 q 0,0.86 0.46,1.4 0.48,0.52 1.24,0.52 0.76,0 1.24,-0.48 0.5,-0.5 0.5,-1.16 v -0.14 q 0,-0.2 0.2,-0.2 l 1.02,0.02 q 0.2,0 0.2,0.2 v 0.22 q 0,1.2 -0.88,2 -0.86,0.78 -2.28,0.78 z"
       style="font-style:normal;font-variant:normal;font-weight:normal;font-stretch:condensed;font-size:20px;font-family:'Barlow Condensed';-inkscape-font-specification:'Barlow Condensed, Condensed'"
       id="path5287"
       inkscape:connector-curvature="0" />
    <path
       d="m 309.05861,83.498184 q -0.2,0 -0.2,-0.2 v -13.6 q 0,-0.2 0.2,-0.2 h 1.02 q 0.2,0 0.2,0.2 v 8.04 q 0,0.04 0.04,0.06 0.04,0.02 0.06,-0.02 l 3,-4.28 q 0.08,-0.12 0.24,-0.12 h 1.04 q 0.12,0 0.16,0.08 0.04,0.06 -0.04,0.16 l -1.98,2.84 q -0.06,0.06 -0.02,0.12 l 2.36,6.7 0.02,0.08 q 0,0.14 -0.18,0.14 h -1.06 q -0.18,0 -0.24,-0.16 l -1.78,-5.56 q -0.02,-0.12 -0.12,-0.02 l -1.46,2.08 q -0.04,0.04 -0.04,0.1 v 3.36 q 0,0.2 -0.2,0.2 z"
       style="font-style:normal;font-variant:normal;font-weight:normal;font-stretch:condensed;font-size:20px;font-family:'Barlow Condensed';-inkscape-font-specification:'Barlow Condensed, Condensed'"
       id="path5289"
       inkscape:connector-curvature="0" />
    <path
       d="m 319.19454,71.578184 q -0.44,0 -0.72,-0.3 -0.28,-0.3 -0.28,-0.76 0,-0.44 0.28,-0.72 0.28,-0.3 0.72,-0.3 0.42,0 0.68,0.3 0.28,0.28 0.28,0.72 0,0.46 -0.28,0.76 -0.26,0.3 -0.68,0.3 z m -0.52,11.92 q -0.2,0 -0.2,-0.2 v -9.72 q 0,-0.2 0.2,-0.2 h 1.02 q 0.2,0 0.2,0.2 v 9.72 q 0,0.2 -0.2,0.2 z"
       style="font-style:normal;font-variant:normal;font-weight:normal;font-stretch:condensed;font-size:20px;font-family:'Barlow Condensed';-inkscape-font-specification:'Barlow Condensed, Condensed'"
       id="path5291"
       inkscape:connector-curvature="0" />
    <path
       d="m 327.42797,73.238184 q 1.22,0 1.88,0.84 0.68,0.84 0.68,2.34 v 6.88 q 0,0.2 -0.2,0.2 h -1.02 q -0.2,0 -0.2,-0.2 v -6.76 q 0,-0.98 -0.42,-1.52 -0.42,-0.54 -1.18,-0.54 -0.8,0 -1.26,0.58 -0.46,0.58 -0.46,1.58 v 6.66 q 0,0.2 -0.2,0.2 h -1.02 q -0.2,0 -0.2,-0.2 v -9.72 q 0,-0.2 0.2,-0.2 h 1.02 q 0.2,0 0.2,0.2 v 0.66 q 0,0.04 0.04,0.06 0.04,0 0.06,-0.04 0.74,-1.02 2.08,-1.02 z"
       style="font-style:normal;font-variant:normal;font-weight:normal;font-stretch:condensed;font-size:20px;font-family:'Barlow Condensed';-inkscape-font-specification:'Barlow Condensed, Condensed'"
       id="path5293"
       inkscape:connector-curvature="0" />
    <path
       d="m 338.33456,73.578184 q 0,-0.2 0.2,-0.2 h 1.02 q 0.2,0 0.2,0.2 v 9.72 q 0,2.14 -1,3.24 -0.98,1.12 -3.3,1.02 -0.2,-0.02 -0.2,-0.22 v -0.86 q 0,-0.2 0.2,-0.2 1.6,0.04 2.24,-0.74 0.64,-0.76 0.64,-2.36 v -0.6 q 0,-0.04 -0.04,-0.06 -0.02,-0.02 -0.06,0.02 -0.34,0.5 -0.88,0.76 -0.52,0.26 -1.12,0.26 -1.26,0 -2,-0.84 -0.72,-0.84 -0.72,-2.22 v -4.22 q 0,-1.4 0.72,-2.22 0.74,-0.84 2,-0.84 0.6,0 1.12,0.26 0.54,0.24 0.88,0.74 0.04,0.06 0.06,0.06 0.04,-0.02 0.04,-0.08 z m -1.68,8.74 q 0.74,0 1.2,-0.52 0.48,-0.54 0.48,-1.38 v -4.04 q 0,-0.86 -0.48,-1.38 -0.46,-0.54 -1.2,-0.54 -0.76,0 -1.24,0.54 -0.48,0.52 -0.48,1.38 v 4.04 q 0,0.84 0.48,1.38 0.48,0.52 1.24,0.52 z"
       style="font-style:normal;font-variant:normal;font-weight:normal;font-stretch:condensed;font-size:20px;font-family:'Barlow Condensed';-inkscape-font-specification:'Barlow Condensed, Condensed'"
       id="path5295"
       inkscape:connector-curvature="0" />
    <path
       d="m 354.7811,83.498184 q -0.18,0 -0.22,-0.18 l -0.5,-2.48 q 0,-0.04 -0.04,-0.06 -0.02,-0.02 -0.06,-0.02 h -3.62 q -0.04,0 -0.08,0.02 -0.02,0.02 -0.02,0.06 l -0.52,2.48 q -0.02,0.18 -0.22,0.18 h -1.02 q -0.1,0 -0.16,-0.06 -0.04,-0.06 -0.02,-0.16 l 3.02,-13.6 q 0.04,-0.18 0.22,-0.18 h 1.2 q 0.2,0 0.22,0.18 l 3.04,13.6 v 0.04 q 0,0.18 -0.18,0.18 z m -4.26,-3.98 q 0,0.08 0.06,0.08 h 3.14 q 0.06,0 0.06,-0.08 l -1.58,-7.7 q -0.02,-0.06 -0.04,-0.06 -0.02,0 -0.04,0.06 z"
       style="font-style:normal;font-variant:normal;font-weight:normal;font-stretch:condensed;font-size:20px;font-family:'Barlow Condensed';-inkscape-font-specification:'Barlow Condensed, Condensed'"
       id="path5297"
       inkscape:connector-curvature="0" />
    <path
       d="m 365.67266,76.278184 q 0.02,0.74 0.02,2.22 0,1.42 -0.02,2.16 -0.04,1.34 -0.78,2.18 -0.72,0.82 -1.92,0.82 -1.28,0 -1.98,-0.96 -0.04,-0.04 -0.08,-0.02 -0.02,0.02 -0.02,0.06 v 4.44 q 0,0.2 -0.2,0.2 h -1.02 q -0.2,0 -0.2,-0.2 v -13.6 q 0,-0.2 0.2,-0.2 h 1.02 q 0.2,0 0.2,0.2 v 0.58 q 0,0.04 0.02,0.06 0.04,0.02 0.08,-0.02 0.34,-0.48 0.84,-0.72 0.52,-0.26 1.14,-0.26 1.18,0 1.9,0.86 0.74,0.84 0.8,2.2 z m -3.12,6.14 q 0.78,0 1.26,-0.54 0.48,-0.56 0.46,-1.46 v -0.7 -1.28 -1.98 q 0.02,-0.88 -0.46,-1.44 -0.48,-0.56 -1.26,-0.56 -0.72,0 -1.2,0.56 -0.46,0.54 -0.46,1.44 v 3.96 q 0,0.9 0.46,1.46 0.48,0.54 1.2,0.54 z"
       style="font-style:normal;font-variant:normal;font-weight:normal;font-stretch:condensed;font-size:20px;font-family:'Barlow Condensed';-inkscape-font-specification:'Barlow Condensed, Condensed'"
       id="path5299"
       inkscape:connector-curvature="0" />
    <path
       d="m 375.65734,76.278184 q 0.02,0.74 0.02,2.22 0,1.42 -0.02,2.16 -0.04,1.34 -0.78,2.18 -0.72,0.82 -1.92,0.82 -1.28,0 -1.98,-0.96 -0.04,-0.04 -0.08,-0.02 -0.02,0.02 -0.02,0.06 v 4.44 q 0,0.2 -0.2,0.2 h -1.02 q -0.2,0 -0.2,-0.2 v -13.6 q 0,-0.2 0.2,-0.2 h 1.02 q 0.2,0 0.2,0.2 v 0.58 q 0,0.04 0.02,0.06 0.04,0.02 0.08,-0.02 0.34,-0.48 0.84,-0.72 0.52,-0.26 1.14,-0.26 1.18,0 1.9,0.86 0.74,0.84 0.8,2.2 z m -3.12,6.14 q 0.78,0 1.26,-0.54 0.48,-0.56 0.46,-1.46 v -0.7 -1.28 -1.98 q 0.02,-0.88 -0.46,-1.44 -0.48,-0.56 -1.26,-0.56 -0.72,0 -1.2,0.56 -0.46,0.54 -0.46,1.44 v 3.96 q 0,0.9 0.46,1.46 0.48,0.54 1.2,0.54 z"
       style="font-style:normal;font-variant:normal;font-weight:normal;font-stretch:condensed;font-size:20px;font-family:'Barlow Condensed';-inkscape-font-specification:'Barlow Condensed, Condensed'"
       id="path5301"
       inkscape:connector-curvature="0" />
    <path
       d="m 379.40205,83.498184 q -0.2,0 -0.2,-0.2 v -13.6 q 0,-0.2 0.2,-0.2 h 1.02 q 0.2,0 0.2,0.2 v 13.6 q 0,0.2 -0.2,0.2 z"
       style="font-style:normal;font-variant:normal;font-weight:normal;font-stretch:condensed;font-size:20px;font-family:'Barlow Condensed';-inkscape-font-specification:'Barlow Condensed, Condensed'"
       id="path5303"
       inkscape:connector-curvature="0" />
    <path
       d="m 385.20486,71.578184 q -0.44,0 -0.72,-0.3 -0.28,-0.3 -0.28,-0.76 0,-0.44 0.28,-0.72 0.28,-0.3 0.72,-0.3 0.42,0 0.68,0.3 0.28,0.28 0.28,0.72 0,0.46 -0.28,0.76 -0.26,0.3 -0.68,0.3 z m -0.52,11.92 q -0.2,0 -0.2,-0.2 v -9.72 q 0,-0.2 0.2,-0.2 h 1.02 q 0.2,0 0.2,0.2 v 9.72 q 0,0.2 -0.2,0.2 z"
       style="font-style:normal;font-variant:normal;font-weight:normal;font-stretch:condensed;font-size:20px;font-family:'Barlow Condensed';-inkscape-font-specification:'Barlow Condensed, Condensed'"
       id="path5305"
       inkscape:connector-curvature="0" />
    <path
       d="m 392.73829,83.658184 q -1.42,0 -2.28,-0.84 -0.84,-0.84 -0.84,-2.22 v -4.32 q 0,-1.36 0.86,-2.2 0.86,-0.86 2.26,-0.86 0.94,0 1.66,0.38 0.72,0.38 1.1,1.02 0.4,0.62 0.4,1.38 v 0.2 q 0,0.2 -0.2,0.2 l -1.02,0.04 q -0.08,0 -0.14,-0.04 -0.06,-0.06 -0.06,-0.14 v -0.16 q 0,-0.66 -0.5,-1.14 -0.48,-0.5 -1.24,-0.5 -0.76,0 -1.24,0.54 -0.46,0.52 -0.46,1.38 v 4.12 q 0,0.86 0.46,1.4 0.48,0.52 1.24,0.52 0.76,0 1.24,-0.48 0.5,-0.5 0.5,-1.16 v -0.14 q 0,-0.2 0.2,-0.2 l 1.02,0.02 q 0.2,0 0.2,0.2 v 0.22 q 0,1.2 -0.88,2 -0.86,0.78 -2.28,0.78 z"
       style="font-style:normal;font-variant:normal;font-weight:normal;font-stretch:condensed;font-size:20px;font-family:'Barlow Condensed';-inkscape-font-specification:'Barlow Condensed, Condensed'"
       id="path5307"
       inkscape:connector-curvature="0" />
    <path
       d="m 402.25515,73.218184 q 1.4,0 2.22,0.92 0.84,0.9 0.84,2.42 v 6.74 q 0,0.2 -0.2,0.2 h -1.02 q -0.2,0 -0.2,-0.2 v -0.58 q 0,-0.04 -0.04,-0.04 -0.02,-0.02 -0.06,0.02 -0.74,0.96 -2.2,0.96 -1.1,0 -1.92,-0.62 -0.8,-0.64 -0.8,-2.24 0,-1.7 0.98,-2.48 0.98,-0.8 2.58,-0.8 h 1.38 q 0.08,0 0.08,-0.08 v -0.78 q 0,-1 -0.46,-1.6 -0.44,-0.6 -1.22,-0.6 -0.6,0 -1.04,0.4 -0.44,0.4 -0.5,1.02 -0.02,0.2 -0.22,0.2 l -1.1,-0.02 q -0.1,0 -0.16,-0.06 -0.04,-0.06 -0.02,-0.14 0.1,-1.18 0.96,-1.9 0.86,-0.74 2.12,-0.74 z m -0.36,9.2 q 0.82,0 1.4,-0.52 0.6,-0.54 0.6,-1.48 v -1.68 q 0,-0.08 -0.08,-0.08 h -1.4 q -0.96,0 -1.52,0.52 -0.56,0.5 -0.56,1.5 0,0.88 0.42,1.32 0.44,0.42 1.14,0.42 z"
       style="font-style:normal;font-variant:normal;font-weight:normal;font-stretch:condensed;font-size:20px;font-family:'Barlow Condensed';-inkscape-font-specification:'Barlow Condensed, Condensed'"
       id="path5309"
       inkscape:connector-curvature="0" />
    <path
       d="m 412.5083,74.238184 q 0,0.2 -0.2,0.2 h -1.52 q -0.08,0 -0.08,0.08 v 6.12 q 0,0.92 0.32,1.28 0.32,0.34 0.98,0.32 h 0.2 q 0.2,0 0.2,0.2 v 0.86 q 0,0.2 -0.2,0.2 h -0.5 q -1.18,0 -1.8,-0.5 -0.6,-0.52 -0.6,-1.94 v -6.54 q 0,-0.08 -0.08,-0.08 h -0.78 q -0.2,0 -0.2,-0.2 v -0.66 q 0,-0.2 0.2,-0.2 h 0.78 q 0.08,0 0.08,-0.08 v -2.24 q 0,-0.2 0.2,-0.2 h 1 q 0.2,0 0.2,0.2 v 2.24 q 0,0.08 0.08,0.08 h 1.52 q 0.2,0 0.2,0.2 z"
       style="font-style:normal;font-variant:normal;font-weight:normal;font-stretch:condensed;font-size:20px;font-family:'Barlow Condensed';-inkscape-font-specification:'Barlow Condensed, Condensed'"
       id="path5311"
       inkscape:connector-curvature="0" />
    <path
       d="m 416.54986,71.578184 q -0.44,0 -0.72,-0.3 -0.28,-0.3 -0.28,-0.76 0,-0.44 0.28,-0.72 0.28,-0.3 0.72,-0.3 0.42,0 0.68,0.3 0.28,0.28 0.28,0.72 0,0.46 -0.28,0.76 -0.26,0.3 -0.68,0.3 z m -0.52,11.92 q -0.2,0 -0.2,-0.2 v -9.72 q 0,-0.2 0.2,-0.2 h 1.02 q 0.2,0 0.2,0.2 v 9.72 q 0,0.2 -0.2,0.2 z"
       style="font-style:normal;font-variant:normal;font-weight:normal;font-stretch:condensed;font-size:20px;font-family:'Barlow Condensed';-inkscape-font-specification:'Barlow Condensed, Condensed'"
       id="path5313"
       inkscape:connector-curvature="0" />
    <path
       d="m 424.10329,83.658184 q -1.44,0 -2.3,-0.84 -0.84,-0.84 -0.84,-2.22 v -4.32 q 0,-1.36 0.86,-2.2 0.86,-0.86 2.28,-0.86 1.42,0 2.28,0.86 0.88,0.84 0.88,2.2 v 4.32 q 0,1.38 -0.86,2.22 -0.86,0.84 -2.3,0.84 z m 0,-1.24 q 0.76,0 1.24,-0.52 0.5,-0.54 0.5,-1.38 v -4.14 q 0,-0.86 -0.5,-1.38 -0.48,-0.54 -1.24,-0.54 -0.76,0 -1.24,0.54 -0.48,0.52 -0.48,1.38 v 4.14 q 0,0.84 0.48,1.38 0.48,0.52 1.24,0.52 z"
       style="font-style:normal;font-variant:normal;font-weight:normal;font-stretch:condensed;font-size:20px;font-family:'Barlow Condensed';-inkscape-font-specification:'Barlow Condensed, Condensed'"
       id="path5315"
       inkscape:connector-curvature="0" />
    <path
       d="m 434.49453,73.238184 q 1.22,0 1.88,0.84 0.68,0.84 0.68,2.34 v 6.88 q 0,0.2 -0.2,0.2 h -1.02 q -0.2,0 -0.2,-0.2 v -6.76 q 0,-0.98 -0.42,-1.52 -0.42,-0.54 -1.18,-0.54 -0.8,0 -1.26,0.58 -0.46,0.58 -0.46,1.58 v 6.66 q 0,0.2 -0.2,0.2 h -1.02 q -0.2,0 -0.2,-0.2 v -9.72 q 0,-0.2 0.2,-0.2 h 1.02 q 0.2,0 0.2,0.2 v 0.66 q 0,0.04 0.04,0.06 0.04,0 0.06,-0.04 0.74,-1.02 2.08,-1.02 z"
       style="font-style:normal;font-variant:normal;font-weight:normal;font-stretch:condensed;font-size:20px;font-family:'Barlow Condensed';-inkscape-font-specification:'Barlow Condensed, Condensed'"
       id="path5317"
       inkscape:connector-curvature="0" />
  </g>
  <ellipse
     transform="matrix(0.83973137,-0.54300205,0.16476115,0.98633349,0,0)"
     ry="28.317312"
     rx="55.810329"
     cy="165.78432"
     cx="128.16168"
     id="ellipse836"
     style="fill:#5f8dd3;fill-opacity:1;stroke-width:0.52208483" />
  <ellipse
     transform="matrix(0.87312511,-0.4874962,0.18994087,0.98179553,0,0)"
     ry="32.568371"
     rx="71.168205"
     cy="132.30545"
     cx="85.330345"
     id="ellipse1568"
     style="fill:#003380;fill-opacity:1;stroke-width:0.63226449" />
  <ellipse
     style="fill:#2c5aa0;fill-opacity:1;stroke-width:0.63226449"
     id="path832"
     cx="79.160828"
     cy="129.24211"
     rx="71.168205"
     ry="32.568371"
     transform="matrix(0.87312511,-0.4874962,0.18994087,0.98179553,0,0)" />
  <path
     style="opacity:1;fill:#ffffff;fill-opacity:1;stroke:none;stroke-width:1.59911168"
     d="M 101.94445,52.378034 C 95.566575,61.166085 91.709556,73.46759 91.852338,84.56553 81.573837,87.87672 72.416019,93.20054 67.530071,98.70523 62.993136,96.89719 57.754237,95.93827 52.364635,95.92951 c -2.857099,0.004 -5.711954,0.27533 -8.477976,0.80534 -0.03253,0.27969 -0.05845,0.5598 -0.07767,0.84011 -0.214872,5.94967 2.597214,11.57685 7.644809,15.29774 2.152278,-3.17817 5.282077,-5.8205 9.044277,-7.63554 0.862086,-0.46381 1.849038,-0.87515 2.936997,-1.2242 0.312367,-0.1101 0.627302,-0.21458 0.944572,-0.31334 0,0 2.365152,-1.10463 7.83047,-1.04552 0.780756,0.006 1.624957,0.0408 2.534336,0.10324 2.366997,0.16276 7.059268,0.64095 10.260399,1.16041 3.629463,0.58895 8.014496,1.26713 15.569251,2.02837 1.28922,0.13006 2.37794,0.21366 3.37563,0.2797 2.0476,0.0832 4.08749,0.0997 5.85181,-0.005 2.08174,-0.1233 3.65595,-0.19848 5.67581,-0.41531 1.3227,-0.14195 3.93954,-0.63836 3.93954,-0.63836 l 7.42315,-2.12124 4.73683,-1.7673 c 0,0 4.60801,-1.83531 6.99844,-2.474 0.84056,-0.2246 1.42392,-0.30262 2.56684,-0.47347 0.18458,-0.0275 0.37274,-0.0198 0.55932,-0.0254 3.11532,0.005 5.99102,0.88929 8.22318,1.95259 1.05547,0.47266 0.9156,0.45588 1.05547,0.47266 0.62622,0.13995 1.28422,0.21217 1.94716,0.21351 3.30838,1.9e-4 5.99065,-1.72515 5.99123,-3.85374 -0.001,-0.49445 -0.14999,-0.98412 -0.43865,-1.44238 0.13283,-0.51824 0.20142,-1.04999 0.20424,-1.58396 -1.3e-4,-3.70734 -3.10112,-6.71275 -6.9265,-6.71296 -1.50723,0.0925 -2.28197,0.45933 -3.01,0.73399 l -3.45128,1.52606 c -1.21917,0.53908 -3.94971,2.19517 -8.15876,2.20285 -1.23914,-0.003 -2.4745,-0.13407 -3.68547,-0.39103 l -5.41102,-1.31477 -2.82791,-0.98985 -4.17054,-1.90883 -2.75713,-1.18827 -3.96629,-1.859 c 2.76899,-4.12611 7.22001,-6.94578 12.01839,-7.61348 -0.71701,-1.64691 -1.32174,-3.43192 -1.80329,-5.32279 -1.30752,-5.21859 -1.63843,-11.064054 -0.94922,-16.768204 l -14.6827,3.662076 c 0,0 -3.05351,-2.517962 -6.95784,-5.742896 z M 64.379555,103.69962 c -0.0038,0.006 -0.0072,0.0179 -0.0088,0.0266 l 0.0088,-0.002 z"
     id="ellipse2092"
     inkscape:connector-curvature="0"
     sodipodi:nodetypes="ccccccccccsccccsscccsscccccccccsccccccccccccccccc" />
  <path
     style="fill:#b04e3e;fill-opacity:1;stroke:none;stroke-width:0.59413171px;stroke-linecap:butt;stroke-linejoin:miter;stroke-opacity:1"
     d="m 158.12671,92.2039 43.21358,4.30464 -43.54789,2.59114 -1.00306,-2.54936 z"
     id="path2028"
     inkscape:connector-curvature="0" />
  <path
     style="fill:#000000;fill-opacity:1;stroke:none;stroke-width:0.59413171px;stroke-linecap:butt;stroke-linejoin:miter;stroke-opacity:1"
     d="m 84.344912,87.5691 9.057192,-3.56465 -0.654738,-5.09242 0.145485,-5.45614 1.018498,-4.58319 1.05485,-3.16454 1.418599,-3.52833 1.454957,-2.618948 2.327965,-3.637402 1.78233,-2.327963 1.38223,-1.564093 -1.63685,-13.567614 -0.21824,-3.455566 0.10911,-5.019653 0.582,-5.383396 0.58199,-3.528311 1.12761,-5.45614 -1.81872,1.309471 -2.109713,1.745969 -1.418609,1.636844 -1.345839,1.527719 -0.909351,1.855088 -0.581986,2.036967 -0.145482,1.745967 0.145482,2.036963 0.363724,2.327953 0.509247,2.327953 1.054852,3.746556 0.982115,3.564677 0.545612,1.964218 1.163988,4.292167 -1.491356,-2.036963 -1.964202,-4.583163 -6.692878,-14.004107 -0.618363,0.363746 -0.691101,0.727479 -0.618375,0.945738 -0.18187,1.127602 -0.181867,1.564097 0.218247,2.146082 0.400117,2.146088 1.527714,4.364911 0.727493,1.964219 0.836617,1.927837 2.036957,4.183044 2.546207,5.201526 -3.81932,-5.783513 -3.128188,-5.056034 -3.710173,-6.183632 -1.345846,-2.03696 -0.763856,1.418602 -0.654748,1.418593 -0.509239,1.309471 -0.254612,1.818723 0.145468,1.709591 0.327385,1.636842 0.763862,1.491351 1.018472,1.709591 1.345848,1.63684 7.529475,8.511581 -13.967723,-11.494273 -0.400114,1.09123 -0.218244,1.345852 -0.181861,1.527718 0.21824,1.636844 0.436497,1.091228 1.018469,1.491349 1.309477,1.236728 1.527718,1.163975 2.109711,1.273093 1.636843,0.763874 2.728084,1.454965 -12.258141,-2.291586 v 1.12761 l 0.290975,1.236725 0.509251,1.054847 0.800244,1.054883 1.127597,0.90935 1.018486,0.54561 1.200349,0.36374 1.345838,0.36374 1.091235,0.18183 1.636842,0.0364 -9.093572,1.92784 0.254624,0.98208 0.400114,1.01849 0.654746,0.76387 0.982098,0.87297 1.309465,0.21826 1.454985,0.10898 1.273093,-0.18184 1.236739,-0.36373 -5.419788,4.94689 0.327376,0.94572 0.691101,1.23674 0.945744,1.1276 0.8366,0.36373 1.200365,0.10898 1.054843,-0.29096 1.018486,-0.54562 0.436496,-0.25461 -0.654737,1.12758 -0.509249,0.90938 -0.327359,1.30945 -0.18188,1.63684 v 1.63684 l 0.145501,1.78237 z"
     id="path2040"
     inkscape:connector-curvature="0" />
  <path
     style="fill:#666666;fill-opacity:1;stroke:none;stroke-width:0.59413171px;stroke-linecap:butt;stroke-linejoin:miter;stroke-opacity:1"
     d="m 93.144664,93.59116 h 8.798386 l -0.4431,-6.01327 0.94944,-7.15268 1.89895,-6.20314 3.03829,-5.88672 3.48137,-4.30419 3.73455,-3.354778 3.48139,-2.975004 2.97499,-1.772327 2.5319,-1.392563 0.37979,-4.620724 0.94946,-5.380302 1.13936,-4.114352 1.20265,-3.607963 1.32925,-3.481375 1.83564,-3.418074 1.58243,-3.16488 1.45586,-2.342013 2.15213,-3.291478 -1.77234,0.569678 -2.65852,0.696274 -1.83562,1.07606 -2.15212,1.202654 -1.64574,1.772335 -1.58244,2.342016 -1.07607,2.911689 -0.50638,3.418075 -0.31648,2.848395 -0.2532,3.354773 -0.37978,4.494138 -0.37978,3.671264 -0.1899,1.835634 -2.15213,-24.053116 -1.51914,0.443087 -1.26596,1.076061 -0.94946,1.772329 -0.69628,2.468612 -0.25319,3.354774 -0.0633,3.481374 0.18988,3.671265 0.2532,3.671264 0.56967,6.393062 -4.62073,-21.204717 -1.70904,1.519145 -1.51914,2.08882 -0.69628,1.076066 -0.63299,1.455846 -0.18987,2.088823 0.18987,1.645737 0.5697,1.962228 4.43083,11.899968 -8.73507,-14.938253 -1.07606,1.202651 -0.94947,1.645737 -0.379788,1.772339 -0.06329,2.152124 0.632988,2.152114 1.51915,2.278723 4.74733,5.317003 -10.380833,-6.203173 -0.696278,1.392546 -0.1266,1.519144 0.443088,1.582451 1.329256,2.025513 0.822869,0.569662 1.70903,1.265985 2.531908,1.076049 -9.241452,-1.076049 -0.189924,1.645719 0.822895,1.709065 1.455832,1.32923 1.455847,0.63296 1.329259,0.25321 1.645728,0.12665 -7.342515,2.53188 -0.06329,1.83563 0.632986,1.83561 1.076062,1.13939 1.582425,0.31646 1.582442,-0.12673 -1.202651,1.20266 -1.202649,1.51913 -0.759567,1.89893 -0.632975,2.08882 -0.379811,2.15214 -0.189867,1.70901 -0.189924,2.9117 0.316515,3.73458 z"
     id="path2034"
     inkscape:connector-curvature="0" />
  <path
     style="fill:#9d4035;fill-opacity:1;stroke:none;stroke-width:0.59413171px;stroke-linecap:butt;stroke-linejoin:miter;stroke-opacity:1"
     d="m 157.7924,99.09968 -1.00306,-2.54936 44.55095,-0.0418 z"
     id="path2030"
     inkscape:connector-curvature="0" />
  <ellipse
     style="fill:#000000;fill-opacity:1;stroke:none;stroke-width:0.64224106"
     id="path2032"
     cx="151.7951"
     cy="91.911346"
     rx="1.5254303"
     ry="1.5463272" />
  <path
     inkscape:connector-curvature="0"
     style="opacity:0.56400003;fill:#3358e8;fill-opacity:1;stroke:none;stroke-width:0.95744503"
     d="m 114.34347,84.12116 a 14.251217,15.969301 49.888175 0 0 -1.46676,2.63989 14.251217,15.969301 49.888175 0 0 -1.32868,5.40755 8.206087,10.103451 16.225488 0 1 6.73736,-6.1467 21.492145,8.4376307 15.563318 0 0 -3.94192,-1.90074 z"
     id="ellipse2079" />
  <rect
     style="opacity:0.56400003;fill:#d8dbe8;fill-opacity:1;stroke:none;stroke-width:0.59413171"
     id="rect2139"
     width="0.31838718"
     height="0.079596795"
     x="61.385048"
     y="70.109917" />
  <path
     style="fill:#b9473c;fill-opacity:1;stroke:none;stroke-width:0.59413171px;stroke-linecap:butt;stroke-linejoin:miter;stroke-opacity:1"
     d="m 21.203969,100.44279 42.114117,-1.13825 c 0,0 0.601459,0.072 1.081305,0.34148 0.420649,0.23635 0.398387,0.626 0.398387,0.626 0,0 0.193225,0.82034 0.05692,1.19512 -0.114732,0.31543 -0.409719,0.7232 -0.664591,0.94154 -0.278706,0.23876 -0.567573,0.37185 -0.932327,0.41202 -1.018428,0.11226 -2.5538,-0.0472 -2.5538,-0.0472 l -5.410335,-0.22501 -34.772593,-0.85368 -1.365862,0.68289 -1.365874,0.39838 -3.300826,-0.17064 1.138217,-0.4553 1.764249,-0.85362 -0.05691,-0.51224 -1.308953,0.39839 -1.138214,-0.39838 -1.252055,-0.91056 1.252055,0.22763 1.650412,0.17065 0.56911,-0.28454 -1.593511,-0.51219 -0.739848,-0.51216 -0.910584,-0.9675 z"
     id="path2194"
     inkscape:connector-curvature="0"
     sodipodi:nodetypes="ccscsssccccccccccccccccccc" />
  <path
     style="opacity:0.41700003;fill:#7280bb;fill-opacity:0.91764706;stroke-width:0.64751583"
     d="m 59.74718,101.9834 c -4.420634,-2.8e-4 -8.004397,4.64908 -8.004533,10.38453 0.0032,0.0983 0.006,0.19656 0.0088,0.29477 0.632491,-1.59982 2.761552,-4.19155 5.412998,-6.00233 2.206215,-1.50675 2.635399,-1.46034 6.702874,-3.18236 -1.243231,-0.97385 -2.667226,-1.4905 -4.119457,-1.49461 z"
     id="path833"
     inkscape:connector-curvature="0"
     sodipodi:nodetypes="cccscc" />
  <path
     style="fill:#666666;fill-opacity:1;stroke:none;stroke-width:0.59413171px;stroke-linecap:butt;stroke-linejoin:miter;stroke-opacity:1"
     d="m 73.187327,102.28287 12.334313,-1.01224 7.310573,-0.15003 5.361125,0.11249 7.610532,0.59985 5.81099,0.0374 2.84927,0.075 4.46135,-0.29992 4.23641,-0.71229 3.26166,-0.89977 3.63656,-1.1622 3.33663,-0.97477 2.73679,-0.44985 2.62432,-0.0374 1.76205,0.22497 1.01224,0.18748 -3.33665,0.74981 -6.18589,2.06198 -6.59829,2.58683 -4.53633,1.38712 -3.97398,0.78732 -5.36111,0.41238 h -5.09868 l -6.860726,-0.41238 -7.573047,-0.89979 -5.736008,-0.67479 -6.035949,-0.74984 z"
     id="path840"
     inkscape:connector-curvature="0" />
</svg>
