<?xml version="1.0" encoding="UTF-8" standalone="no"?>
<svg
   enable-background="new 0 0 24 24"
   height="160"
   viewBox="0 0 640 160"
   width="640"
   version="1.1"
   id="svg6"
   sodipodi:docname="yonetici_brand_logo.svg"
   style="fill:#000000"
   inkscape:version="1.1.1 (3bf5ae0d25, 2021-09-20)"
   inkscape:export-filename="/var/www/html/BesteApt/css/beste.png"
   inkscape:export-xdpi="18"
   inkscape:export-ydpi="18"
   xmlns:inkscape="http://www.inkscape.org/namespaces/inkscape"
   xmlns:sodipodi="http://sodipodi.sourceforge.net/DTD/sodipodi-0.dtd"
   xmlns="http://www.w3.org/2000/svg"
   xmlns:svg="http://www.w3.org/2000/svg"
   xmlns:rdf="http://www.w3.org/1999/02/22-rdf-syntax-ns#"
   xmlns:cc="http://creativecommons.org/ns#"
   xmlns:dc="http://purl.org/dc/elements/1.1/">
  <metadata
     id="metadata12">
    <rdf:RDF>
      <cc:Work
         rdf:about="">
        <dc:format>image/svg+xml</dc:format>
        <dc:type
           rdf:resource="http://purl.org/dc/dcmitype/StillImage" />
      </cc:Work>
    </rdf:RDF>
  </metadata>
  <defs
     id="defs10" />
  <sodipodi:namedview
     pagecolor="#ffffff"
     bordercolor="#666666"
     borderopacity="1"
     objecttolerance="10"
     gridtolerance="10"
     guidetolerance="10"
     inkscape:pageopacity="0"
     inkscape:pageshadow="2"
     inkscape:window-width="1920"
     inkscape:window-height="966"
     id="namedview8"
     showgrid="false"
     inkscape:zoom="1.8296875"
     inkscape:cx="320"
     inkscape:cy="80.068318"
     inkscape:window-x="0"
     inkscape:window-y="0"
     inkscape:window-maximized="1"
     inkscape:current-layer="text824"
     inkscape:pagecheckerboard="0" />
  <rect
     height="107.59008"
     width="107.59008"
     id="rect2"
     x="-5.9231124"
     y="9.5215883"
     style="fill:none;stroke-width:4.4829" />
  <path
     d="m 83.03999,26.958861 -39.21458,29.9338 V 46.566152 H 30.75385 V 66.89238 L 11.14658,81.85929 19.05484,92.251149 30.75385,83.297148 V 144.60261 H 135.32612 V 83.297148 l 11.69901,8.888643 7.90827,-10.326501 z M 122.25456,131.53112 H 89.57575 V 105.38805 H 76.50421 v 26.14307 H 43.82541 V 73.362791 L 83.03999,43.428988 122.25456,73.362791 Z M 69.96846,13.887328 c 0,10.849373 -8.75794,19.607293 -19.6073,19.607293 -3.59466,0 -6.53575,2.941098 -6.53575,6.535771 H 30.75385 c 0,-10.849371 8.75795,-19.607297 19.60731,-19.607297 3.59467,0 6.53577,-2.941093 6.53577,-6.535767 z"
     id="path4"
     inkscape:connector-curvature="0"
     style="fill:#00aad4;stroke-width:6.53574" />
  <g
     aria-label="Beste"
     style="font-style:normal;font-weight:normal;font-size:40px;line-height:1.25;font-family:sans-serif;letter-spacing:0px;word-spacing:0px;fill:#214478;fill-opacity:1;stroke:none"
     id="text824"
     transform="translate(16.942784)">
    <g
       id="g61939"
       transform="translate(0,-1.3209834)">
      <g
         aria-label="eYönetici"
         id="text1511"
         style="font-size:96px;stroke-width:4.4829">
        <path
           d="m 252.42419,80.893059 v 2.953125 q 0,7.734375 -5.8125,13.453125 -5.4375,5.296871 -13.64062,5.296871 -8.10938,0 -13.64063,-5.296871 -5.8125,-5.625 -5.8125,-13.453125 v -15.9375 q 0,-7.734375 5.8125,-13.453125 5.4375,-5.296875 13.64063,-5.296875 7.96875,0 13.64062,5.296875 5.8125,5.4375 5.8125,12.09375 v 0.09375 l -28.59375,22.40625 q 0.70313,1.59375 1.96875,2.671875 2.95313,2.53125 7.17188,2.53125 4.21875,0 7.125,-2.53125 2.95312,-2.53125 2.95312,-6.609375 l 8.90625,-4.21875 z m -29.53125,-1.3125 19.59375,-15.890625 q -0.75,-2.296875 -2.34375,-3.65625 -2.95312,-2.53125 -7.17187,-2.53125 -4.21875,0 -7.17188,2.53125 -2.90625,2.484375 -2.90625,7.875 z"
           style="font-family:'Nova Round';-inkscape-font-specification:'Nova Round'"
           id="path57614" />
        <path
           d="M 281.72107,103.53368 V 78.971184 q -7.35938,-1.21875 -12.65625,-6.421875 -6.32813,-6.234375 -6.32813,-16.640625 v -22.6875 l 8.90625,-4.21875 h 0.46875 v 26.90625 q 0,6.28125 3.375,10.171875 4.17188,4.828125 10.92188,4.828125 7.125,0 10.92187,-4.828125 3.375,-4.3125 3.375,-10.171875 v -22.6875 l 8.90625,-4.21875 h 0.46875 v 26.90625 q 0,10.125 -6.32812,16.640625 -5.10938,5.25 -12.65625,6.421875 v 20.34375 l -8.90625,4.218746 z"
           style="font-family:'Nova Round';-inkscape-font-specification:'Nova Round'"
           id="path57616" />
        <path
           d="m 342.98669,39.736809 q -1.64062,-1.6875 -1.64062,-4.03125 0,-2.390625 1.64062,-4.078125 1.64063,-1.6875 3.98438,-1.6875 2.34375,0 3.98437,1.6875 1.64063,1.6875 1.64063,4.078125 0,2.34375 -1.64063,4.03125 -1.64062,1.6875 -3.98437,1.6875 -2.34375,0 -3.98438,-1.6875 z m -14.0625,0 q -1.64062,-1.6875 -1.64062,-4.03125 0,-2.390625 1.64062,-4.078125 1.64063,-1.6875 3.98438,-1.6875 2.34375,0 3.98437,1.6875 1.64063,1.6875 1.64063,4.078125 0,2.34375 -1.64063,4.03125 -1.64062,1.6875 -3.98437,1.6875 -2.34375,0 -3.98438,-1.6875 z m -8.53125,44.109375 v -15.9375 q 0,-7.734375 5.8125,-13.453125 5.4375,-5.296875 13.64063,-5.296875 8.10937,0 13.64062,5.296875 5.8125,5.625 5.8125,13.453125 v 15.9375 q 0,7.734375 -5.8125,13.453125 -5.4375,5.296871 -13.64062,5.296871 -8.10938,0 -13.64063,-5.296871 -5.8125,-5.625 -5.8125,-13.453125 z m 9.375,0 q 0,5.390625 2.90625,7.921875 2.95313,2.484375 7.17188,2.484375 4.21875,0 7.125,-2.484375 2.95312,-2.53125 2.95312,-7.921875 v -15.9375 q 0,-5.390625 -2.95312,-7.875 -2.90625,-2.53125 -7.125,-2.53125 -4.21875,0 -7.17188,2.53125 -2.90625,2.484375 -2.90625,7.875 z"
           style="font-family:'Nova Round';-inkscape-font-specification:'Nova Round'"
           id="path57618" />
        <path
           d="M 373.36169,103.53368 V 67.908684 q 0,-7.734375 5.8125,-13.453125 5.4375,-5.296875 13.64063,-5.296875 8.10937,0 13.64062,5.296875 5.8125,5.625 5.8125,13.453125 v 31.40625 l -8.90625,4.218746 h -0.46875 V 67.908684 q 0,-5.390625 -2.95312,-7.875 -2.90625,-2.53125 -7.125,-2.53125 -4.21875,0 -7.17188,2.53125 -2.90625,2.484375 -2.90625,7.875 v 31.40625 l -8.90625,4.218746 z"
           style="font-family:'Nova Round';-inkscape-font-specification:'Nova Round'"
           id="path57620" />
        <path
           d="m 465.23669,80.893059 v 2.953125 q 0,7.734375 -5.8125,13.453125 -5.4375,5.296871 -13.64062,5.296871 -8.10938,0 -13.64063,-5.296871 -5.8125,-5.625 -5.8125,-13.453125 v -15.9375 q 0,-7.734375 5.8125,-13.453125 5.4375,-5.296875 13.64063,-5.296875 7.96875,0 13.64062,5.296875 5.8125,5.4375 5.8125,12.09375 v 0.09375 l -28.59375,22.40625 q 0.70313,1.59375 1.96875,2.671875 2.95313,2.53125 7.17188,2.53125 4.21875,0 7.125,-2.53125 2.95312,-2.53125 2.95312,-6.609375 l 8.90625,-4.21875 z m -29.53125,-1.3125 19.59375,-15.890625 q -0.75,-2.296875 -2.34375,-3.65625 -2.95312,-2.53125 -7.17187,-2.53125 -4.21875,0 -7.17188,2.53125 -2.90625,2.484375 -2.90625,7.875 z"
           style="font-family:'Nova Round';-inkscape-font-specification:'Nova Round'"
           id="path57622" />
        <path
           d="M 485.48669,103.53368 V 58.627434 h -12.04687 v -0.46875 l 3.79687,-8.0625 h 8.25 v -16.875 l 8.90625,-4.21875 h 0.46875 v 21.09375 h 12.04688 v 0.46875 l -3.79688,8.0625 h -8.25 v 40.6875 l -8.90625,4.218746 z"
           style="font-family:'Nova Round';-inkscape-font-specification:'Nova Round'"
           id="path57624" />
        <path
           d="m 518.15857,39.736809 q -1.64063,-1.6875 -1.64063,-4.03125 0,-2.390625 1.64063,-4.078125 1.64062,-1.6875 3.98437,-1.6875 2.34375,0 3.98438,1.6875 1.64062,1.6875 1.64062,4.078125 0,2.34375 -1.64062,4.03125 -1.64063,1.6875 -3.98438,1.6875 -2.34375,0 -3.98437,-1.6875 z m -0.70313,63.796871 V 52.439934 l 8.90625,-4.21875 h 0.46875 v 51.09375 l -8.90625,4.218746 z"
           style="font-family:'Nova Round';-inkscape-font-specification:'Nova Round'"
           id="path57626" />
        <path
           d="m 582.14294,80.893059 v 2.953125 q 0,7.734375 -5.8125,13.453125 -5.4375,5.296871 -13.64062,5.296871 -8.10938,0 -13.64063,-5.296871 -5.8125,-5.625 -5.8125,-13.453125 v -15.9375 q 0,-7.78125 5.8125,-13.453125 5.4375,-5.296875 13.64063,-5.296875 8.01562,0 13.64062,5.296875 5.8125,5.484375 5.8125,12.09375 v 0.09375 l -8.90625,4.21875 h -0.46875 v -2.953125 q 0,-5.390625 -2.95312,-7.875 -2.90625,-2.53125 -7.125,-2.53125 -4.21875,0 -7.17188,2.53125 -2.90625,2.484375 -2.90625,7.875 v 15.9375 q 0,5.390625 2.90625,7.921875 2.95313,2.484375 7.17188,2.484375 4.21875,0 7.125,-2.53125 2.95312,-2.53125 2.95312,-6.609375 l 8.90625,-4.21875 z"
           style="font-family:'Nova Round';-inkscape-font-specification:'Nova Round'"
           id="path57628" />
        <path
           d="m 599.25232,39.736809 q -1.64063,-1.6875 -1.64063,-4.03125 0,-2.390625 1.64063,-4.078125 1.64062,-1.6875 3.98437,-1.6875 2.34375,0 3.98438,1.6875 1.64062,1.6875 1.64062,4.078125 0,2.34375 -1.64062,4.03125 -1.64063,1.6875 -3.98438,1.6875 -2.34375,0 -3.98437,-1.6875 z m -0.70313,63.796871 V 52.439934 l 8.90625,-4.21875 h 0.46875 v 51.09375 l -8.90625,4.218746 z"
           style="font-family:'Nova Round';-inkscape-font-specification:'Nova Round'"
           id="path57630" />
      </g>
      <g
         aria-label="Bina Yönetim Sistemi"
         id="text14237"
         style="font-size:32px">
        <path
           d="m 313.84281,109.40824 q 2.688,0 4.192,1.472 1.536,1.44 1.536,4.032 0,1.344 -0.576,2.56 -0.576,1.216 -1.696,1.984 -1.12,0.736 -2.784,0.832 l -0.128,-0.64 q 1.184,0 2.304,0.352 1.152,0.32 2.048,1.056 0.896,0.736 1.44,1.856 0.544,1.088 0.544,2.656 0,1.664 -0.576,2.88 -0.544,1.184 -1.504,1.92 -0.928,0.736 -2.144,1.088 -1.216,0.352 -2.528,0.352 h -8.608 q -0.384,0 -0.672,-0.288 -0.288,-0.288 -0.288,-0.672 v -20.48 q 0,-0.384 0.288,-0.672 0.288,-0.288 0.672,-0.288 z m -0.256,1.888 h -7.52 l 0.384,-0.576 v 9.056 l -0.352,-0.48 h 7.488 q 1.664,-0.032 2.784,-1.088 1.152,-1.056 1.152,-3.136 0,-1.76 -1.024,-2.752 -1.024,-1.024 -2.912,-1.024 z m 0.224,9.92 h -7.52 l 0.16,-0.192 v 9.184 l -0.192,-0.288 h 7.616 q 2.048,0 3.424,-1.024 1.376,-1.056 1.376,-3.328 0,-1.6 -0.672,-2.56 -0.672,-0.96 -1.792,-1.376 -1.12,-0.416 -2.4,-0.416 z"
           style="font-family:Quicksand;-inkscape-font-specification:Quicksand;fill:#6f918a"
           id="path60055" />
        <path
           d="m 326.61078,130.84824 q 0,0.384 -0.288,0.672 -0.288,0.288 -0.672,0.288 -0.416,0 -0.704,-0.288 -0.256,-0.288 -0.256,-0.672 v -14.72 q 0,-0.384 0.256,-0.672 0.288,-0.288 0.704,-0.288 0.416,0 0.672,0.288 0.288,0.288 0.288,0.672 z m -0.96,-17.824 q -0.672,0 -1.024,-0.288 -0.32,-0.32 -0.32,-0.896 v -0.32 q 0,-0.576 0.352,-0.864 0.384,-0.32 1.024,-0.32 0.608,0 0.928,0.32 0.352,0.288 0.352,0.864 v 0.32 q 0,0.576 -0.352,0.896 -0.32,0.288 -0.96,0.288 z"
           style="font-family:Quicksand;-inkscape-font-specification:Quicksand;fill:#6f918a"
           id="path60057" />
        <path
           d="m 339.31474,115.07224 q 2.112,0 3.36,0.864 1.28,0.832 1.824,2.304 0.576,1.44 0.576,3.2 v 9.408 q 0,0.384 -0.288,0.672 -0.288,0.288 -0.672,0.288 -0.448,0 -0.704,-0.288 -0.256,-0.288 -0.256,-0.672 v -9.312 q 0,-1.28 -0.416,-2.336 -0.416,-1.056 -1.376,-1.696 -0.928,-0.64 -2.464,-0.64 -1.376,0 -2.624,0.64 -1.216,0.64 -1.984,1.696 -0.768,1.056 -0.768,2.336 v 9.312 q 0,0.384 -0.288,0.672 -0.288,0.288 -0.672,0.288 -0.448,0 -0.704,-0.288 -0.256,-0.288 -0.256,-0.672 v -14.336 q 0,-0.384 0.256,-0.672 0.288,-0.288 0.704,-0.288 0.416,0 0.672,0.288 0.288,0.288 0.288,0.672 v 2.688 l -0.736,1.152 q 0.064,-1.024 0.64,-1.952 0.608,-0.96 1.536,-1.696 0.928,-0.768 2.048,-1.184 1.152,-0.448 2.304,-0.448 z"
           style="font-family:Quicksand;-inkscape-font-specification:Quicksand;fill:#6f918a"
           id="path60059" />
        <path
           d="m 363.50671,115.45624 q 0.416,0 0.672,0.288 0.288,0.288 0.288,0.704 v 14.4 q 0,0.384 -0.288,0.672 -0.288,0.288 -0.672,0.288 -0.416,0 -0.704,-0.288 -0.256,-0.288 -0.256,-0.672 v -3.808 l 0.544,-0.256 q 0,0.896 -0.512,1.824 -0.48,0.928 -1.344,1.728 -0.864,0.8 -2.048,1.312 -1.152,0.48 -2.496,0.48 -2.176,0 -3.904,-1.12 -1.696,-1.12 -2.688,-3.072 -0.96,-1.952 -0.96,-4.384 0,-2.496 0.992,-4.384 0.992,-1.92 2.688,-3.008 1.696,-1.088 3.84,-1.088 1.376,0 2.56,0.48 1.216,0.48 2.112,1.312 0.896,0.832 1.376,1.92 0.512,1.056 0.512,2.208 l -0.672,-0.48 v -4.064 q 0,-0.416 0.256,-0.704 0.288,-0.288 0.704,-0.288 z m -6.656,14.88 q 1.696,0 3.008,-0.864 1.312,-0.896 2.048,-2.432 0.768,-1.568 0.768,-3.488 0,-1.888 -0.768,-3.392 -0.736,-1.504 -2.048,-2.4 -1.312,-0.896 -3.008,-0.896 -1.664,0 -3.008,0.864 -1.312,0.864 -2.08,2.368 -0.736,1.504 -0.736,3.456 0,1.92 0.736,3.488 0.768,1.536 2.08,2.432 1.312,0.864 3.008,0.864 z"
           style="font-family:Quicksand;-inkscape-font-specification:Quicksand;fill:#6f918a"
           id="path60061" />
        <path
           d="m 392.05064,109.28024 q 0.416,0 0.672,0.32 0.288,0.288 0.288,0.64 0,0.16 -0.064,0.32 -0.032,0.128 -0.128,0.288 l -7.52,10.336 0.384,-1.248 v 10.912 q 0,0.384 -0.288,0.672 -0.288,0.288 -0.704,0.288 -0.416,0 -0.704,-0.288 -0.256,-0.288 -0.256,-0.672 v -10.688 l 0.16,0.768 -7.328,-10.016 q -0.128,-0.16 -0.192,-0.32 -0.064,-0.192 -0.064,-0.352 0,-0.416 0.32,-0.672 0.352,-0.288 0.704,-0.288 0.48,0 0.8,0.448 l 6.88,9.376 -0.48,-0.064 6.688,-9.312 q 0.32,-0.448 0.832,-0.448 z"
           style="font-family:Quicksand;-inkscape-font-specification:Quicksand;fill:#6f918a"
           id="path60063" />
        <path
           d="m 411.34658,123.61624 q 0,2.432 -1.056,4.384 -1.056,1.92 -2.88,3.04 -1.824,1.088 -4.16,1.088 -2.272,0 -4.128,-1.088 -1.824,-1.12 -2.912,-3.04 -1.056,-1.952 -1.056,-4.384 0,-2.464 1.056,-4.384 1.088,-1.92 2.912,-3.04 1.856,-1.12 4.128,-1.12 2.336,0 4.16,1.12 1.824,1.12 2.88,3.04 1.056,1.92 1.056,4.384 z m -1.92,0 q 0,-1.952 -0.8,-3.456 -0.8,-1.536 -2.208,-2.4 -1.376,-0.896 -3.168,-0.896 -1.728,0 -3.136,0.896 -1.408,0.864 -2.24,2.4 -0.8,1.504 -0.8,3.456 0,1.952 0.8,3.456 0.832,1.504 2.24,2.4 1.408,0.864 3.136,0.864 1.792,0 3.168,-0.864 1.408,-0.896 2.208,-2.4 0.8,-1.504 0.8,-3.456 z m -3.392,-11.232 q -0.64,0 -0.992,-0.32 -0.32,-0.352 -0.32,-0.96 v -0.32 q 0,-0.608 0.352,-0.928 0.352,-0.352 0.992,-0.352 0.608,0 0.928,0.352 0.352,0.32 0.352,0.928 v 0.32 q 0,0.64 -0.352,0.96 -0.352,0.32 -0.96,0.32 z m -5.504,0 q -0.64,0 -0.992,-0.32 -0.32,-0.352 -0.32,-0.96 v -0.32 q 0,-0.608 0.352,-0.928 0.352,-0.352 0.96,-0.352 0.64,0 0.96,0.352 0.352,0.32 0.352,0.928 v 0.32 q 0,0.64 -0.352,0.96 -0.352,0.32 -0.96,0.32 z"
           style="font-family:Quicksand;-inkscape-font-specification:Quicksand;fill:#6f918a"
           id="path60065" />
        <path
           d="m 423.15452,115.07224 q 2.112,0 3.36,0.864 1.28,0.832 1.824,2.304 0.576,1.44 0.576,3.2 v 9.408 q 0,0.384 -0.288,0.672 -0.288,0.288 -0.672,0.288 -0.448,0 -0.704,-0.288 -0.256,-0.288 -0.256,-0.672 v -9.312 q 0,-1.28 -0.416,-2.336 -0.416,-1.056 -1.376,-1.696 -0.928,-0.64 -2.464,-0.64 -1.376,0 -2.624,0.64 -1.216,0.64 -1.984,1.696 -0.768,1.056 -0.768,2.336 v 9.312 q 0,0.384 -0.288,0.672 -0.288,0.288 -0.672,0.288 -0.448,0 -0.704,-0.288 -0.256,-0.288 -0.256,-0.672 v -14.336 q 0,-0.384 0.256,-0.672 0.288,-0.288 0.704,-0.288 0.416,0 0.672,0.288 0.288,0.288 0.288,0.672 v 2.688 l -0.736,1.152 q 0.064,-1.024 0.64,-1.952 0.608,-0.96 1.536,-1.696 0.928,-0.768 2.048,-1.184 1.152,-0.448 2.304,-0.448 z"
           style="font-family:Quicksand;-inkscape-font-specification:Quicksand;fill:#6f918a"
           id="path60067" />
        <path
           d="m 441.33049,132.12824 q -2.464,0 -4.352,-1.056 -1.888,-1.056 -2.944,-2.944 -1.056,-1.888 -1.056,-4.416 0,-2.72 1.056,-4.64 1.088,-1.92 2.784,-2.944 1.728,-1.056 3.648,-1.056 1.408,0 2.72,0.512 1.344,0.48 2.368,1.472 1.056,0.96 1.664,2.368 0.64,1.408 0.704,3.264 -0.032,0.384 -0.32,0.672 -0.288,0.256 -0.672,0.256 h -12.832 l -0.384,-1.728 h 12.608 l -0.416,0.384 v -0.64 q -0.128,-1.504 -0.96,-2.56 -0.832,-1.056 -2.016,-1.6 -1.184,-0.544 -2.464,-0.544 -0.96,0 -1.984,0.384 -0.992,0.384 -1.824,1.216 -0.8,0.8 -1.312,2.08 -0.512,1.248 -0.512,2.976 0,1.888 0.768,3.424 0.768,1.536 2.208,2.432 1.472,0.896 3.488,0.896 1.12,0 2.016,-0.32 0.896,-0.32 1.568,-0.832 0.672,-0.544 1.12,-1.12 0.352,-0.288 0.704,-0.288 0.32,0 0.544,0.256 0.256,0.256 0.256,0.576 0,0.384 -0.32,0.672 -0.96,1.152 -2.496,2.016 -1.536,0.832 -3.36,0.832 z"
           style="font-family:Quicksand;-inkscape-font-specification:Quicksand;fill:#6f918a"
           id="path60069" />
        <path
           d="m 450.96245,115.52024 h 7.456 q 0.384,0 0.64,0.288 0.256,0.256 0.256,0.64 0,0.352 -0.256,0.608 -0.256,0.256 -0.64,0.256 h -7.456 q -0.384,0 -0.672,-0.256 -0.256,-0.288 -0.256,-0.64 0,-0.384 0.256,-0.64 0.288,-0.256 0.672,-0.256 z m 3.296,-4.512 q 0.416,0 0.672,0.288 0.288,0.288 0.288,0.672 v 16.064 q 0,0.896 0.224,1.344 0.256,0.448 0.64,0.608 0.384,0.128 0.768,0.128 0.256,0 0.448,-0.064 0.224,-0.096 0.48,-0.096 0.288,0 0.48,0.224 0.224,0.224 0.224,0.576 0,0.448 -0.512,0.768 -0.512,0.288 -1.216,0.288 -0.288,0 -0.864,-0.032 -0.576,-0.064 -1.184,-0.352 -0.608,-0.32 -1.024,-1.088 -0.384,-0.768 -0.384,-2.208 v -16.16 q 0,-0.384 0.256,-0.672 0.288,-0.288 0.704,-0.288 z"
           style="font-family:Quicksand;-inkscape-font-specification:Quicksand;fill:#6f918a"
           id="path60071" />
        <path
           d="m 464.72241,130.84824 q 0,0.384 -0.288,0.672 -0.288,0.288 -0.672,0.288 -0.416,0 -0.704,-0.288 -0.256,-0.288 -0.256,-0.672 v -14.72 q 0,-0.384 0.256,-0.672 0.288,-0.288 0.704,-0.288 0.416,0 0.672,0.288 0.288,0.288 0.288,0.672 z m -0.96,-17.824 q -0.672,0 -1.024,-0.288 -0.32,-0.32 -0.32,-0.896 v -0.32 q 0,-0.576 0.352,-0.864 0.384,-0.32 1.024,-0.32 0.608,0 0.928,0.32 0.352,0.288 0.352,0.864 v 0.32 q 0,0.576 -0.352,0.896 -0.32,0.288 -0.96,0.288 z"
           style="font-family:Quicksand;-inkscape-font-specification:Quicksand;fill:#6f918a"
           id="path60073" />
        <path
           d="m 477.07437,115.32824 q 1.984,0 3.392,1.056 1.408,1.024 1.92,3.072 l -0.448,0.128 0.192,-0.576 q 0.416,-0.96 1.376,-1.792 0.992,-0.864 2.24,-1.376 1.248,-0.512 2.528,-0.512 2.016,0 3.232,0.864 1.248,0.864 1.792,2.336 0.576,1.44 0.576,3.264 v 9.056 q 0,0.384 -0.288,0.672 -0.256,0.288 -0.672,0.288 -0.416,0 -0.704,-0.288 -0.256,-0.288 -0.256,-0.672 v -8.96 q 0,-1.312 -0.416,-2.4 -0.416,-1.088 -1.312,-1.728 -0.896,-0.64 -2.4,-0.64 -1.312,0 -2.528,0.64 -1.184,0.64 -1.952,1.728 -0.736,1.088 -0.736,2.4 v 8.96 q 0,0.384 -0.288,0.672 -0.256,0.288 -0.672,0.288 -0.416,0 -0.704,-0.288 -0.256,-0.288 -0.256,-0.672 v -9.056 q 0,-1.312 -0.384,-2.368 -0.384,-1.056 -1.248,-1.664 -0.864,-0.64 -2.336,-0.64 -1.312,0 -2.496,0.64 -1.152,0.608 -1.888,1.664 -0.704,1.056 -0.704,2.368 v 9.056 q 0,0.384 -0.288,0.672 -0.288,0.288 -0.672,0.288 -0.448,0 -0.704,-0.288 -0.256,-0.288 -0.256,-0.672 v -14.336 q 0,-0.384 0.256,-0.672 0.288,-0.288 0.704,-0.288 0.416,0 0.672,0.288 0.288,0.288 0.288,0.672 v 2.976 l -0.864,1.184 q 0.096,-0.96 0.608,-1.92 0.544,-0.96 1.408,-1.728 0.864,-0.768 1.952,-1.216 1.12,-0.48 2.336,-0.48 z"
           style="font-family:Quicksand;-inkscape-font-specification:Quicksand;fill:#6f918a"
           id="path60075" />
        <path
           d="m 514.29029,132.12824 q -2.432,0.032 -4.224,-0.768 -1.792,-0.8 -3.424,-2.4 -0.16,-0.128 -0.288,-0.32 -0.096,-0.192 -0.096,-0.448 0,-0.384 0.288,-0.704 0.32,-0.32 0.704,-0.32 0.384,0 0.704,0.32 1.248,1.344 2.816,2.048 1.6,0.704 3.424,0.704 1.536,0 2.72,-0.48 1.216,-0.48 1.92,-1.376 0.704,-0.896 0.704,-2.08 0,-1.472 -0.8,-2.368 -0.8,-0.928 -2.112,-1.504 -1.312,-0.608 -2.912,-1.088 -1.312,-0.384 -2.496,-0.864 -1.184,-0.512 -2.112,-1.216 -0.928,-0.736 -1.44,-1.792 -0.512,-1.056 -0.512,-2.56 0,-1.696 0.896,-3.008 0.896,-1.312 2.528,-2.048 1.664,-0.768 3.84,-0.768 1.888,0 3.616,0.64 1.76,0.64 2.784,1.888 0.48,0.512 0.48,0.928 0,0.32 -0.32,0.64 -0.32,0.32 -0.704,0.32 -0.32,0 -0.544,-0.224 -0.544,-0.672 -1.376,-1.184 -0.832,-0.544 -1.856,-0.832 -0.992,-0.288 -2.08,-0.288 -1.504,0 -2.72,0.48 -1.184,0.448 -1.888,1.312 -0.672,0.864 -0.672,2.08 0,1.344 0.768,2.208 0.768,0.864 2.016,1.44 1.248,0.544 2.656,1.024 1.376,0.384 2.624,0.896 1.28,0.48 2.24,1.216 0.992,0.736 1.536,1.856 0.576,1.12 0.576,2.816 0,1.632 -0.928,2.944 -0.928,1.312 -2.56,2.08 -1.6,0.768 -3.776,0.8 z"
           style="font-family:Quicksand;-inkscape-font-specification:Quicksand;fill:#6f918a"
           id="path60077" />
        <path
           d="m 527.47424,130.84824 q 0,0.384 -0.288,0.672 -0.288,0.288 -0.672,0.288 -0.416,0 -0.704,-0.288 -0.256,-0.288 -0.256,-0.672 v -14.72 q 0,-0.384 0.256,-0.672 0.288,-0.288 0.704,-0.288 0.416,0 0.672,0.288 0.288,0.288 0.288,0.672 z m -0.96,-17.824 q -0.672,0 -1.024,-0.288 -0.32,-0.32 -0.32,-0.896 v -0.32 q 0,-0.576 0.352,-0.864 0.384,-0.32 1.024,-0.32 0.608,0 0.928,0.32 0.352,0.288 0.352,0.864 v 0.32 q 0,0.576 -0.352,0.896 -0.32,0.288 -0.96,0.288 z"
           style="font-family:Quicksand;-inkscape-font-specification:Quicksand;fill:#6f918a"
           id="path60079" />
        <path
           d="m 531.5382,129.21624 q -0.256,-0.384 -0.256,-0.736 0.032,-0.384 0.416,-0.608 0.256,-0.224 0.576,-0.192 0.352,0.032 0.64,0.32 0.864,1.12 2.08,1.824 1.248,0.672 2.944,0.672 0.896,0 1.76,-0.288 0.896,-0.32 1.472,-0.928 0.576,-0.64 0.576,-1.6 0,-0.992 -0.576,-1.6 -0.576,-0.608 -1.504,-0.96 -0.896,-0.352 -1.92,-0.608 -1.088,-0.288 -2.112,-0.64 -1.024,-0.384 -1.824,-0.928 -0.768,-0.576 -1.248,-1.376 -0.48,-0.8 -0.48,-1.952 0,-1.344 0.736,-2.368 0.736,-1.024 1.984,-1.6 1.28,-0.576 2.88,-0.576 0.8,0 1.728,0.224 0.928,0.192 1.824,0.672 0.896,0.48 1.6,1.312 0.288,0.288 0.288,0.672 0,0.352 -0.32,0.64 -0.256,0.192 -0.608,0.192 -0.32,0 -0.544,-0.256 -0.768,-0.864 -1.824,-1.312 -1.056,-0.448 -2.272,-0.448 -0.928,0 -1.76,0.32 -0.8,0.288 -1.344,0.896 -0.544,0.608 -0.544,1.6 0.064,0.928 0.64,1.504 0.608,0.576 1.568,0.96 0.992,0.384 2.208,0.704 1.024,0.256 1.952,0.608 0.96,0.352 1.664,0.896 0.736,0.512 1.152,1.312 0.448,0.8 0.448,2.016 0,1.408 -0.8,2.432 -0.768,1.024 -2.08,1.568 -1.312,0.544 -2.912,0.544 -1.728,0 -3.36,-0.672 -1.6,-0.672 -2.848,-2.24 z"
           style="font-family:Quicksand;-inkscape-font-specification:Quicksand;fill:#6f918a"
           id="path60081" />
        <path
           d="m 546.4182,115.52024 h 7.456 q 0.384,0 0.64,0.288 0.256,0.256 0.256,0.64 0,0.352 -0.256,0.608 -0.256,0.256 -0.64,0.256 h -7.456 q -0.384,0 -0.672,-0.256 -0.256,-0.288 -0.256,-0.64 0,-0.384 0.256,-0.64 0.288,-0.256 0.672,-0.256 z m 3.296,-4.512 q 0.416,0 0.672,0.288 0.288,0.288 0.288,0.672 v 16.064 q 0,0.896 0.224,1.344 0.256,0.448 0.64,0.608 0.384,0.128 0.768,0.128 0.256,0 0.448,-0.064 0.224,-0.096 0.48,-0.096 0.288,0 0.48,0.224 0.224,0.224 0.224,0.576 0,0.448 -0.512,0.768 -0.512,0.288 -1.216,0.288 -0.288,0 -0.864,-0.032 -0.576,-0.064 -1.184,-0.352 -0.608,-0.32 -1.024,-1.088 -0.384,-0.768 -0.384,-2.208 v -16.16 q 0,-0.384 0.256,-0.672 0.288,-0.288 0.704,-0.288 z"
           style="font-family:Quicksand;-inkscape-font-specification:Quicksand;fill:#6f918a"
           id="path60083" />
        <path
           d="m 565.55412,132.12824 q -2.464,0 -4.352,-1.056 -1.888,-1.056 -2.944,-2.944 -1.056,-1.888 -1.056,-4.416 0,-2.72 1.056,-4.64 1.088,-1.92 2.784,-2.944 1.728,-1.056 3.648,-1.056 1.408,0 2.72,0.512 1.344,0.48 2.368,1.472 1.056,0.96 1.664,2.368 0.64,1.408 0.704,3.264 -0.032,0.384 -0.32,0.672 -0.288,0.256 -0.672,0.256 h -12.832 l -0.384,-1.728 h 12.608 l -0.416,0.384 v -0.64 q -0.128,-1.504 -0.96,-2.56 -0.832,-1.056 -2.016,-1.6 -1.184,-0.544 -2.464,-0.544 -0.96,0 -1.984,0.384 -0.992,0.384 -1.824,1.216 -0.8,0.8 -1.312,2.08 -0.512,1.248 -0.512,2.976 0,1.888 0.768,3.424 0.768,1.536 2.208,2.432 1.472,0.896 3.488,0.896 1.12,0 2.016,-0.32 0.896,-0.32 1.568,-0.832 0.672,-0.544 1.12,-1.12 0.352,-0.288 0.704,-0.288 0.32,0 0.544,0.256 0.256,0.256 0.256,0.576 0,0.384 -0.32,0.672 -0.96,1.152 -2.496,2.016 -1.536,0.832 -3.36,0.832 z"
           style="font-family:Quicksand;-inkscape-font-specification:Quicksand;fill:#6f918a"
           id="path60085" />
        <path
           d="m 583.60208,115.32824 q 1.984,0 3.392,1.056 1.408,1.024 1.92,3.072 l -0.448,0.128 0.192,-0.576 q 0.416,-0.96 1.376,-1.792 0.992,-0.864 2.24,-1.376 1.248,-0.512 2.528,-0.512 2.016,0 3.232,0.864 1.248,0.864 1.792,2.336 0.576,1.44 0.576,3.264 v 9.056 q 0,0.384 -0.288,0.672 -0.256,0.288 -0.672,0.288 -0.416,0 -0.704,-0.288 -0.256,-0.288 -0.256,-0.672 v -8.96 q 0,-1.312 -0.416,-2.4 -0.416,-1.088 -1.312,-1.728 -0.896,-0.64 -2.4,-0.64 -1.312,0 -2.528,0.64 -1.184,0.64 -1.952,1.728 -0.736,1.088 -0.736,2.4 v 8.96 q 0,0.384 -0.288,0.672 -0.256,0.288 -0.672,0.288 -0.416,0 -0.704,-0.288 -0.256,-0.288 -0.256,-0.672 v -9.056 q 0,-1.312 -0.384,-2.368 -0.384,-1.056 -1.248,-1.664 -0.864,-0.64 -2.336,-0.64 -1.312,0 -2.496,0.64 -1.152,0.608 -1.888,1.664 -0.704,1.056 -0.704,2.368 v 9.056 q 0,0.384 -0.288,0.672 -0.288,0.288 -0.672,0.288 -0.448,0 -0.704,-0.288 -0.256,-0.288 -0.256,-0.672 v -14.336 q 0,-0.384 0.256,-0.672 0.288,-0.288 0.704,-0.288 0.416,0 0.672,0.288 0.288,0.288 0.288,0.672 v 2.976 l -0.864,1.184 q 0.096,-0.96 0.608,-1.92 0.544,-0.96 1.408,-1.728 0.864,-0.768 1.952,-1.216 1.12,-0.48 2.336,-0.48 z"
           style="font-family:Quicksand;-inkscape-font-specification:Quicksand;fill:#6f918a"
           id="path60087" />
        <path
           d="m 607.28204,130.84824 q 0,0.384 -0.288,0.672 -0.288,0.288 -0.672,0.288 -0.416,0 -0.704,-0.288 -0.256,-0.288 -0.256,-0.672 v -14.72 q 0,-0.384 0.256,-0.672 0.288,-0.288 0.704,-0.288 0.416,0 0.672,0.288 0.288,0.288 0.288,0.672 z m -0.96,-17.824 q -0.672,0 -1.024,-0.288 -0.32,-0.32 -0.32,-0.896 v -0.32 q 0,-0.576 0.352,-0.864 0.384,-0.32 1.024,-0.32 0.608,0 0.928,0.32 0.352,0.288 0.352,0.864 v 0.32 q 0,0.576 -0.352,0.896 -0.32,0.288 -0.96,0.288 z"
           style="font-family:Quicksand;-inkscape-font-specification:Quicksand;fill:#6f918a"
           id="path60089" />
      </g>
    </g>
  </g>
</svg>
