<svg xmlns="http://www.w3.org/2000/svg" viewBox="0 0 500 500"><g id="freepik--background-complete--inject-6"><path d="M430.76,304.22l-13.13.28-6.66.11c-2.22.05-4.46,0-6.69.06h-.44v-.45L403.78,293v-.5h.5l13.24.06c4.41,0,8.83.11,13.24.16H431V293c0,1.9-.08,3.79-.13,5.66Zm0,0-.14-5.65c-.05-1.86-.11-3.7-.13-5.54l.27.28c-4.41.05-8.83.16-13.24.16l-13.24.06.5-.5-.06,11.19-.44-.44c2.18,0,4.36,0,6.54.05l6.58.12Z" style="fill:#ebebeb"/><path d="M416,318.33l-13.13.28-6.66.11c-2.22,0-4.46,0-6.69.06h-.45v-.45L389,307.14v-.5h.5l13.24.07c4.41,0,8.82.11,13.24.16h.27v.27c0,1.9-.09,3.79-.13,5.66Zm0,0-.14-5.65c-.05-1.86-.12-3.7-.14-5.54l.28.28c-4.42.05-8.83.16-13.24.16l-13.24.06.5-.5L390,318.33l-.44-.44c2.18,0,4.36,0,6.54.05l6.58.12Z" style="fill:#ebebeb"/><path d="M445.53,318.33l-13.12.28-6.66.11c-2.23,0-4.47,0-6.7.06h-.44v-.45l-.05-11.19v-.5h.5l13.24.07c4.41,0,8.83.11,13.24.16h.28v.27c0,1.9-.08,3.79-.13,5.66Zm0,0-.14-5.65c-.05-1.86-.11-3.7-.13-5.54l.27.28c-4.41.05-8.83.16-13.24.16l-13.24.06.5-.5-.05,11.19-.45-.44c2.18,0,4.36,0,6.55.05l6.58.12Z" style="fill:#ebebeb"/><path d="M81,318.33l-13.13.28-6.66.11c-2.22,0-4.46,0-6.69.06H54v-.45L54,307.14v-.5h.5l13.24.07c4.41,0,8.83.11,13.24.16h.28v.27c0,1.9-.08,3.79-.13,5.66Zm0,0-.14-5.65c0-1.86-.11-3.7-.13-5.54l.27.28c-4.41.05-8.83.16-13.24.16l-13.24.06.5-.5-.06,11.19-.44-.44c2.18,0,4.36,0,6.54.05l6.58.12Z" style="fill:#ebebeb"/><path d="M110.49,318.33l-13.12.28-6.66.11c-2.23,0-4.47,0-6.7.06h-.44v-.45l-.06-11.19v-.5H84l13.24.07c4.42,0,8.83.11,13.24.16h.28v.27c0,1.9-.09,3.79-.14,5.66Zm0,0-.14-5.65c0-1.86-.11-3.7-.13-5.54l.27.28c-4.41.05-8.82.16-13.24.16L84,307.64l.5-.5-.05,11.19-.45-.44c2.18,0,4.36,0,6.55.05l6.58.12Z" style="fill:#ebebeb"/><path d="M171.06,140.55l-13.12.28-6.67.11c-2.22.05-4.46,0-6.69.06h-.44v-.45l0-11.19v-.5h.5l13.24.06c4.41,0,8.83.11,13.24.16h.28v.27c0,1.9-.08,3.79-.13,5.66Zm0,0-.14-5.65c0-1.86-.11-3.7-.13-5.54l.27.28c-4.41.05-8.83.16-13.24.16l-13.24.06.5-.5L145,140.55l-.45-.44c2.18,0,4.36,0,6.55,0l6.57.12Z" style="fill:#ebebeb"/><path d="M156.29,154.66l-13.13.28-6.66.11c-2.22,0-4.46,0-6.69.06h-.45v-.45l-.05-11.19V143h.5l13.24.07c4.41,0,8.82.11,13.24.16h.27v.27c0,1.9-.08,3.79-.13,5.66Zm0,0-.14-5.65c-.05-1.86-.12-3.7-.13-5.54l.27.28c-4.42.05-8.83.16-13.24.16l-13.24.06.5-.5-.06,11.19-.44-.44c2.18,0,4.36,0,6.54.05l6.58.12Z" style="fill:#ebebeb"/><path d="M185.83,154.66l-13.12.28-6.66.11c-2.23,0-4.47,0-6.7.06h-.44v-.45l-.06-11.19V143h.5l13.24.07c4.41,0,8.83.11,13.24.16h.28v.27c0,1.9-.08,3.79-.13,5.66Zm0,0-.14-5.65c-.05-1.86-.11-3.7-.13-5.54l.27.28c-4.41.05-8.83.16-13.24.16l-13.24.06.5-.5,0,11.19-.45-.44c2.18,0,4.36,0,6.55.05l6.58.12Z" style="fill:#ebebeb"/><path d="M415.24,70.84l-13.13.28-6.66.11c-2.22,0-4.46,0-6.69.06h-.44v-.45l-.05-11.19v-.5h.5l13.24.07c4.41,0,8.83.11,13.24.16h.28v.27c0,1.9-.08,3.79-.13,5.66Zm0,0-.14-5.65c-.05-1.86-.11-3.71-.13-5.54l.27.28c-4.41,0-8.83.16-13.24.16l-13.24.06.5-.5-.06,11.19-.44-.44c2.18,0,4.36,0,6.55,0l6.57.11Z" style="fill:#ebebeb"/><path d="M430,85l-13.12.28-6.66.11c-2.23,0-4.47,0-6.7.06h-.44V85L403,73.76v-.5h.5l13.24.07c4.41,0,8.83.11,13.24.16h.28v.27c0,1.9-.08,3.79-.13,5.66Zm0,0-.14-5.65c-.05-1.86-.11-3.71-.13-5.54L430,74c-4.41,0-8.83.15-13.24.16l-13.24.06.5-.5L404,85l-.45-.44c2.18,0,4.36,0,6.55,0l6.58.11Z" style="fill:#ebebeb"/><path d="M112.06,53.28l-13.12.28-6.67.11c-2.22,0-4.46,0-6.69,0h-.44v-.45l0-11.19v-.5h.5l13.24.06c4.41,0,8.83.11,13.24.17h.28v.27c0,1.9-.08,3.79-.13,5.65Zm0,0-.14-5.66c0-1.86-.11-3.7-.13-5.53l.27.27c-4.41,0-8.83.16-13.24.17l-13.24.06.5-.5,0,11.19-.45-.45c2.18,0,4.36,0,6.55.06l6.58.11Z" style="fill:#ebebeb"/><rect x="51.26" y="114.77" width="124.56" height="4.97" transform="translate(227.07 234.51) rotate(180)" style="fill:#ebebeb"/><rect x="164.5" y="119.74" width="4.97" height="8.58" style="fill:#ebebeb"/><rect x="164.5" y="119.74" width="4.97" height="3.54" style="fill:#dbdbdb"/><rect x="57.6" y="119.74" width="4.97" height="8.58" style="fill:#ebebeb"/><rect x="57.6" y="119.74" width="4.97" height="3.54" style="fill:#dbdbdb"/><path d="M144.1,68.63c7.62,7.45,8.89,19,7.29,29.1,0,.23-.4.16-.4,0,0-2.3.07-4.58.07-6.86-.05-.1-.08-.2-.12-.3A15.29,15.29,0,0,1,146,85.2c-1.27-2.5-1.77-5.32-2.75-7.94-.09-.25.18-.17.35,0,4.64,3.41,6.11,7.09,7.44,12a40.66,40.66,0,0,0-.8-7.66,26.06,26.06,0,0,0-6.33-12.74C143.77,68.7,144,68.49,144.1,68.63Z" style="fill:#a6a6a6"/><path d="M142.67,69.5c-1.31,0-2.14,2.13-3.16,2.74a1,1,0,0,1-1.44-.22c-1-1.42.37-3.16,1.68-4.13A14.54,14.54,0,0,1,137,69.14a.94.94,0,0,1-1.22-.74c-.45-1.92,2-2.78,3.63-2.82-.81-.56-3.11-2.08-1.89-2.82s3.95,1.42,4.83,2.13c1.29,1,2.84,2.63,2.9,4.27C145.35,71.08,143.68,69.9,142.67,69.5Z" style="fill:#dbdbdb"/><path d="M143.05,69.82c-1.68-.76-4.9.33-5.17-.3-.56-1.29,2-2.18,3.4-2.35-1.28-.35-3.72-.9-3.65-2.13.09-1.51,3.76-.21,5.61,1.21,2.34,1.79,2.33,3.52,1.94,3.87S143.32,69.94,143.05,69.82Z" style="fill:#ebebeb"/><path d="M161.45,67.89c-7.9,7.16-9.62,18.64-8.4,28.8,0,.23.39.18.4,0,.09-2.3.11-4.58.2-6.85l.13-.31a15.29,15.29,0,0,0,5.15-5.12c1.36-2.45,2-5.25,3-7.83.1-.24-.17-.18-.35-.06-4.76,3.24-6.37,6.86-7.89,11.72a40.59,40.59,0,0,1,1.1-7.62,26.08,26.08,0,0,1,6.81-12.49C161.77,68,161.58,67.76,161.45,67.89Z" style="fill:#a6a6a6"/><path d="M162.84,68.81c1.31.09,2,2.22,3,2.87a1,1,0,0,0,1.45-.17c1.07-1.38-.25-3.17-1.52-4.19a15.2,15.2,0,0,0,2.67,1.35,1,1,0,0,0,1.25-.69c.51-1.91-1.87-2.85-3.52-3,.82-.53,3.18-2,2-2.75s-4,1.27-4.9,1.95c-1.34,1-2.94,2.52-3.06,4.16C160.1,70.29,161.82,69.17,162.84,68.81Z" style="fill:#dbdbdb"/><path d="M162.45,69.12c1.71-.7,4.88.52,5.18-.1.6-1.27-1.94-2.25-3.32-2.48,1.29-.3,3.76-.75,3.74-2,0-1.51-3.75-.35-5.66,1-2.4,1.7-2.45,3.43-2.08,3.79S162.17,69.23,162.45,69.12Z" style="fill:#ebebeb"/><path d="M153.37,86.8a76.73,76.73,0,0,1-2.45,11.33.28.28,0,0,1-.55-.11c.52-3.49,1.46-6.92,2-10.41A52.31,52.31,0,0,0,153,76.93c-.33-5.88-1.93-12.14-5.77-16.74-.08-.11.1-.26.18-.16,7.69,9,6.46,19.94,6.46,20.92,1.08-3.7,2.2-8,6.32-11.73.18-.16.31-.09.29.19-.74,6.88-2.65,10.47-6.64,14.15C153.69,84.65,153.55,85.73,153.37,86.8Z" style="fill:#a6a6a6"/><path d="M147.12,61.22c-1.38-.61-3.29,1.15-4.65,1.27a1.14,1.14,0,0,1-1.39-1c-.34-2,2-3.08,3.82-3.43a18,18,0,0,1-3.44-.07,1.09,1.09,0,0,1-.9-1.38c.5-2.22,3.44-1.9,5.18-1.11-.55-1-2.18-3.71-.53-3.87s3.37,3.46,3.93,4.64c.81,1.74,1.63,4.15.86,5.89C149.11,64.22,148,62.15,147.12,61.22Z" style="fill:#dbdbdb"/><path d="M147.35,61.75c-1.35-1.64-5.24-2.12-5.21-2.91.08-1.62,3.19-1.25,4.72-.73-1.16-1-3.42-2.8-2.72-4,.85-1.51,4,1.68,5.21,4.09,1.53,3,.64,4.82.06,5C148.62,63.36,147.58,62,147.35,61.75Z" style="fill:#ebebeb"/><path d="M158.43,88.87l3.39,25.89H141.2c.42-2.29,4.26-25.92,4.26-25.92Z" style="fill:#dbdbdb"/><rect x="96.85" y="91.56" width="37.08" height="9.34" transform="translate(211.61 -19.16) rotate(90)" style="fill:#c7c7c7"/><rect x="113.35" y="73.07" width="4.07" height="9.34" transform="translate(193.13 -37.65) rotate(90)" style="fill:#dbdbdb"/><rect x="114.63" y="81.09" width="1.51" height="9.34" transform="translate(201.14 -29.63) rotate(90)" style="fill:#dbdbdb"/><rect x="113.35" y="103.19" width="4.07" height="9.34" transform="translate(223.25 -7.53) rotate(90)" style="fill:#dbdbdb"/><rect x="85.83" y="89.88" width="43.25" height="6.52" transform="translate(200.6 -14.32) rotate(90)" style="fill:#dbdbdb"/><rect x="99.17" y="81.94" width="16.63" height="3.92" transform="translate(191.38 -23.59) rotate(90)" style="fill:#ebebeb"/><rect x="53.82" y="93.99" width="43.25" height="6.53" transform="translate(197.47 113.38) rotate(135.33)" style="fill:#c7c7c7"/><rect x="64.87" y="97.5" width="16.63" height="3.92" transform="translate(195.15 118.74) rotate(135.33)" style="fill:#dbdbdb"/><rect x="82.23" y="92.8" width="32.85" height="11.08" transform="translate(197 -0.31) rotate(90)" style="fill:#a6a6a6"/><rect x="97.13" y="104.22" width="3.06" height="11.08" transform="translate(208.42 11.1) rotate(90)" style="fill:#c7c7c7"/><rect x="98.07" y="100.08" width="1.19" height="11.08" transform="translate(204.28 6.96) rotate(90)" style="fill:#c7c7c7"/><rect x="108.45" y="95.51" width="30.87" height="7.65" transform="translate(223.22 -24.55) rotate(90)" style="fill:#a6a6a6"/><rect x="122.45" y="106.23" width="2.88" height="7.65" transform="translate(233.94 -13.83) rotate(90)" style="fill:#c7c7c7"/><rect x="122.45" y="87.87" width="2.88" height="7.65" transform="translate(215.58 -32.18) rotate(90)" style="fill:#c7c7c7"/><rect x="123.33" y="91.84" width="1.12" height="7.65" transform="translate(219.55 -28.22) rotate(90)" style="fill:#c7c7c7"/><rect x="390.46" y="61.31" width="42.27" height="42.27" style="fill:#fff"/><path d="M388.26,59.11v46.67h46.67V59.11Zm44.47,44.47H390.46V61.31h42.27Z" style="fill:#dbdbdb"/><rect x="405.91" y="71.61" width="14.61" height="32.95" transform="translate(501.3 -325.13) rotate(90)" style="fill:#ebebeb"/><rect x="403.15" y="74" width="16.88" height="16.88" transform="translate(494.04 -329.15) rotate(90)" style="fill:#c7c7c7"/><rect x="434.93" y="59.11" width="1.8" height="46.67" style="fill:#c7c7c7"/><rect x="390.46" y="121.33" width="42.27" height="42.27" style="fill:#fff"/><rect x="397.72" y="128.1" width="11.04" height="31.89" style="fill:#c7c7c7"/><path d="M388.26,119.13V165.8h46.67V119.13Zm44.47,44.47H390.46V121.33h42.27Z" style="fill:#dbdbdb"/><rect x="403.15" y="134.03" width="16.88" height="16.88" style="fill:#ebebeb"/><rect x="434.93" y="119.13" width="1.8" height="46.67" style="fill:#c7c7c7"/><rect x="390.46" y="181.36" width="42.27" height="42.27" style="fill:#fff"/><rect x="395.15" y="187.12" width="23.2" height="13.87" style="fill:#ebebeb"/><path d="M388.26,179.16v46.67h46.67V179.16Zm44.47,44.47H390.46V181.36h42.27Z" style="fill:#dbdbdb"/><rect x="403.15" y="194.05" width="16.88" height="16.88" style="fill:#c7c7c7"/><rect x="434.93" y="179.16" width="1.8" height="46.67" style="fill:#c7c7c7"/></g><g id="freepik--Shadow--inject-6"><ellipse cx="250" cy="435.52" rx="206.25" ry="20.23" style="fill:#ebebeb"/></g><g id="freepik--Plant--inject-6"><path d="M73.18,308.91s7.56-27.13,13.59-36.34,17.28-19.33,17.28-19.33S103.79,295.06,73.18,308.91Z" style="fill:#FFC727"/><path d="M73.72,308.44a130.21,130.21,0,0,0,6.89-13.14A92.07,92.07,0,0,1,84.36,281a.07.07,0,0,1,.13,0c-1,4.29-2.16,8.54-3.22,12.81,3-6.6,6-13.29,9.58-19.53a41.62,41.62,0,0,1,3.5-8.68c0-.08.17,0,.13.05a57.55,57.55,0,0,0-2.35,6.51,65.71,65.71,0,0,1,5.74-7.93c.13-.15.4,0,.27.18-4.86,6.2-8.22,13.26-11.41,20.4A108.88,108.88,0,0,0,96.21,273c0-.05.1,0,.07,0a98.2,98.2,0,0,1-10.15,13.17c-2.33,5.23-4.62,10.48-7.39,15.46,5.54-4.69,9.8-10.74,14-16.59a.13.13,0,0,1,.21.14c-4.22,6.42-8.59,12.46-14.66,17.21a66.11,66.11,0,0,1-4.06,6.34A.32.32,0,0,1,73.72,308.44Z" style="fill:#263238"/><path d="M70.84,311.35s13.58-25,9.63-49.26-8.17-32.88-8.17-32.88S51,266.92,70.84,311.35Z" style="fill:#FFC727"/><path d="M65.26,272a118.58,118.58,0,0,0,5.24,20.19c0-8.89.21-17.79.45-26.69A68.84,68.84,0,0,1,68.39,249c0-.17.24-.16.25,0A93.69,93.69,0,0,0,71,263.22c.2-7.34.45-14.68.71-22a.1.1,0,0,1,.2,0c0,11.46,0,22.93-.08,34.4A91.89,91.89,0,0,0,75.76,262c0-.05.09,0,.08,0a52.89,52.89,0,0,1-4,15.5c0,7.33-.13,14.66-.29,22,2.3-7.79,4.75-15.34,5.42-23.57a.09.09,0,0,1,.17,0c-.18,9.08-2.52,18.3-5.52,26.84a.47.47,0,0,1-.15.21c-.07,2.68-.14,5.36-.23,8a.3.3,0,0,1-.6,0c-.11-5.48-.14-11-.13-16.44A73.45,73.45,0,0,1,65.14,272C65.14,272,65.25,272,65.26,272Z" style="fill:#263238"/><path d="M66.19,268.16a46.16,46.16,0,0,1,1,6.61.07.07,0,0,1-.13,0,47.49,47.49,0,0,1-1.12-6.59C65.87,268,66.16,268,66.19,268.16Z" style="fill:#263238"/><path d="M74.13,249.88a.07.07,0,0,1,.13,0,16.84,16.84,0,0,1-.68,4.56c0,.12-.21.06-.18-.06C73.69,252.9,73.88,251.39,74.13,249.88Z" style="fill:#263238"/><path d="M65.88,313.26s.56-26.1-6.93-39.08A56.26,56.26,0,0,0,39,254.59S44.05,300.61,65.88,313.26Z" style="fill:#FFC727"/><path d="M52.23,290.94a96.86,96.86,0,0,0,10.14,12.84q-2.25-8-5.18-15.74c-4.2-3.68-8.37-7.5-10.94-12.54a.07.07,0,0,1,.12-.07c2.77,4.46,6.47,8,10.37,11.47a200.21,200.21,0,0,0-10.43-22.7.17.17,0,0,1,.29-.17,124.07,124.07,0,0,1,6.54,11.91c-.7-2.79-1.27-5.64-2-8.41a.06.06,0,1,1,.11,0,47.29,47.29,0,0,1,3.08,11.07,132.32,132.32,0,0,1,6.59,17.86c-.19-3.91-.44-7.81-.84-11.71,0-.07.12-.09.13,0a63.8,63.8,0,0,1,1.14,13.15q1.6,5.83,2.71,11.8c0,.1-.14.15-.16,0-.41-1.66-.85-3.31-1.3-4.95,0,0-.06,0-.09,0A53.17,53.17,0,0,1,52.19,291S52.22,290.91,52.23,290.94Z" style="fill:#263238"/><path d="M43.56,269.69c.83.91,1.6,1.85,2.4,2.78A20.55,20.55,0,0,1,48.12,275a0,0,0,0,1-.06.06,12.89,12.89,0,0,1-2.49-2.46,21.31,21.31,0,0,1-2.13-2.8A.08.08,0,0,1,43.56,269.69Z" style="fill:#263238"/><path d="M88.13,310.08l-.94,12.36-2.85,37.38H59.53l-2.84-37.38-.94-12.36H88.13Z" style="fill:#455a64"/><path d="M88.13,310.08l-.94,12.36H56.69l-.94-12.36H88.13Z" style="fill:#37474f"/><rect x="53.54" y="304.01" width="36.8" height="9.48" transform="translate(143.88 617.5) rotate(180)" style="fill:#455a64"/></g><g id="freepik--TV--inject-6"><rect x="140.27" y="271.86" width="219.46" height="67.19" style="fill:#ebebeb"/><polygon points="331.51 339.04 332 345.14 333.16 359.24 338.48 359.24 339.64 345.14 340.13 339.04 331.51 339.04" style="fill:#c7c7c7"/><polygon points="340.13 339.04 331.51 339.04 332 345.14 339.64 345.14 340.13 339.04" style="fill:#a6a6a6"/><polygon points="159.87 339.04 160.36 345.14 161.52 359.24 166.84 359.24 168 345.14 168.49 339.04 159.87 339.04" style="fill:#c7c7c7"/><polygon points="159.87 339.04 160.36 345.14 168 345.14 168.49 339.04 159.87 339.04" style="fill:#a6a6a6"/><rect x="146.97" y="278.23" width="100.09" height="24" style="fill:#c7c7c7"/><rect x="146.97" y="308.02" width="206.06" height="24" style="fill:#c7c7c7"/><rect x="252.94" y="278.23" width="100.09" height="24" style="fill:#c7c7c7"/><rect x="166.34" y="174.01" width="167.33" height="88.78" style="fill:#37474f"/><rect x="171.35" y="179.46" width="157.3" height="77.88" style="fill:#fff"/><polygon points="242.9 257.34 171.35 257.34 171.35 250.79 242.9 257.34" style="fill:#FFC727"/><polygon points="248.62 257.34 247.53 257.34 171.35 237.26 171.35 220.94 248.62 257.34" style="fill:#FFC727"/><polygon points="249.36 257.34 249.06 257.34 171.35 203.4 171.35 179.46 172.1 179.46 249.36 257.34" style="fill:#FFC727"/><polygon points="249.7 257.34 249.54 257.34 194.54 179.46 213.76 179.46 249.7 257.34" style="fill:#FFC727"/><polygon points="249.95 257.34 249.82 257.34 228.62 179.46 243.45 179.46 249.95 257.34" style="fill:#FFC727"/><polygon points="271.38 179.46 250.18 257.34 250.05 257.34 256.55 179.46 271.38 179.46" style="fill:#FFC727"/><polygon points="305.46 179.46 250.46 257.34 250.3 257.34 286.24 179.46 305.46 179.46" style="fill:#FFC727"/><polygon points="328.65 179.46 328.65 203.4 250.94 257.34 250.64 257.34 327.9 179.46 328.65 179.46" style="fill:#FFC727"/><polygon points="328.65 220.94 328.65 237.26 252.47 257.34 251.38 257.34 328.65 220.94" style="fill:#FFC727"/><polygon points="328.65 250.79 328.65 257.34 257.1 257.34 328.65 250.79" style="fill:#FFC727"/><g style="opacity:0.8"><polygon points="242.9 257.34 171.35 257.34 171.35 250.79 242.9 257.34" style="fill:#fff"/><polygon points="248.62 257.34 247.53 257.34 171.35 237.26 171.35 220.94 248.62 257.34" style="fill:#fff"/><polygon points="249.36 257.34 249.06 257.34 171.35 203.4 171.35 179.46 172.1 179.46 249.36 257.34" style="fill:#fff"/><polygon points="249.7 257.34 249.54 257.34 194.54 179.46 213.76 179.46 249.7 257.34" style="fill:#fff"/><polygon points="249.95 257.34 249.82 257.34 228.62 179.46 243.45 179.46 249.95 257.34" style="fill:#fff"/><polygon points="271.38 179.46 250.18 257.34 250.05 257.34 256.55 179.46 271.38 179.46" style="fill:#fff"/><polygon points="305.46 179.46 250.46 257.34 250.3 257.34 286.24 179.46 305.46 179.46" style="fill:#fff"/><polygon points="328.65 179.46 328.65 203.4 250.94 257.34 250.64 257.34 327.9 179.46 328.65 179.46" style="fill:#fff"/><polygon points="328.65 220.94 328.65 237.26 252.47 257.34 251.38 257.34 328.65 220.94" style="fill:#fff"/><polygon points="328.65 250.79 328.65 257.34 257.1 257.34 328.65 250.79" style="fill:#fff"/></g><path d="M248.26,246.88l-3.73,2.48,4.81.56,1.4,4,1.41-3.65,4.27.49L253,248.09l1.25-4.34-4.28,2-2.84-2.17Zm-55.64-55.61-1.56,5.21,4.92-3.2,4.38,2.61-1.51-4.49,4.37-2.85-5.26.21-2.2-5-2.44,5.19-4.33.18Zm121.94-.38,3.92.41-2.43-2.82,2-3.72-4.27,1.68-2.61-2.73.86,3.72-3.28,2.24,4,1,.71,3.06ZM184.77,241.83l3.92.41-2.43-2.82,2-3.72L184,237.38l-2.62-2.73.86,3.72L179,240.61l4,1,.71,3Zm125.35,5.91,2.07,3.35.75-3.64,4.18-.67-3.94-2.36.56-3.73-2.41,2.95-3.78-1.22,1.64,3.82-2,2.42Z" style="fill:#FFC727"/><path d="M262,269.43H238a6.64,6.64,0,0,1-6.64-6.64h37.34A6.64,6.64,0,0,1,262,269.43Z" style="fill:#37474f"/><path d="M268.67,262.79a7.35,7.35,0,0,1-.51,2.72l-36.65-1.06h0a7.38,7.38,0,0,1-.18-1.65Z" style="fill:#263238"/><rect x="204.2" y="268.11" width="91.6" height="3.74" style="fill:#37474f"/><path d="M208.34,206.78a.53.53,0,0,1-.51.52.52.52,0,0,1-.51-.52v-5.39h0a.5.5,0,0,1,.91-.32l3,4.15v-3.82a.51.51,0,0,1,.5-.51.52.52,0,0,1,.51.51v5.39a.52.52,0,0,1-.51.52.5.5,0,0,1-.38-.19l-.05-.06-3-4.12Z" style="fill:#FFC727"/><path d="M217.79,205.76h-2.26l-.45,1.21a.53.53,0,0,1-.49.33.47.47,0,0,1-.17,0,.53.53,0,0,1-.31-.67l2-5.47a.53.53,0,0,1,.5-.33.5.5,0,0,1,.49.33l2,5.47a.52.52,0,0,1-.3.67.48.48,0,0,1-.18,0,.49.49,0,0,1-.47-.33Zm-.38-1-.75-2-.76,2Z" style="fill:#FFC727"/><path d="M221.49,206.78a.51.51,0,1,1-1,0v-5.39h0a.5.5,0,0,1,.91-.32l3,4.15v-3.82a.52.52,0,0,1,.51-.51.53.53,0,0,1,.51.51v5.39a.53.53,0,0,1-.51.52.54.54,0,0,1-.39-.19l0-.06-3-4.12Z" style="fill:#FFC727"/><path d="M231,205.76h-2.26l-.45,1.21a.53.53,0,0,1-.49.33.47.47,0,0,1-.17,0,.53.53,0,0,1-.31-.67l2-5.47a.53.53,0,0,1,.5-.33.51.51,0,0,1,.49.33l2.05,5.47a.53.53,0,0,1-.31.67.43.43,0,0,1-.17,0,.5.5,0,0,1-.48-.33Zm-.38-1-.75-2-.76,2Z" style="fill:#FFC727"/><path d="M237.44,206.78a.51.51,0,1,1-1,0v-5.39h0a.53.53,0,0,1,.21-.43.52.52,0,0,1,.71.11l3,4.15v-3.82a.51.51,0,0,1,.5-.51.52.52,0,0,1,.51.51v5.39a.52.52,0,0,1-.51.52.5.5,0,0,1-.38-.19l-.05-.06-3-4.12Z" style="fill:#FFC727"/><path d="M246.89,205.76h-2.26l-.45,1.21a.51.51,0,0,1-.48.33.52.52,0,0,1-.18,0,.53.53,0,0,1-.31-.67l2.06-5.47a.53.53,0,0,1,1,0l2.05,5.47a.52.52,0,0,1-.3.67.48.48,0,0,1-.18,0,.49.49,0,0,1-.47-.33Zm-.38-1-.75-2-.75,2Z" style="fill:#FFC727"/><path d="M253.38,206.78a.51.51,0,1,1-1,0v-5.39h0a.49.49,0,0,1,.2-.43.52.52,0,0,1,.71.11l3,4.15v-3.82a.51.51,0,0,1,.5-.51.52.52,0,0,1,.51.51v5.39a.5.5,0,0,1-.89.33l0-.06-3-4.12Z" style="fill:#FFC727"/><path d="M262.84,205.76h-2.26l-.46,1.21a.51.51,0,0,1-.48.33l-.18,0a.52.52,0,0,1-.3-.67l2-5.47a.54.54,0,0,1,1,0l2.05,5.47a.53.53,0,0,1-.31.67.43.43,0,0,1-.17,0,.5.5,0,0,1-.48-.33Zm-.38-1-.76-2-.75,2Z" style="fill:#FFC727"/><path d="M266.54,206.78a.51.51,0,1,1-1,0v-5.39h0a.49.49,0,0,1,.2-.43.52.52,0,0,1,.71.11l3,4.15v-3.82a.51.51,0,0,1,.5-.51.52.52,0,0,1,.51.51v5.39a.52.52,0,0,1-.51.52.5.5,0,0,1-.38-.19l-.05-.06-3-4.12Z" style="fill:#FFC727"/><path d="M276,205.76h-2.26l-.46,1.21a.51.51,0,0,1-.48.33.52.52,0,0,1-.18,0,.52.52,0,0,1-.3-.67l2.05-5.47a.51.51,0,0,1,.49-.33.5.5,0,0,1,.49.33l2.06,5.47a.53.53,0,0,1-.31.67.48.48,0,0,1-.18,0,.49.49,0,0,1-.47-.33Zm-.39-1-.75-2-.75,2Z" style="fill:#FFC727"/><path d="M282.48,206.78a.51.51,0,1,1-1,0v-5.39h0a.5.5,0,0,1,.91-.32l3,4.15v-3.82a.52.52,0,0,1,.5-.51.53.53,0,0,1,.52.51v5.39a.53.53,0,0,1-.52.52.54.54,0,0,1-.38-.19l0-.06-3-4.12Z" style="fill:#FFC727"/><path d="M291.94,205.76h-2.26l-.45,1.21a.53.53,0,0,1-.49.33.47.47,0,0,1-.17,0,.53.53,0,0,1-.31-.67l2.05-5.47a.53.53,0,0,1,.5-.33.51.51,0,0,1,.49.33l2.05,5.47a.53.53,0,0,1-.31.67.43.43,0,0,1-.17,0,.5.5,0,0,1-.48-.33Zm-.38-1-.75-2-.76,2Z" style="fill:#FFC727"/><path d="M208.71,235.14a.51.51,0,1,1-1,0v-5.4h0a.53.53,0,0,1,.21-.43.52.52,0,0,1,.71.11l3,4.16v-3.83a.5.5,0,0,1,.5-.5.51.51,0,0,1,.51.5v5.4a.51.51,0,0,1-.51.51.47.47,0,0,1-.38-.19s0,0,0-.05l-3-4.13Z" style="fill:#FFC727"/><path d="M218.16,234.12H215.9l-.45,1.2a.51.51,0,0,1-.48.33.52.52,0,0,1-.18,0,.53.53,0,0,1-.31-.67l2.06-5.47a.53.53,0,0,1,1,0l2.06,5.47a.53.53,0,0,1-.31.67.48.48,0,0,1-.18,0,.49.49,0,0,1-.47-.33Zm-.38-1-.75-2-.75,2Z" style="fill:#FFC727"/><path d="M224.65,235.14a.51.51,0,1,1-1,0v-5.4h0a.49.49,0,0,1,.2-.43.52.52,0,0,1,.71.11l3,4.16v-3.83a.5.5,0,0,1,.5-.5.51.51,0,0,1,.51.5v5.4a.51.51,0,0,1-.51.51.47.47,0,0,1-.38-.19s0,0,0-.05l-3-4.13Z" style="fill:#FFC727"/><path d="M234.11,234.12h-2.26l-.46,1.2a.51.51,0,0,1-.48.33.52.52,0,0,1-.18,0,.52.52,0,0,1-.3-.67l2-5.47a.54.54,0,0,1,1,0l2.05,5.47a.53.53,0,0,1-.31.67.43.43,0,0,1-.17,0,.5.5,0,0,1-.48-.33Zm-.38-1-.76-2-.75,2Z" style="fill:#FFC727"/><path d="M237.81,235.14a.51.51,0,1,1-1,0v-5.4h0a.49.49,0,0,1,.2-.43.52.52,0,0,1,.71.11l3,4.16v-3.83a.5.5,0,0,1,.5-.5.51.51,0,0,1,.51.5v5.4a.51.51,0,0,1-.51.51.47.47,0,0,1-.38-.19s0,0-.05-.05l-3-4.13Z" style="fill:#FFC727"/><path d="M247.26,234.12H245l-.46,1.2a.51.51,0,0,1-.48.33.52.52,0,0,1-.18,0,.53.53,0,0,1-.31-.67l2.06-5.47a.51.51,0,0,1,.49-.33.5.5,0,0,1,.49.33l2.06,5.47a.53.53,0,0,1-.31.67.48.48,0,0,1-.18,0,.49.49,0,0,1-.47-.33Zm-.38-1-.75-2-.75,2Z" style="fill:#FFC727"/><path d="M251,235.14a.51.51,0,1,1-1,0v-5.4h0a.49.49,0,0,1,.2-.43.52.52,0,0,1,.71.11l3,4.16v-3.83a.5.5,0,0,1,.5-.5.51.51,0,0,1,.51.5v5.4a.51.51,0,0,1-.51.51.47.47,0,0,1-.38-.19s0,0-.05-.05l-3-4.13Z" style="fill:#FFC727"/><path d="M260.42,234.12h-2.26l-.45,1.2a.51.51,0,0,1-.48.33.52.52,0,0,1-.18,0,.53.53,0,0,1-.31-.67l2.06-5.47a.53.53,0,0,1,1,0l2.05,5.47a.52.52,0,0,1-.3.67.48.48,0,0,1-.18,0,.49.49,0,0,1-.47-.33Zm-.38-1-.75-2-.75,2Z" style="fill:#FFC727"/><path d="M266.91,235.14a.51.51,0,1,1-1,0v-5.4h0a.49.49,0,0,1,.2-.43.52.52,0,0,1,.71.11l3,4.16v-3.83a.5.5,0,0,1,.5-.5.51.51,0,0,1,.51.5v5.4a.51.51,0,0,1-.51.51.47.47,0,0,1-.38-.19s0,0-.05-.05l-3-4.13Z" style="fill:#FFC727"/><path d="M276.37,234.12h-2.26l-.46,1.2a.51.51,0,0,1-.48.33.52.52,0,0,1-.18,0,.52.52,0,0,1-.3-.67l2.05-5.47a.51.51,0,0,1,.49-.33.5.5,0,0,1,.49.33l2.06,5.47a.53.53,0,0,1-.31.67.48.48,0,0,1-.18,0,.5.5,0,0,1-.47-.33Zm-.38-1-.76-2-.75,2Z" style="fill:#FFC727"/><path d="M280.07,235.14a.51.51,0,1,1-1,0v-5.4h0a.49.49,0,0,1,.2-.43.52.52,0,0,1,.71.11l3,4.16v-3.83a.5.5,0,0,1,.5-.5.51.51,0,0,1,.51.5v5.4a.51.51,0,0,1-.51.51.47.47,0,0,1-.38-.19s0,0,0-.05l-3-4.13Z" style="fill:#FFC727"/><path d="M289.52,234.12h-2.25l-.46,1.2a.51.51,0,0,1-.48.33.52.52,0,0,1-.18,0,.53.53,0,0,1-.31-.67l2.06-5.47a.51.51,0,0,1,.49-.33.5.5,0,0,1,.49.33l2.06,5.47a.53.53,0,0,1-.31.67.48.48,0,0,1-.18,0,.49.49,0,0,1-.47-.33Zm-.38-1-.75-2-.75,2Z" style="fill:#FFC727"/><path d="M198,221.59a.65.65,0,1,1-1.3,0v-7h0a.64.64,0,0,1,1.17-.41l3.88,5.36v-4.94a.65.65,0,0,1,.64-.65.66.66,0,0,1,.66.65v7a.65.65,0,0,1-1.15.42s0,0-.06-.08L198,216.61Z"/><path d="M210.17,220.27h-2.92l-.58,1.56a.68.68,0,0,1-.63.42.78.78,0,0,1-.22,0,.68.68,0,0,1-.4-.86l2.65-7.07a.68.68,0,0,1,.64-.42.67.67,0,0,1,.63.42l2.65,7.07a.68.68,0,0,1-.39.86.79.79,0,0,1-.23,0,.64.64,0,0,1-.61-.42Zm-.49-1.32-1-2.58-1,2.58Z"/><path d="M215,221.59a.66.66,0,1,1-1.31,0v-7h0a.7.7,0,0,1,.26-.56.67.67,0,0,1,.92.15l3.87,5.36v-4.94a.66.66,0,0,1,.65-.65.66.66,0,0,1,.66.65v7a.65.65,0,0,1-1.15.42.21.21,0,0,1-.06-.08L215,216.61Z"/><path d="M227.17,220.27h-2.91l-.59,1.56a.68.68,0,0,1-.62.42.79.79,0,0,1-.23,0,.68.68,0,0,1-.4-.86l2.65-7.07a.69.69,0,0,1,.64-.42.67.67,0,0,1,.64.42l2.65,7.07a.68.68,0,0,1-.4.86.73.73,0,0,1-.23,0,.66.66,0,0,1-.61-.42Zm-.49-1.32-1-2.58-1,2.58Z"/><path d="M232,221.59a.66.66,0,0,1-.65.66.65.65,0,0,1-.65-.66v-7h0a.64.64,0,0,1,.26-.56.66.66,0,0,1,.91.15l3.87,5.36v-4.94a.66.66,0,0,1,.65-.65.66.66,0,0,1,.66.65v7a.65.65,0,0,1-1.15.42s-.05,0-.06-.08L232,216.61Z"/><path d="M244.18,220.27h-2.92l-.59,1.56a.67.67,0,0,1-.62.42.93.93,0,0,1-.23,0,.68.68,0,0,1-.39-.86l2.65-7.07a.69.69,0,0,1,1.27,0l2.65,7.07a.68.68,0,0,1-.4.86.72.72,0,0,1-.22,0,.66.66,0,0,1-.62-.42Zm-.49-1.32-1-2.58-1,2.58Z"/><path d="M252.57,221.59a.66.66,0,1,1-1.31,0v-7h0a.64.64,0,0,1,1.17-.41l3.88,5.36v-4.94A.66.66,0,0,1,257,214a.66.66,0,0,1,.66.65v7a.65.65,0,0,1-1.16.42l-.06-.08-3.83-5.32Z"/><path d="M264.78,220.27h-2.91l-.59,1.56a.68.68,0,0,1-.62.42.79.79,0,0,1-.23,0,.68.68,0,0,1-.4-.86l2.65-7.07a.68.68,0,0,1,.64-.42.66.66,0,0,1,.63.42l2.65,7.07a.67.67,0,0,1-.39.86.79.79,0,0,1-.23,0,.65.65,0,0,1-.61-.42Zm-.49-1.32-1-2.58-1,2.58Z"/><path d="M269.57,221.59a.66.66,0,1,1-1.31,0v-7h0a.68.68,0,0,1,.27-.56.66.66,0,0,1,.91.15l3.87,5.36v-4.94A.66.66,0,0,1,274,214a.66.66,0,0,1,.66.65v7a.65.65,0,0,1-1.15.42.21.21,0,0,1-.06-.08l-3.84-5.32Z"/><path d="M281.79,220.27h-2.92l-.59,1.56a.68.68,0,0,1-.62.42.85.85,0,0,1-.23,0,.67.67,0,0,1-.39-.86l2.65-7.07a.69.69,0,0,1,1.27,0l2.65,7.07a.68.68,0,0,1-.4.86.73.73,0,0,1-.23,0,.66.66,0,0,1-.61-.42Zm-.5-1.32-1-2.58-1,2.58Z"/><path d="M290.17,221.59a.65.65,0,1,1-1.3,0v-7h0a.64.64,0,0,1,1.17-.41l3.88,5.36v-4.94a.65.65,0,0,1,.64-.65.66.66,0,0,1,.66.65v7a.65.65,0,0,1-1.15.42s-.05,0-.06-.08l-3.84-5.32Z"/><path d="M302.39,220.27h-2.92l-.58,1.56a.68.68,0,0,1-.63.42.78.78,0,0,1-.22,0,.68.68,0,0,1-.4-.86l2.65-7.07a.68.68,0,0,1,.64-.42.67.67,0,0,1,.63.42l2.65,7.07a.68.68,0,0,1-.39.86.79.79,0,0,1-.23,0,.65.65,0,0,1-.61-.42ZM301.9,219l-1-2.58L300,219Z"/></g><g id="freepik--Floor--inject-6"><polygon points="35.95 359.76 89.47 359.52 142.98 359.43 250 359.26 357.02 359.43 410.53 359.52 464.05 359.76 410.53 360 357.02 360.09 250 360.26 142.98 360.09 89.47 360 35.95 359.76" style="fill:#263238"/></g><g id="freepik--musical-notes--inject-6"><path d="M156.84,158.55a3.14,3.14,0,1,1-1.7-4.11A3.14,3.14,0,0,1,156.84,158.55Z" style="fill:#455a64"/><rect x="157.58" y="142.87" width="2.4" height="15.79" transform="translate(70.13 -49.44) rotate(22.6)" style="fill:#455a64"/><path d="M168,158.24a3.14,3.14,0,1,1-1.7-4.11A3.14,3.14,0,0,1,168,158.24Z" style="fill:#455a64"/><rect x="168.72" y="142.56" width="2.4" height="15.79" transform="translate(70.85 -53.74) rotate(22.6)" style="fill:#455a64"/><polygon points="174.05 143.66 159.89 144.97 160.7 143.02 174.86 141.71 174.05 143.66" style="fill:#455a64"/><polygon points="172.52 147.33 158.36 148.64 159.17 146.69 173.33 145.38 172.52 147.33" style="fill:#455a64"/><path d="M311.76,102.17a3.14,3.14,0,1,1-3-3.26A3.14,3.14,0,0,1,311.76,102.17Z" style="fill:#455a64"/><rect x="309.67" y="86.31" width="2.4" height="15.79" transform="translate(3.88 -11.96) rotate(2.22)" style="fill:#455a64"/><path d="M322.09,98a3.14,3.14,0,1,1-3-3.26A3.13,3.13,0,0,1,322.09,98Z" style="fill:#455a64"/><rect x="320" y="82.14" width="2.4" height="15.79" transform="matrix(1, 0.04, -0.04, 1, 3.72, -12.34)" style="fill:#455a64"/><polygon points="322.71 82.22 309.89 88.38 309.98 86.27 322.79 80.11 322.71 82.22" style="fill:#455a64"/><polygon points="322.55 86.2 309.74 92.35 309.82 90.25 322.63 84.09 322.55 86.2" style="fill:#455a64"/><path d="M149.82,209.34a1.75,1.75,0,1,1-1.39-2.05A1.75,1.75,0,0,1,149.82,209.34Z" style="fill:#455a64"/><rect x="149.32" y="200.48" width="1.34" height="8.79" transform="translate(40.92 -24.42) rotate(10.77)" style="fill:#455a64"/><path d="M155.86,207.9a1.75,1.75,0,1,1-1.39-2.05A1.76,1.76,0,0,1,155.86,207.9Z" style="fill:#455a64"/><rect x="155.36" y="199.04" width="1.34" height="8.79" transform="translate(40.75 -25.57) rotate(10.77)" style="fill:#455a64"/><polygon points="157.5 199.26 149.94 201.59 150.16 200.43 157.72 198.1 157.5 199.26" style="fill:#455a64"/><path d="M349.34,90.9A1.75,1.75,0,1,1,348,88.85,1.75,1.75,0,0,1,349.34,90.9Z" style="fill:#455a64"/><rect x="348.84" y="82.04" width="1.34" height="8.79" transform="translate(22.3 -63.78) rotate(10.77)" style="fill:#455a64"/><path d="M355.37,89.46a1.75,1.75,0,1,1-1.39-2A1.74,1.74,0,0,1,355.37,89.46Z" style="fill:#455a64"/><rect x="354.87" y="80.6" width="1.34" height="8.79" transform="translate(22.14 -64.93) rotate(10.77)" style="fill:#455a64"/><polygon points="357.02 80.82 349.45 83.15 349.67 82 357.24 79.67 357.02 80.82" style="fill:#455a64"/><path d="M126.14,172a1.75,1.75,0,1,1-1.39-2A1.75,1.75,0,0,1,126.14,172Z" style="fill:#455a64"/><rect x="125.64" y="163.12" width="1.34" height="8.79" transform="translate(33.52 -20.65) rotate(10.77)" style="fill:#455a64"/><path d="M132.17,170.53a1.75,1.75,0,1,1-1.39-2A1.74,1.74,0,0,1,132.17,170.53Z" style="fill:#455a64"/><rect x="131.67" y="161.67" width="1.34" height="8.79" transform="translate(33.36 -21.8) rotate(10.77)" style="fill:#455a64"/><polygon points="133.82 161.89 126.25 164.22 126.47 163.07 134.04 160.74 133.82 161.89" style="fill:#455a64"/><path d="M139.43,195.51a3.14,3.14,0,1,1-3.41-2.84A3.14,3.14,0,0,1,139.43,195.51Z" style="fill:#455a64"/><rect x="136.33" y="179.83" width="2.4" height="15.79" transform="translate(-16.14 12.97) rotate(-5.1)" style="fill:#455a64"/><rect x="143.58" y="175.08" width="2.4" height="4.56" transform="translate(-15.18 13.56) rotate(-5.1)" style="fill:#455a64"/><polygon points="145.83 175.59 135.82 182.07 135.63 179.97 145.64 173.48 145.83 175.59" style="fill:#455a64"/><polygon points="146.18 179.55 136.17 186.03 135.98 183.93 146 177.45 146.18 179.55" style="fill:#455a64"/><path d="M335.68,69.58a3.14,3.14,0,1,1-2.53-3.65A3.14,3.14,0,0,1,335.68,69.58Z" style="fill:#455a64"/><rect x="334.71" y="53.66" width="2.4" height="15.79" transform="translate(16.31 -58.77) rotate(10.25)" style="fill:#455a64"/><rect x="344.45" y="51.2" width="2.4" height="4.56" transform="translate(15.03 -60.64) rotate(10.25)" style="fill:#455a64"/><polygon points="347.13 52.05 335.76 55.65 336.13 53.58 347.5 49.97 347.13 52.05" style="fill:#455a64"/><polygon points="346.42 55.97 335.05 59.57 335.43 57.49 346.8 53.89 346.42 55.97" style="fill:#455a64"/><path d="M153,135.46a1.59,1.59,0,0,1-3.17.17,1.59,1.59,0,1,1,3.17-.17Z" style="fill:#455a64"/><rect x="151.54" y="127.51" width="1.21" height="7.98" transform="translate(-6.81 8.32) rotate(-3.06)" style="fill:#455a64"/><rect x="155.39" y="125.24" width="1.21" height="2.31" transform="translate(-6.52 8.51) rotate(-3.06)" style="fill:#455a64"/><polygon points="156.55 125.52 151.38 128.61 151.32 127.54 156.5 124.45 156.55 125.52" style="fill:#455a64"/><polygon points="156.66 127.52 151.49 130.62 151.43 129.55 156.6 126.46 156.66 127.52" style="fill:#455a64"/><path d="M329.88,114.08a1.59,1.59,0,1,1-1.67-1.5A1.59,1.59,0,0,1,329.88,114.08Z" style="fill:#455a64"/><rect x="328.45" y="106.12" width="1.21" height="7.98" transform="translate(-5.42 17.75) rotate(-3.06)" style="fill:#455a64"/><rect x="332.3" y="103.85" width="1.21" height="2.31" transform="translate(-5.13 17.92) rotate(-3.06)" style="fill:#455a64"/><polygon points="333.47 104.13 328.3 107.22 328.24 106.16 333.41 103.06 333.47 104.13" style="fill:#455a64"/><polygon points="333.57 106.13 328.4 109.23 328.35 108.16 333.52 105.07 333.57 106.13" style="fill:#455a64"/></g><g id="freepik--Cat--inject-6"><path d="M256.74,420.44c-.31-.09-5.05-.53-6.12-6.92s7-14.63,5.93-24.71-5.34-14.36-9-12.65c-3.9,1.81,0,9.15,1.94,12.92,3.07,5.91-1.36,13.85-2.21,20.2-.79,6,2.2,13.69,8.91,14.62Z" style="fill:#263238"/><path d="M253.08,418.63l.34,4.43a9.12,9.12,0,0,0,2.74.84l.58-3.46A6.83,6.83,0,0,1,253.08,418.63Z" style="fill:#37474f"/><path d="M285,357.53s-5.14-6.24-10.11-7.67c-.42-.12.62,12.92.81,13.57S285,357.53,285,357.53Z" style="fill:#263238"/><path d="M283.32,358.41s-3.91-4.75-7.69-5.83c-.32-.09.47,9.83.61,10.32S283.32,358.41,283.32,358.41Z" style="fill:#37474f"/><path d="M302.41,394.9c-.24,2.71-4.72,26.24-4.75,26.6s2.12,1.44,2.49,2.25.7,2.19.38,2.51-3,.67-3.85.72a21.88,21.88,0,0,1-5.24-1.7c-.57-.36-.63-2.92-.67-3.24s-2.65-18-2.38-19.68S302.41,394.9,302.41,394.9Z" style="fill:#263238"/><path d="M298.79,423.45a3,3,0,0,1,.71.49,2.47,2.47,0,0,1,.46.78,3,3,0,0,1,.17,1,1.27,1.27,0,0,1-.21.81s-.12,0-.1-.06a5,5,0,0,0-.29-1.63,3.27,3.27,0,0,0-.28-.67,1.83,1.83,0,0,0-.5-.64S298.75,423.43,298.79,423.45Z" style="fill:#37474f"/><path d="M296.57,423.81a3.23,3.23,0,0,1,.8.52,2.34,2.34,0,0,1,.55.8,1.75,1.75,0,0,1-.17,1.84s-.07,0-.05,0a1.83,1.83,0,0,0,.06-.9,4.38,4.38,0,0,0-.21-.81,3.85,3.85,0,0,0-.39-.72,2.26,2.26,0,0,0-.63-.64S296.53,423.79,296.57,423.81Z" style="fill:#37474f"/><path d="M289.49,412.94l12.37-14.51c.3-1.74.5-3,.55-3.54,0,0-13.75,5.8-14,7.46C288.25,403.2,288.86,408.19,289.49,412.94Z" style="fill:#37474f"/><path d="M304.11,369.62c-.23-3.25-3.45-16.72-9.82-20.55-1.09-.65-2.5,9.13-2.5,9.13s-5.94-2.16-8.81-2.13-14.12,12.12-14.84,14.85,7,14.17,7,14.17-7.29,6.46-12.9,11.52c-4.06,3.65-8.19,25-7.75,27.29s16,4.09,18.47,3.78,14.59-16.45,20.22-20.93c3-2.4,8-3.45,9.05-10.43S304.4,373.59,304.11,369.62Z" style="fill:#263238"/><path d="M295.36,388.44c0-.05,0-.09.06,0a16.54,16.54,0,0,1,1.88,4.78,10.68,10.68,0,0,1,.28,2.7,4.34,4.34,0,0,1-.24,1.34c-.11.28-.3.59-.64.61s-.57-.45-.71-.76c-.07-.15-.13-.3-.19-.45a6.34,6.34,0,0,1-.3,2.48,5.62,5.62,0,0,1-2.19,3c-.08,0-.16-.06-.1-.12a8.15,8.15,0,0,0,1.87-3,7,7,0,0,0,.18-3.56.15.15,0,0,1,.29-.1,14.69,14.69,0,0,0,.73,1.49l.16.31c.05.09.1.27.23.22s.2-.48.24-.62a8.82,8.82,0,0,0,0-2.9A15.2,15.2,0,0,0,295.36,388.44Z" style="fill:#37474f"/><path d="M290.81,396.56c-.37,1.8-3,26.48-3,26.85s2.21,1.3,2.63,2.09.84,2.13.54,2.48-3,.86-3.79,1a22,22,0,0,1-5.34-1.36c-.59-.33-.82-2.87-.88-3.19s-3.8-17.81-3.63-19.49S290.81,396.56,290.81,396.56Z" style="fill:#263238"/><path d="M289.52,405.71c.2-1.63.48-3.25.7-4.88,0,0,.06,0,.06,0-.06,1.11-.12,2.21-.21,3.31.07-.24.15-.47.21-.71a18.29,18.29,0,0,0,.42-1.81s0,0,0,0a11.61,11.61,0,0,1-.29,1.86,8.72,8.72,0,0,1-.43,1.31c0,.33-.06.66-.1,1a31.46,31.46,0,0,1-.79,4.82,0,0,0,0,1-.07,0A42.16,42.16,0,0,1,289.52,405.71Z" style="fill:#37474f"/><path d="M276.61,408.45c.28.79.58,1.58.91,2.35.11.27.26.55.39.82-.27-1.33-.53-2.66-.76-4,0,0,0-.05.05,0,.62,2.22,1.16,4.46,1.7,6.7.26,1.11.53,2.22.75,3.34a23.52,23.52,0,0,1,.56,3.34,0,0,0,0,1-.07,0,24.07,24.07,0,0,1-.91-3.25c-.28-1.1-.51-2.22-.75-3.34-.15-.7-.29-1.4-.44-2.1-.08-.19-.18-.37-.27-.55-.18-.36-.35-.73-.5-1.1a11.92,11.92,0,0,1-.71-2.19S276.6,408.42,276.61,408.45Z" style="fill:#37474f"/><path d="M289.19,425.34a2.9,2.9,0,0,1,.71.49,2.32,2.32,0,0,1,.46.77,2.76,2.76,0,0,1,.16,1,1.2,1.2,0,0,1-.2.81s-.12,0-.1-.06a5,5,0,0,0-.29-1.63,3.53,3.53,0,0,0-.28-.67,1.82,1.82,0,0,0-.5-.63S289.15,425.31,289.19,425.34Z" style="fill:#37474f"/><path d="M287,425.69a3.23,3.23,0,0,1,.8.52,2.34,2.34,0,0,1,.55.8,1.79,1.79,0,0,1-.17,1.85s-.07,0-.06,0a1.62,1.62,0,0,0,.06-.9,3.84,3.84,0,0,0-.2-.81,4.19,4.19,0,0,0-.39-.72,2.22,2.22,0,0,0-.63-.63A0,0,0,0,1,287,425.69Z" style="fill:#37474f"/><path d="M261.52,408.73c1.71-2.46,13.29-10,17.34-7.23s5,15.31-3.9,24.07a12.74,12.74,0,0,1,3.31.89c.79.53,1.72,2.35,1.36,2.81s-3.6,1.2-4.42,1.24a39.81,39.81,0,0,1-6.7-1.37c-.74-.34-.58-1.72-.58-1.72s-9.92-.51-11.85-2.33S258.89,412.49,261.52,408.73Z" style="fill:#263238"/><path d="M277.45,426.87a3.45,3.45,0,0,1,.71.49,2.65,2.65,0,0,1,.45.78,2.53,2.53,0,0,1,.17,1,1.2,1.2,0,0,1-.2.81s-.12,0-.1-.06a5,5,0,0,0-.29-1.63,3.31,3.31,0,0,0-.29-.67,1.8,1.8,0,0,0-.49-.64S277.41,426.85,277.45,426.87Z" style="fill:#37474f"/><path d="M275.22,427.23a3.12,3.12,0,0,1,.81.52,2.18,2.18,0,0,1,.54.8,1.74,1.74,0,0,1-.16,1.84s-.07,0-.06,0a1.62,1.62,0,0,0,.06-.9,3.84,3.84,0,0,0-.2-.81,4.53,4.53,0,0,0-.39-.72,2.26,2.26,0,0,0-.63-.64C275.14,427.27,275.18,427.21,275.22,427.23Z" style="fill:#37474f"/><path d="M263,407.22a24.11,24.11,0,0,1,3.16-2.65l-.26.09c-.52.21-1,.43-1.54.66a0,0,0,0,1,0-.06,4.08,4.08,0,0,1,1.47-.84,6.45,6.45,0,0,1,.84-.21h0a24.24,24.24,0,0,1,4.17-2.24c2.64-1.12,6.26-2.38,8.57.1a9.29,9.29,0,0,1,1.94,4.06,17.66,17.66,0,0,1,.47,5.12,24.31,24.31,0,0,1-2.84,9.82,11.28,11.28,0,0,1-3.19,3.95,9.89,9.89,0,0,1-2.09,1.21,11.22,11.22,0,0,1-2.35.65s-.06-.06,0-.07a9.92,9.92,0,0,0,3.75-1.79,10.9,10.9,0,0,0,2.89-3.19,24.64,24.64,0,0,0,2-4.5,22.93,22.93,0,0,0,1.14-4.69,17.82,17.82,0,0,0-.05-5,11.63,11.63,0,0,0-1.45-4.32,4.14,4.14,0,0,0-3.37-2.12,12,12,0,0,0-4.43,1,29.22,29.22,0,0,0-8.8,5.1S262.94,407.25,263,407.22Z" style="fill:#37474f"/><path d="M278.16,372.09c0,.25,1.46,1.33,1.64,1.35a5.39,5.39,0,0,0,1.93-.89c.06-.23-1.38-.51-1.74-.55S278.15,371.85,278.16,372.09Z" style="fill:#455a64"/><path d="M283.88,374.86a10.42,10.42,0,0,1-1.15.86,1.88,1.88,0,0,1-1.22.36,1.56,1.56,0,0,1-.94-.76,4.09,4.09,0,0,1-.48-1.23l-.26-1.2-.33,1.18a4.77,4.77,0,0,1-.41,1.05c-.17.32-.41.62-.65.6a.76.76,0,0,1-.41-.22,3.13,3.13,0,0,1-.36-.44,8.18,8.18,0,0,1-.57-1.05,4.91,4.91,0,0,0,.35,1.17,2.19,2.19,0,0,0,.32.55,1,1,0,0,0,.6.4.89.89,0,0,0,.75-.21,1.79,1.79,0,0,0,.44-.52,4.55,4.55,0,0,0,.52-1.17l-.58,0a4,4,0,0,0,.62,1.42,2.17,2.17,0,0,0,.56.57,1.62,1.62,0,0,0,.77.3,1.5,1.5,0,0,0,.8-.17,3,3,0,0,0,.63-.41A5.9,5.9,0,0,0,283.88,374.86Z" style="fill:#455a64"/><path d="M293.4,375.87c2,.1,4,.27,5.92.48s3.92.45,5.87.77c1,.14,1.95.32,2.93.48l2.91.57c1.94.39,3.85.87,5.78,1.34-.94-.3-1.89-.62-2.84-.89s-1.91-.52-2.88-.75c-1.93-.47-3.88-.82-5.84-1.14s-3.93-.54-5.91-.69c-1-.07-2-.12-3-.16S294.39,375.83,293.4,375.87Z" style="fill:#455a64"/><path d="M294.05,377.12c.88.15,1.76.3,2.64.48s1.75.33,2.62.52c1.75.36,3.49.73,5.22,1.16.87.2,1.73.42,2.59.63l2.58.71L311,381l1.28.38c.86.24,1.7.54,2.56.79-1.65-.68-3.33-1.3-5-1.83s-3.43-1-5.17-1.43-3.49-.78-5.25-1.07S295.84,377.26,294.05,377.12Z" style="fill:#455a64"/><path d="M293.41,378.16l2.13.66c.71.22,1.42.45,2.12.69,1.41.47,2.82.94,4.21,1.45s2.79,1,4.18,1.54,2.77,1.08,4.16,1.61c-.66-.34-1.33-.67-2-1s-1.36-.62-2-.91c-1.37-.59-2.76-1.12-4.16-1.63s-2.83-1-4.26-1.36S294.87,378.43,293.41,378.16Z" style="fill:#455a64"/><path d="M299.23,361.94s-1.6-7.81-5.2-10.41c-.27-.19-1.59,7-1.4,7.09A28,28,0,0,1,299.23,361.94Z" style="fill:#37474f"/><path d="M275.68,372.39c-.95-.28-1.91-.5-2.88-.73s-1.94-.39-2.92-.57c-1.95-.34-3.92-.59-5.9-.78S260,370,258,370c-1,0-2,0-3,0s-2,.1-3,.17c2,0,4,0,5.93.12,1,0,2,.1,3,.16s2,.14,3,.25c2,.17,3.92.42,5.88.7S273.74,372,275.68,372.39Z" style="fill:#455a64"/><path d="M274.74,373.43c-1.76-.3-3.54-.48-5.32-.63s-3.57-.2-5.36-.24-3.57,0-5.36.12-3.56.28-5.33.53c.89,0,1.78-.11,2.67-.13l1.34-.06,1.34,0,2.67,0c.89,0,1.78,0,2.67,0,1.78,0,3.56.07,5.34.15l2.67.14Z" style="fill:#455a64"/><path d="M275.11,374.6c-1.48-.09-3-.08-4.46,0s-3,.14-4.47.28-3,.32-4.43.56c-.74.11-1.47.25-2.2.38s-1.46.3-2.19.46c1.48-.17,2.95-.37,4.43-.54s2.95-.32,4.43-.46,3-.26,4.44-.38l2.23-.14Z" style="fill:#455a64"/><path d="M289.26,367c2.95.21,4.27,2.57,4.09,5.21a4.44,4.44,0,0,1-4.87,4,4.72,4.72,0,0,1-4.26-4.89A4.66,4.66,0,0,1,289.26,367Z" style="fill:#263238"/><path d="M288.94,367.55c2.77.19,4,2.41,3.84,4.89a4.17,4.17,0,0,1-4.58,3.77,4.44,4.44,0,0,1-4-4.6A4.37,4.37,0,0,1,288.94,367.55Z" style="fill:#FFC727"/><path d="M288.48,367.91c2.16.15,3.14,1.89,3,3.83a3.25,3.25,0,0,1-3.58,2.95,3.48,3.48,0,0,1-3.14-3.6A3.44,3.44,0,0,1,288.48,367.91Z" style="fill:#263238"/><path d="M276.3,363.85c-2.22-.75-4,.94-4.85,3.35-.66,1.95,0,4.39,2.12,5.11s4.23-1.18,4.85-3S278.71,364.66,276.3,363.85Z" style="fill:#263238"/><path d="M276.34,364.43c-2.08-.71-3.79.88-4.55,3.15-.62,1.83,0,4.13,2,4.8s4-1.11,4.57-2.83S278.61,365.19,276.34,364.43Z" style="fill:#FFC727"/><path d="M276,364.65c-1.64-.55-3,.69-3.57,2.46a2.89,2.89,0,0,0,1.55,3.77c1.57.52,3.12-.87,3.58-2.22S277.74,365.25,276,364.65Z" style="fill:#263238"/></g><g id="freepik--character-2--inject-6"><path d="M285.58,446c2.2.7,64.76-.11,67.12-1.65.91-.57,1.32-9.7,1.51-20.73v-.35c0-2.27.07-4.62.07-7,0-.33,0-.65,0-1,.08-15.93-.17-32.46-.17-32.46l-41.85.42,1.26,32.15,0,1.28.25,6.65,0,.69s-23.8,11-26.22,13S283.39,445.3,285.58,446Z" style="fill:#f7a9a0"/><path d="M304.38,428.31c.17-.05.25-.1.26-.15Z" style="fill:#FFC727"/><path d="M284.62,445.87c2.26.73,66.74-.11,69.17-1.71.38-.23.69-10.75.94-23.15H313.67l.09,2.21s-24.54,11.36-27,13.39S282.35,445.14,284.62,445.87Z" style="fill:#FFC727"/><path d="M353.52,421.46a3.81,3.81,0,0,0,0,2.66,3.29,3.29,0,0,0,.24-1.33A3.5,3.5,0,0,0,353.52,421.46Z" style="opacity:0.1"/><path d="M351.48,421.46a3.81,3.81,0,0,0,0,2.66,3.48,3.48,0,0,0,.25-1.33A3.52,3.52,0,0,0,351.48,421.46Z" style="opacity:0.1"/><path d="M349.44,421.46a3.81,3.81,0,0,0,0,2.66,3.48,3.48,0,0,0,.25-1.33A3.52,3.52,0,0,0,349.44,421.46Z" style="opacity:0.1"/><path d="M347.4,421.46a3.81,3.81,0,0,0,0,2.66,3.48,3.48,0,0,0,.25-1.33A3.52,3.52,0,0,0,347.4,421.46Z" style="opacity:0.1"/><path d="M345.36,421.46a3.81,3.81,0,0,0,0,2.66,3.48,3.48,0,0,0,.25-1.33A3.52,3.52,0,0,0,345.36,421.46Z" style="opacity:0.1"/><path d="M343.32,421.46a3.81,3.81,0,0,0,0,2.66,3.48,3.48,0,0,0,.25-1.33A3.52,3.52,0,0,0,343.32,421.46Z" style="opacity:0.1"/><path d="M341.28,421.46a3.81,3.81,0,0,0,0,2.66,3.48,3.48,0,0,0,.25-1.33A3.52,3.52,0,0,0,341.28,421.46Z" style="opacity:0.1"/><path d="M339.24,421.46a3.81,3.81,0,0,0,0,2.66,3.48,3.48,0,0,0,.25-1.33A3.52,3.52,0,0,0,339.24,421.46Z" style="opacity:0.1"/><path d="M337.2,421.46a3.81,3.81,0,0,0,0,2.66,3.48,3.48,0,0,0,.25-1.33A3.52,3.52,0,0,0,337.2,421.46Z" style="opacity:0.1"/><path d="M335.16,421.46a3.81,3.81,0,0,0,0,2.66,3.48,3.48,0,0,0,.25-1.33A3.52,3.52,0,0,0,335.16,421.46Z" style="opacity:0.1"/><path d="M333.12,421.46a3.81,3.81,0,0,0,0,2.66,3.48,3.48,0,0,0,.25-1.33A3.52,3.52,0,0,0,333.12,421.46Z" style="opacity:0.1"/><path d="M331.08,421.46a3.81,3.81,0,0,0,0,2.66,3.48,3.48,0,0,0,.25-1.33A3.52,3.52,0,0,0,331.08,421.46Z" style="opacity:0.1"/><path d="M329,421.46a3.81,3.81,0,0,0,0,2.66,3.3,3.3,0,0,0,.25-1.33A3.52,3.52,0,0,0,329,421.46Z" style="opacity:0.1"/><path d="M327,421.46a3.81,3.81,0,0,0,0,2.66,3.3,3.3,0,0,0,.25-1.33A3.52,3.52,0,0,0,327,421.46Z" style="opacity:0.1"/><path d="M325,421.46a3.81,3.81,0,0,0,0,2.66,3.3,3.3,0,0,0,.25-1.33A3.52,3.52,0,0,0,325,421.46Z" style="opacity:0.1"/><path d="M322.92,421.46a3.81,3.81,0,0,0,0,2.66,3.3,3.3,0,0,0,.25-1.33A3.52,3.52,0,0,0,322.92,421.46Z" style="opacity:0.1"/><path d="M320.88,421.46a3.81,3.81,0,0,0,0,2.66,3.66,3.66,0,0,0,0-2.66Z" style="opacity:0.1"/><path d="M318.84,421.46a3.81,3.81,0,0,0,0,2.66,3.66,3.66,0,0,0,0-2.66Z" style="opacity:0.1"/><path d="M316.81,421.46a3.52,3.52,0,0,0-.25,1.33,3.3,3.3,0,0,0,.25,1.33,3.81,3.81,0,0,0,0-2.66Z" style="opacity:0.1"/><path d="M314.77,421.46a3.52,3.52,0,0,0-.25,1.33,3.3,3.3,0,0,0,.25,1.33,3.81,3.81,0,0,0,0-2.66Z" style="opacity:0.1"/><path d="M292.5,433.72a15.92,15.92,0,0,1,9.64,4,11.75,11.75,0,0,1,2.82,4,9.72,9.72,0,0,1,.63,2.18c.07.45.33,1.38-.17,1.68-.05,0-.13,0-.11-.09.13-.32-.08-.84-.18-1.17s-.26-.73-.4-1.07a12.46,12.46,0,0,0-1-1.84,13.4,13.4,0,0,0-2.91-3.28,25.65,25.65,0,0,0-8.37-4.2A.09.09,0,0,1,292.5,433.72Z" style="opacity:0.1"/><path d="M343.71,434.93a13.84,13.84,0,0,1,4.86-2.77,15,15,0,0,1,2.65-.6,9.59,9.59,0,0,1,2.83,0,.08.08,0,0,1,0,.16c-.86.15-1.72.19-2.57.4a17.88,17.88,0,0,0-2.6.83,15.92,15.92,0,0,0-4.39,2.8,15.32,15.32,0,0,0-5,8.85c0,.23-.39.23-.37,0A14.25,14.25,0,0,1,343.71,434.93Z" style="opacity:0.1"/><path d="M376.53,201S357.58,306.7,356.05,314.77c-.36,1.84-.58,11.83-.72,24.67-.23,19.44-.13,59.92-.13,59.92H311.1s1.76-72.66,3.26-85c1.95-16.13,24-113.33,24-113.33Z" style="fill:#455a64"/><path d="M350.28,304.37q1.8-9.37,3.67-18.73c2.47-12.35,4.92-24.71,7.56-37s5.47-24.71,8.3-37c.35-1.54.7-3.07,1.07-4.6,0-.15.26-.08.23.07-5.17,24.67-10.48,49.31-15.38,74q-1.83,9.27-3.61,18.55c-1.15,6-2.52,12-2.93,18.13s.61,60.53-.1,72.77c0,.11-.19.13-.2,0-.31-10.39-.88-61.86-.82-68.12A98.84,98.84,0,0,1,350.28,304.37Z" style="fill:#263238"/><path d="M341.45,201l17.19,99.54c5.58-30.86,17.89-99.54,17.89-99.54Z" style="fill:#263238"/><path d="M391.11,442.15c2.31,0,61.39-20.62,63.14-22.83.68-.83-.91-9.94-5.14-20.14-2-4.78-17.51-35.56-17.51-35.56l-37.89,13.57,17,34.52.24.64s-19.09,18-20.76,20.63S388.81,442.18,391.11,442.15Z" style="fill:#f7a9a0"/><path d="M402.42,419.64c.12-.09.19-.16.19-.2Z" style="fill:#FFC727"/><path d="M390.78,443.68c2.37-.06,62.88-22.37,64.64-24.68.28-.35-2.93-10.37-6.84-22.14l-38.7,13.7.82,2.05s-19.35,18.89-21,21.64S388.4,443.75,390.78,443.68Z" style="fill:#FFC727"/><path d="M447.59,397.69a3.44,3.44,0,0,0,.22,1.33,3.29,3.29,0,0,0,.67,1.17,3.44,3.44,0,0,0-.21-1.33A3.38,3.38,0,0,0,447.59,397.69Z" style="opacity:0.1"/><path d="M445.67,398.37a3.44,3.44,0,0,0,.21,1.33,3.38,3.38,0,0,0,.68,1.17,3.44,3.44,0,0,0-.22-1.33A3.21,3.21,0,0,0,445.67,398.37Z" style="opacity:0.1"/><path d="M443.75,399.05a3.44,3.44,0,0,0,.21,1.33,3.36,3.36,0,0,0,.67,1.17,3.26,3.26,0,0,0-.21-1.33A3.62,3.62,0,0,0,443.75,399.05Z" style="opacity:0.1"/><path d="M441.82,399.73a3.44,3.44,0,0,0,.22,1.33,3.21,3.21,0,0,0,.67,1.17,3.44,3.44,0,0,0-.21-1.33A3.48,3.48,0,0,0,441.82,399.73Z" style="opacity:0.1"/><path d="M439.9,400.41a3.64,3.64,0,0,0,.21,1.33,3.38,3.38,0,0,0,.68,1.17,3.44,3.44,0,0,0-.22-1.33A3.29,3.29,0,0,0,439.9,400.41Z" style="opacity:0.1"/><path d="M438,401.09a3.44,3.44,0,0,0,.21,1.33,3.52,3.52,0,0,0,.67,1.17,3.26,3.26,0,0,0-.21-1.33A3.45,3.45,0,0,0,438,401.09Z" style="opacity:0.1"/><path d="M436.06,401.77a3.26,3.26,0,0,0,.21,1.33,3.21,3.21,0,0,0,.67,1.17,3.44,3.44,0,0,0-.21-1.33A3.62,3.62,0,0,0,436.06,401.77Z" style="opacity:0.1"/><path d="M434.13,402.45a3.44,3.44,0,0,0,.22,1.33A3.21,3.21,0,0,0,435,405a3.64,3.64,0,0,0-.21-1.33A3.48,3.48,0,0,0,434.13,402.45Z" style="opacity:0.1"/><path d="M432.21,403.13a3.44,3.44,0,0,0,.21,1.33,3.38,3.38,0,0,0,.68,1.17,3.44,3.44,0,0,0-.22-1.33A3.38,3.38,0,0,0,432.21,403.13Z" style="opacity:0.1"/><path d="M430.29,403.81a3.44,3.44,0,0,0,.21,1.33,3.36,3.36,0,0,0,.67,1.17A3.26,3.26,0,0,0,431,405,3.73,3.73,0,0,0,430.29,403.81Z" style="opacity:0.1"/><path d="M428.36,404.49a3.53,3.53,0,0,0,.22,1.34,3.25,3.25,0,0,0,.67,1.16,3.44,3.44,0,0,0-.21-1.33A3.58,3.58,0,0,0,428.36,404.49Z" style="opacity:0.1"/><path d="M426.44,405.17a3.69,3.69,0,0,0,.21,1.34,3.44,3.44,0,0,0,.68,1.16,3.44,3.44,0,0,0-.22-1.33A3.38,3.38,0,0,0,426.44,405.17Z" style="opacity:0.1"/><path d="M424.52,405.85a3.49,3.49,0,0,0,.21,1.34,3.73,3.73,0,0,0,.67,1.17,3.28,3.28,0,0,0-.21-1.34A3.55,3.55,0,0,0,424.52,405.85Z" style="opacity:0.1"/><path d="M422.6,406.53a3.31,3.31,0,0,0,.21,1.34,3.38,3.38,0,0,0,.67,1.17,3.46,3.46,0,0,0-.21-1.34A3.73,3.73,0,0,0,422.6,406.53Z" style="opacity:0.1"/><path d="M420.67,407.21a3.69,3.69,0,0,0,.21,1.34,3.58,3.58,0,0,0,.68,1.17,3.69,3.69,0,0,0-.21-1.34A3.58,3.58,0,0,0,420.67,407.21Z" style="opacity:0.1"/><path d="M418.75,407.89a3.46,3.46,0,0,0,.21,1.34,3.73,3.73,0,0,0,.67,1.17,3.31,3.31,0,0,0-.21-1.34A3.38,3.38,0,0,0,418.75,407.89Z" style="opacity:0.1"/><path d="M416.83,408.58a3.26,3.26,0,0,0,.21,1.33,3.38,3.38,0,0,0,.67,1.17,3.49,3.49,0,0,0-.21-1.34A3.58,3.58,0,0,0,416.83,408.58Z" style="opacity:0.1"/><path d="M414.9,409.26a3.44,3.44,0,0,0,.22,1.33,3.38,3.38,0,0,0,.67,1.17,3.49,3.49,0,0,0-.21-1.34A3.44,3.44,0,0,0,414.9,409.26Z" style="opacity:0.1"/><path d="M413,409.94a3.44,3.44,0,0,0,.21,1.33,3.58,3.58,0,0,0,.68,1.17,3.44,3.44,0,0,0-.22-1.33A3.21,3.21,0,0,0,413,409.94Z" style="opacity:0.1"/><path d="M411.06,410.62a3.44,3.44,0,0,0,.21,1.33,3.62,3.62,0,0,0,.67,1.17,3.26,3.26,0,0,0-.21-1.33A3.52,3.52,0,0,0,411.06,410.62Z" style="opacity:0.1"/><path d="M394.15,429.6a16,16,0,0,1,10.43.54,11.52,11.52,0,0,1,4,2.82,9.22,9.22,0,0,1,1.32,1.84c.22.4.77,1.19.4,1.64a.07.07,0,0,1-.13,0c0-.36-.36-.77-.56-1s-.48-.6-.74-.88a11.93,11.93,0,0,0-1.53-1.4,13.51,13.51,0,0,0-3.84-2.13,25.9,25.9,0,0,0-9.3-1.16C394.08,429.78,394.05,429.62,394.15,429.6Z" style="opacity:0.1"/><path d="M442.84,413.65a13.83,13.83,0,0,1,3.65-4.22,13.47,13.47,0,0,1,2.3-1.45,9.57,9.57,0,0,1,2.67-1,.08.08,0,0,1,.05.15c-.76.43-1.55.75-2.28,1.24a15.36,15.36,0,0,0-5.38,5.74,15.34,15.34,0,0,0-1.73,10c0,.22-.29.35-.35.11A14.23,14.23,0,0,1,442.84,413.65Z" style="opacity:0.1"/><path d="M398.66,389.82l41.55-13.69s-35.13-56.44-36.13-62.44c-1.46-8.72-5.7-43.09-9.26-72.61,0,0,6.75-16-5.87-40.13H338.31s3.4,23,9.2,37.54a68.19,68.19,0,0,1,11.26,5.14s4.18,67.19,4.37,75.4C363.43,331.78,398.66,389.82,398.66,389.82Z" style="fill:#455a64"/><path d="M373.38,204.22a.17.17,0,0,1,.2,0c.26.12.34.6.44.84.2.55.42,1.09.62,1.64.41,1.1.79,2.2,1.2,3.3a16,16,0,0,0,2.81,5.47,15.71,15.71,0,0,0,4.5,3.2,37.86,37.86,0,0,0,6.23,2c.17.05.14.34-.05.32-1.08-.13-2.16-.39-3.23-.62a28,28,0,0,1-3.12-.8,12.23,12.23,0,0,1-4.94-2.89,11.81,11.81,0,0,1-2.82-5.34c-.31-1.11-.59-2.22-.9-3.32-.15-.56-.31-1.12-.46-1.69l-.24-1c0-.13-.21-.54-.15-.74C373.28,204.59,373.18,204.43,373.38,204.22Z" style="fill:#263238"/><path d="M387.33,204.08a49.28,49.28,0,0,1,5.33,32.58,42.64,42.64,0,0,0-.81,9.63c.16,3.24.59,6.48.94,9.71q1,9.71,2.06,19.41c1.38,13,2.73,29,4.24,39.07.12.86,27.92,51.4,30.77,56.49.05.09-.1.12-.15,0-7.38-11.16-30.87-53.63-31.34-56-2.15-11-2.45-22.33-3.64-33.5q-1-9.71-2.06-19.41c-.35-3.24-.68-6.47-1-9.71a64,64,0,0,1-.54-9.59c.14-3.09.93-6.08,1.31-9.13a48.06,48.06,0,0,0,.3-8.48,49.23,49.23,0,0,0-3.94-16.94c-.57-1.33-1.2-2.63-1.87-3.91A.24.24,0,0,1,387.33,204.08Z" style="fill:#263238"/><path d="M345.59,237.5a83.91,83.91,0,0,1,13.18,6.13.15.15,0,0,1-.12.27c-4.44-1.9-9-3.73-13.3-5.87A.29.29,0,0,1,345.59,237.5Z" style="fill:#263238"/><path d="M344.18,207c0-.15.28-.19.28,0a147.92,147.92,0,0,0,.75,14.83c.2,2.29,2,14.93,6,14,.66-.16,1-.81,1.11-1.81a16.11,16.11,0,0,0-.53-3.88c-.44-2.64-.79-5.3-1-8a71.83,71.83,0,0,1,.16-14.95c0-.16.26-.15.25,0a138.22,138.22,0,0,0,1.21,20.64c.5,3.29,2.15,8.24-1.28,8.74s-5.77-7.77-6.2-10A75.81,75.81,0,0,1,344.18,207Z" style="fill:#263238"/><path d="M351.11,236.19a20.2,20.2,0,0,1,.89,2.62,6.13,6.13,0,0,1,.38,2.15c0,.14-.2.15-.28.06a7.75,7.75,0,0,1-.92-2.1c-.3-.81-.62-1.61-.9-2.43A.44.44,0,0,1,351.11,236.19Z" style="fill:#263238"/><path d="M358,110.35c6.68,4.18,10.28,12.75,10.28,12.75s7.27,7.8,6.92,13a9.13,9.13,0,0,1-4.29,7.31l-.09-2.82s-1,3.87-6.5,6.6-13.69,2.69-18.18,1.57a15.82,15.82,0,0,1-7.1-3.86l2.4,3.58a11.94,11.94,0,0,1-10.48-4.18c-4.75-5.27,3-16.17,3.36-18.23s-1.66-15.93,13.22-16.85C347.52,109.22,353.38,107.47,358,110.35Z" style="fill:#263238"/><path d="M372.89,142.58a9.28,9.28,0,0,0,2.88-4.83,8.54,8.54,0,0,0-.31-5.58,18.86,18.86,0,0,0-4.08-5.44c-1.61-1.7-3.36-3.28-4.94-5-.09-.1.05-.23.15-.16a52.07,52.07,0,0,1,4.63,3.89,24.57,24.57,0,0,1,3.92,4.17,9.29,9.29,0,0,1,1.8,4.87,9,9,0,0,1-.93,4.18,19,19,0,0,1-3,4C372.92,142.77,372.81,142.65,372.89,142.58Z" style="fill:#263238"/><path d="M328.32,138.36c.57-5.42,4.36-9.63,6.11-14.63.95-2.71,1.5-5.6,3-8.1,0-.06.15,0,.12.07-1.17,2.22-1.58,4.65-2.25,7a37.21,37.21,0,0,1-2.92,6.89c-2.06,4.06-4.55,8.86-2.81,13.49.8,2.13,2.66,4.27,5.07,4.45.1,0,.08.16,0,.14a7.25,7.25,0,0,1-4.84-3.06A9.17,9.17,0,0,1,328.32,138.36Z" style="fill:#263238"/><path d="M328.42,139.76a9.45,9.45,0,0,1,0-5.74,13.38,13.38,0,0,1,3.23-4.75c1.52-1.61,3.16-3.17,3.87-5.32,0-.09.16,0,.13,0-1.1,3.54-4.2,5.77-5.93,8.93-2,3.61-1,8,1.63,11a15.51,15.51,0,0,0,6,4.13s0,.07,0,.06C333.41,146.65,329.65,143.91,328.42,139.76Z" style="fill:#263238"/><path d="M353.31,157.22c-4.23,7.29-28.81,33.76-41.85,34.12-8.7.24-26.07-23.24-28.23-26.9-1.21-2.05,21-20.1,23.16-17.14,5.73,7.94,9.83,18.75,11.8,18,6.58-2.46,14.1-8.69,26.38-14.35C353.13,147,358,149.16,353.31,157.22Z" style="fill:#f7a9a0"/><path d="M276.46,151.72c1.32,5.95,8.78,17.07,11.61,19.05s22.14-10.06,22.5-13.59-5.64-23.22-10.49-27.12S275.09,145.56,276.46,151.72Z" style="fill:#f7a9a0"/><polygon points="307.04 123.8 278.56 146.51 283.28 152.86 313.24 132.15 307.04 123.8" style="fill:#263238"/><path d="M322.24,119h0a8.24,8.24,0,0,1-1.7,11.52l-2.29,1.7a7.71,7.71,0,0,1-10.79-1.59l-.62-.84A7.71,7.71,0,0,1,308.43,119l2.28-1.7A8.25,8.25,0,0,1,322.24,119Z" style="fill:#a6a6a6"/><rect x="305.36" y="124.09" width="17.52" height="1.79" transform="translate(401.13 451.67) rotate(-126.61)" style="fill:#c7c7c7"/><path d="M306.33,137.55c-1,3.06-4.05.09-4.05.09s3.31,5.32,1,8.06-5.73-1.07-6-1.34c.17.29,3.08,5.25.51,7.77s-5.58-1.72-5.76-2c.08.32,1.05,4.55-1.34,6-4.12,2.52-6.91-8.22-10.36-10.06,0,0-3.78,5.5-3.92,5.63s-2.87-10.16-.13-14.67a3.37,3.37,0,0,1,3.94-1.51s-1.28-3.17.69-5.22c1-1,3.59-.36,3.59-.36a4.21,4.21,0,0,1,.94-4.3c1.48-1.37,3.84-.47,3.84-.47s.26-2.89,2.23-3.8C295.53,119.55,308.54,131,306.33,137.55Z" style="fill:#f7a9a0"/><path d="M289.72,125.28s0-.11,0-.08a30,30,0,0,1,12.69,12.58c.09.18-.16.39-.29.22A61,61,0,0,0,289.72,125.28Z" style="fill:#263238"/><path d="M284.51,129.88c-.06,0,0-.14.07-.1a28.11,28.11,0,0,1,13,14.59c.08.22-.07.5-.18.25C295.53,140.45,289,133.2,284.51,129.88Z" style="fill:#263238"/><path d="M292.08,150.64c-2.45-6.1-6.61-10.79-11.58-15-.06,0,0-.14.09-.11,3,1.4,5.88,4.41,7.92,6.95a17.26,17.26,0,0,1,3.79,8.07C292.32,150.67,292.14,150.77,292.08,150.64Z" style="fill:#263238"/><path d="M302.28,137.64A20,20,0,0,1,303.6,141a6.69,6.69,0,0,1,.2,3.45,2.2,2.2,0,0,1-.92,1.26,3.25,3.25,0,0,1-1.52.49,3.89,3.89,0,0,1-2.84-1.37l-1.79-1.94,1,2.45a10.91,10.91,0,0,1,.82,3.41,3.87,3.87,0,0,1-.91,3,2.21,2.21,0,0,1-2.75.47,6.75,6.75,0,0,1-2.37-2.38l-1.68-2.65.72,3a10.15,10.15,0,0,1,.27,2.58,4.14,4.14,0,0,1-.66,2.33,2,2,0,0,1-1.93.83,4.41,4.41,0,0,1-2.06-1.36,35.53,35.53,0,0,1-3.25-4.36c-.52-.76-1-1.53-1.59-2.26a6.59,6.59,0,0,0-2-1.93,7.16,7.16,0,0,1,1.76,2.07c.49.77.95,1.57,1.41,2.36a29.56,29.56,0,0,0,3.08,4.63,5.19,5.19,0,0,0,2.42,1.71,2.83,2.83,0,0,0,2.9-1.11,5.19,5.19,0,0,0,.9-2.86,11.16,11.16,0,0,0-.26-2.88l-1,.39a7.82,7.82,0,0,0,2.77,2.83,3.17,3.17,0,0,0,2.15.35,3.6,3.6,0,0,0,1.87-1.05,4.89,4.89,0,0,0,1.15-3.84,11.72,11.72,0,0,0-1-3.74l-.79.51a4.65,4.65,0,0,0,3.59,1.5,3.94,3.94,0,0,0,1.86-.7,2.8,2.8,0,0,0,1.1-1.66,6.76,6.76,0,0,0-.46-3.69A15.57,15.57,0,0,0,302.28,137.64Z" style="fill:#263238"/><path d="M310.14,153.64s4.78-25.41-6.07-22.41c-3.22.89-15.4,8.39-13.94,10.87,1.89,3.19,7.56,1,10.9-.93,0,0-2.85,8.42,2.42,12.14A6.41,6.41,0,0,0,310.14,153.64Z" style="fill:#f7a9a0"/><path d="M305,131a13.59,13.59,0,0,0-3.77,1.15,29.24,29.24,0,0,0-3.5,1.85,44.89,44.89,0,0,0-6.43,4.63,7.32,7.32,0,0,0-1.38,1.58,2.64,2.64,0,0,0-.41,1.13,1.92,1.92,0,0,0,0,.67,1.89,1.89,0,0,0,.24.6,3.27,3.27,0,0,0,1.82,1.43,6,6,0,0,0,2.14.26,11.93,11.93,0,0,0,4-1,28.39,28.39,0,0,0,3.57-1.8l-.66-.55a16.24,16.24,0,0,0-.58,3,14.42,14.42,0,0,0,0,3,9.75,9.75,0,0,0,.75,2.91,7.51,7.51,0,0,0,1.64,2.47A9,9,0,0,1,301,149.8a10.54,10.54,0,0,1-.46-2.84,13.8,13.8,0,0,1,.18-2.87,14.9,14.9,0,0,1,.71-2.76l.4-1.11-1.06.56a29.73,29.73,0,0,1-3.49,1.62,11.54,11.54,0,0,1-3.64.85,3.22,3.22,0,0,1-3-1.14c-.51-.73.4-1.84,1.29-2.69s1.94-1.68,3-2.49,2.06-1.58,3.13-2.32A25.15,25.15,0,0,1,305,131Z" style="fill:#263238"/><path d="M339.35,176.3l-14.83-17.44s17.78-7.94,23.91-10.25,13-.29,4.08,12.11S339.35,176.3,339.35,176.3Z" style="fill:#FFC727"/><path d="M349.62,163.45a1.41,1.41,0,0,1-.65.34,1.35,1.35,0,0,1-1.26-.36,1.62,1.62,0,0,0-1.78-.32c-.59.28-.83.81-1.17,1.24.24-.15.45-.33.67-.49a1.57,1.57,0,0,1,.64-.37,1.33,1.33,0,0,1,1.27.32,1.63,1.63,0,0,0,1.76.37c.61-.25.86-.79,1.19-1.22A8.22,8.22,0,0,0,349.62,163.45Zm-10.29-7.67a1.41,1.41,0,0,1-.7-.21,1.35,1.35,0,0,1-.64-1.15,1.62,1.62,0,0,0-.58-1.22l-.48.2a1.27,1.27,0,0,1,.53,1,1.61,1.61,0,0,0,1,1.5,3,3,0,0,0,1.71,0C339.87,155.85,339.6,155.82,339.33,155.78Z" style="fill:#fff"/><path d="M329.59,158.21a35.65,35.65,0,0,1,3,3.26c1,1.12,1.92,2.25,2.87,3.38s1.9,2.29,2.83,3.46,1.83,2.44,2.74,3.66c.06.07-.05.17-.11.1-1-1.09-2-2.14-3-3.26s-1.91-2.25-2.86-3.38-1.9-2.3-2.83-3.46a37.53,37.53,0,0,1-2.73-3.67A.07.07,0,0,1,329.59,158.21Z" style="fill:#263238"/><path d="M355.91,148.93c1.59,1.67,1.23,5.32-3.4,11.79-8.88,12.4-13.16,15.58-13.16,15.58l-8.25-9.71Z" style="opacity:0.1"/><path d="M338.31,201l51.46.78s-11.69-39.47-24-51.4c-5.59-5.43-10.75-4.31-15-.44-1.06,1-14.26,16.64-15.12,22.73-.77,5.38,3.56,11.28,3.56,11.28Z" style="fill:#FFC727"/><path d="M373.78,196.36a1.44,1.44,0,0,1-.7-.21,1.32,1.32,0,0,1-.63-1.15,1.63,1.63,0,0,0-1-1.48,3.39,3.39,0,0,0-1.71,0c.28.06.55.09.82.13a1.48,1.48,0,0,1,.72.19,1.34,1.34,0,0,1,.67,1.12,1.63,1.63,0,0,0,1,1.51,3.06,3.06,0,0,0,1.7,0C374.33,196.43,374.06,196.41,373.78,196.36Zm-8.18-27.8a1.26,1.26,0,0,1-.7-.21,1.32,1.32,0,0,1-.63-1.15,1.63,1.63,0,0,0-1-1.48,3.39,3.39,0,0,0-1.71.05c.28.06.55.09.82.13a1.48,1.48,0,0,1,.72.19,1.34,1.34,0,0,1,.67,1.12,1.63,1.63,0,0,0,1,1.51,3.06,3.06,0,0,0,1.7,0C366.15,168.63,365.88,168.61,365.6,168.56Zm-29.42,4.84a1.59,1.59,0,0,1-.56-.14c0,.13,0,.26,0,.39a4.25,4.25,0,0,0,1.39-.12C336.73,173.47,336.45,173.45,336.18,173.4ZM364,148.82c-.06.27-.09.55-.13.82a1.47,1.47,0,0,1-.19.71,1.3,1.3,0,0,1-1.12.67,1.63,1.63,0,0,0-1.51,1,3.19,3.19,0,0,0,0,1.71c.07-.27.09-.55.14-.82a1.26,1.26,0,0,1,.21-.7,1.32,1.32,0,0,1,1.15-.63,1.62,1.62,0,0,0,1.48-1A3.35,3.35,0,0,0,364,148.82Zm-10.66,28.4c-.06.28-.08.55-.13.82a1.48,1.48,0,0,1-.19.72,1.33,1.33,0,0,1-1.12.67,1.63,1.63,0,0,0-1.51,1,3.06,3.06,0,0,0,0,1.7c.06-.27.09-.54.13-.81a1.48,1.48,0,0,1,.21-.71,1.33,1.33,0,0,1,1.15-.63,1.61,1.61,0,0,0,1.48-1A3.39,3.39,0,0,0,353.32,177.22Zm-3.7-13.77a1.41,1.41,0,0,1-.65.34,1.35,1.35,0,0,1-1.26-.36,1.62,1.62,0,0,0-1.78-.32c-.59.28-.83.81-1.17,1.24.24-.15.45-.33.67-.49a1.57,1.57,0,0,1,.64-.37,1.33,1.33,0,0,1,1.27.32,1.63,1.63,0,0,0,1.76.37c.61-.25.86-.79,1.19-1.22A8.22,8.22,0,0,0,349.62,163.45Zm6.48,30.68a1.43,1.43,0,0,1-.65.35,1.33,1.33,0,0,1-1.26-.37,1.62,1.62,0,0,0-1.78-.32,3.54,3.54,0,0,0-1.17,1.24,8.22,8.22,0,0,0,.67-.49,1.69,1.69,0,0,1,.64-.37,1.33,1.33,0,0,1,1.27.32,1.65,1.65,0,0,0,1.76.38c.61-.26.86-.8,1.19-1.23C356.53,193.79,356.32,194,356.1,194.13Zm33.48,7a1.26,1.26,0,0,1-1-.38,1.62,1.62,0,0,0-1.78-.32c-.59.28-.83.81-1.17,1.24.24-.15.45-.33.67-.49a1.57,1.57,0,0,1,.64-.37,1.33,1.33,0,0,1,1.27.32,1.65,1.65,0,0,0,1.52.45Zm-18.09-19.2a1.32,1.32,0,0,1-.65.34,1.3,1.3,0,0,1-1.26-.36,1.62,1.62,0,0,0-1.78-.32c-.6.29-.83.81-1.17,1.24.24-.15.45-.33.67-.49a1.57,1.57,0,0,1,.64-.37,1.33,1.33,0,0,1,1.27.32,1.63,1.63,0,0,0,1.76.37c.61-.25.86-.79,1.19-1.22A8.22,8.22,0,0,0,371.49,181.91Zm-30.91,4.22a1.43,1.43,0,0,1-.65.35,1.35,1.35,0,0,1-.82-.07l0,.53a1.49,1.49,0,0,0,1-.07c.62-.26.86-.8,1.19-1.22C341,185.8,340.8,186,340.58,186.13Z" style="fill:#fff"/><path d="M354.91,179.5a47.06,47.06,0,0,0-6.8.9c-1.11.25-2.21.55-3.3.87-.54.16-1.09.31-1.64.45a7.34,7.34,0,0,1-1.75.27,0,0,0,0,0,0,.08,13.46,13.46,0,0,0,1.68,0,12.53,12.53,0,0,0,1.61-.25c1.13-.24,2.24-.53,3.37-.79,2.27-.51,4.54-1,6.85-1.36C355,179.67,355,179.49,354.91,179.5Z" style="fill:#263238"/><path d="M360.48,181.69a51,51,0,0,0-5.65-.44c-.94,0-1.88,0-2.82.08l-1.35.11c-.5.05-1,.16-1.48.2a0,0,0,0,0,0,.08c.47,0,.94,0,1.41,0H352l2.82,0c1.89,0,3.77,0,5.65.07C360.58,181.85,360.57,181.71,360.48,181.69Z" style="fill:#263238"/><path d="M367.65,149.66c16.9,5.55,40,16.37,46.16,23.6,4.43,5.23-8.89,26.4-17.49,38.07-2.08,2.83-24.6-15.87-22.07-18.64,6.07-6.62,11.64-11.52,10.51-11.87s-12.14-10.58-22.65-21.31C350.59,147.75,361,147.49,367.65,149.66Z" style="fill:#f7a9a0"/><path d="M375.81,174.69l13.45-18.53s-18.33-6.56-24.63-8.39-12.94.7-3.14,12.39S375.81,174.69,375.81,174.69Z" style="fill:#FFC727"/><path d="M364,148.82c-.06.27-.09.55-.13.82a1.47,1.47,0,0,1-.19.71,1.3,1.3,0,0,1-1.12.67,1.63,1.63,0,0,0-1.51,1,3.19,3.19,0,0,0,0,1.71c.07-.27.09-.55.14-.82a1.26,1.26,0,0,1,.21-.7,1.32,1.32,0,0,1,1.15-.63,1.62,1.62,0,0,0,1.48-1A3.35,3.35,0,0,0,364,148.82Zm21.12,11.59a1.36,1.36,0,0,1-.64.35,1.33,1.33,0,0,1-1.26-.37,1.62,1.62,0,0,0-1.78-.32c-.6.29-.83.81-1.17,1.24.24-.15.45-.32.67-.48a1.41,1.41,0,0,1,.64-.37,1.32,1.32,0,0,1,1.27.31,1.63,1.63,0,0,0,1.76.38c.61-.26.86-.8,1.19-1.23C385.54,160.07,385.33,160.25,385.1,160.41Z" style="fill:#fff"/><path d="M377.41,172.48a23.31,23.31,0,0,0-1.57,2.13c-1.2-1.12-2.29-2.4-3.44-3.57s-2.39-2.44-3.59-3.64c-2.41-2.41-4.75-4.87-7.23-7.2,0,0-.12,0-.08.06a66.17,66.17,0,0,0,4.84,5.72c-.84-.63-1.64-1.3-2.43-2a.06.06,0,1,0-.08.09,15.53,15.53,0,0,0,3.23,2.65c.37.39.73.78,1.11,1.17,1.18,1.21,2.42,2.4,3.68,3.54s2.74,2.46,4,3.64a17,17,0,0,0,1.65-2.54C377.55,172.47,377.46,172.44,377.41,172.48Z" style="fill:#263238"/><path d="M384.16,155.91a34.27,34.27,0,0,0-2.76,3.48c-.88,1.18-1.74,2.39-2.6,3.59s-1.72,2.43-2.56,3.66-1.63,2.58-2.45,3.86c-.05.08.07.17.12.09.92-1.16,1.87-2.29,2.75-3.48s1.74-2.39,2.6-3.59,1.72-2.43,2.55-3.67a33.93,33.93,0,0,0,2.45-3.86C384.3,155.92,384.21,155.85,384.16,155.91Z" style="fill:#263238"/><path d="M354,225.48a4.38,4.38,0,0,0,4.77,1.45,6.45,6.45,0,0,0,1.8,4c1.94,1.83,5.66-.42,5.66-.42a8,8,0,0,0,2.57,3.94c2,1.56,6.11-.16,6.11-.16a7,7,0,0,0,4.45,2c4.49.15,8.32-5.55,10.79-9.15s6.11-16.12,7-18.43l-23-16.07s-15.67,13-18,17.63C354.33,214.23,352,222.73,354,225.48Z" style="fill:#f7a9a0"/><path d="M358.71,226.83c1.07-4.65,3.45-8.74,5.6-13a.08.08,0,1,1,.14.07c-2.18,4.17-3.51,8.71-5.53,13A.11.11,0,0,1,358.71,226.83Z" style="fill:#263238"/><path d="M366.14,230.5a12.4,12.4,0,0,1,1.42-2.93c.58-1,1.17-2,1.78-3q1.82-3,3.79-5.8c.06-.08.2,0,.14.08-1.2,2-2.38,3.93-3.51,5.94-.56,1-1.12,2-1.66,3a14.87,14.87,0,0,1-1.68,2.79A.16.16,0,0,1,366.14,230.5Z" style="fill:#263238"/><path d="M375,234.22a8.59,8.59,0,0,1,1.42-2.56c.58-.89,1.14-1.77,1.71-2.66,1.12-1.78,2.25-3.56,3.31-5.38,0-.09.2,0,.15.08-1.08,1.85-2.12,3.72-3.21,5.56-.53.9-1.07,1.8-1.61,2.7a8.31,8.31,0,0,1-1.68,2.32A.06.06,0,0,1,375,234.22Z" style="fill:#263238"/><path d="M360.1,148.74c-.18,1-4.56,7.78-9.14,7.83-1.49,0-1.94-8.12-1.94-8.12l-.17-.59-2.38-8.3,9.51-6.92,1.38-.93s.5,2.32,1.09,5.2l.09.42c0,.16.07.31.1.46.09.43.19.87.27,1.31s.14.66.19,1,.13.69.19,1A56.55,56.55,0,0,1,360.1,148.74Z" style="fill:#f7a9a0"/><path d="M358.45,136.91a17.3,17.3,0,0,1-9.6,11l-2.38-8.3,9.51-6.92,1.38-.93S357.86,134,358.45,136.91Z" style="fill:#263238"/><path d="M333.75,123.56c-4.84,14.36,3.22,18.88,6.31,19.92,2.82,1,12.51,3.8,18.81-10s1.15-20.57-5.17-23.07S338.59,109.2,333.75,123.56Z" style="fill:#f7a9a0"/><path d="M338.07,122.46c.36.05.69,0,1.05.06a1.74,1.74,0,0,0,1.08-.15.56.56,0,0,0,.17-.64,1.36,1.36,0,0,0-1.2-.64,2,2,0,0,0-1.37.35A.58.58,0,0,0,338.07,122.46Z" style="fill:#263238"/><path d="M347.9,125.18a10.38,10.38,0,0,1-.94-.48,1.72,1.72,0,0,1-.86-.66.56.56,0,0,1,.17-.64,1.38,1.38,0,0,1,1.36,0,2,2,0,0,1,1,1A.58.58,0,0,1,347.9,125.18Z" style="fill:#263238"/><path d="M342.38,136.21c-.29.19-.6.47-1,.42a2.75,2.75,0,0,1-1-.47,0,0,0,0,0-.06,0,1.4,1.4,0,0,0,1.18.81,1.07,1.07,0,0,0,1-.73C342.49,136.22,342.42,136.19,342.38,136.21Z" style="fill:#263238"/><path d="M338.94,133.57a4.31,4.31,0,0,0,1.19,1.77,2,2,0,0,0,1.07.43c.86,0,1.12-.67,1.18-1.33a4.64,4.64,0,0,0,0-1.07A5.44,5.44,0,0,1,338.94,133.57Z" style="fill:#263238"/><path d="M340.13,135.34a2,2,0,0,0,1.07.43c.86,0,1.12-.67,1.18-1.33A2,2,0,0,0,340.13,135.34Z" style="fill:#ff97b8"/><path d="M339.16,131.51s-.6,1.43-.79,2.14c0,.06.15.14.38.22h0a3.44,3.44,0,0,0,3.57-.39c.07,0,0-.15-.08-.12a5.26,5.26,0,0,1-3.28.07c0-.21,1.11-2.43,1-2.47a6.62,6.62,0,0,0-1.69-.06c1.16-3,2.8-5.84,3.91-8.87,0-.11-.12-.19-.17-.09a52.25,52.25,0,0,0-4.62,9.37C337.26,131.7,338.84,131.55,339.16,131.51Z" style="fill:#263238"/><path d="M347.94,128.42a3,3,0,0,0-.83-.35,3.51,3.51,0,0,0-.92-.1,2.88,2.88,0,0,0-.94.23,2.25,2.25,0,0,0-.77.63l-.38.48.61,0a6.45,6.45,0,0,1,1.29.22,2.64,2.64,0,0,1,1.17.63,2,2,0,0,0-1-1.08,3.74,3.74,0,0,0-1.44-.41l.24.52a2.24,2.24,0,0,1,1.28-.72A6.59,6.59,0,0,1,347.94,128.42Z" style="fill:#263238"/><path d="M345.82,130.52a5.48,5.48,0,0,1-1.22-.71c-.09-.08-.41-.41-.38-.48a2.72,2.72,0,0,1,.35-.61,1.78,1.78,0,0,0-.48.57.91.91,0,0,0,.37.68A2.83,2.83,0,0,0,345.82,130.52Z" style="fill:#263238"/><path d="M336.4,124.9a3.39,3.39,0,0,1,.85.28,3.25,3.25,0,0,1,.76.53,2.77,2.77,0,0,1,.56.78,2.23,2.23,0,0,1,.17,1l0,.61-.49-.37a5.89,5.89,0,0,0-1.11-.68,2.56,2.56,0,0,0-1.3-.28,2,2,0,0,1,1.45-.18,3.84,3.84,0,0,1,1.36.63l-.52.24a2.2,2.2,0,0,0-.49-1.38A7.09,7.09,0,0,0,336.4,124.9Z" style="fill:#263238"/><path d="M336.62,127.88a5.59,5.59,0,0,0,1.39.26c.12,0,.57,0,.6-.12a2.82,2.82,0,0,0,.14-.68,1.69,1.69,0,0,1,0,.74.9.9,0,0,1-.72.27A3,3,0,0,1,336.62,127.88Z" style="fill:#263238"/><path d="M358.77,133.34c-2.51-.24-2.17-5.53-2.17-5.53s-5-.86-5.44-8.38a11.31,11.31,0,0,0,1.18,6.37s-8.71-2.48-11.15-10.56c0,0,.83,4.05,2,5.63a10.53,10.53,0,0,1-4.83-5s-2.3,4-3.7,5c0,0,3.06-15.46,17.16-11.31,0,0,8.91,2.16,10.9,9.85S358.77,133.34,358.77,133.34Z" style="fill:#263238"/><path d="M357.11,138.8a2.5,2.5,0,0,1-.72,0,2.06,2.06,0,0,1-.7-.15,2,2,0,0,1-.78-.48,2.63,2.63,0,0,1-.46-.56,2.88,2.88,0,0,1-.35-1l1.77-3.73s4.33-3.82,6.13-2.16S359.78,138.49,357.11,138.8Z" style="fill:#f7a9a0"/><path d="M360.81,132.47s0,.06,0,.07c-1.89.28-3.18,1.65-4.22,3.14a1.41,1.41,0,0,1,2.15.13s0,.1-.07.08a1.58,1.58,0,0,0-1.81.12,7.88,7.88,0,0,0-1.14,1.17c-.12.14-.37,0-.27-.18l0,0C356,134.77,358.4,132.12,360.81,132.47Z" style="fill:#263238"/><path d="M358.37,138.68h0a.42.42,0,0,0,.3-.52l-.23-.82a.42.42,0,0,0-.52-.29h0a.42.42,0,0,0-.29.52l.22.81A.43.43,0,0,0,358.37,138.68Z" style="fill:#FFC727"/></g><g id="freepik--character-1--inject-6"><path d="M107.29,446.25c-1.58.2-44-8.25-45.41-9.6-.54-.5.62-6.93,2.49-14C64.8,421,73,397.18,73,397.18l28.7,5.85L90.84,427.74s14.8,10.5,16.19,12.15S108.87,446.05,107.29,446.25Z" style="fill:#d3766a"/><path d="M61.88,436.66c1.41,1.34,43.83,9.8,45.41,9.59s1.12-4.73-.26-6.36c-.88-1-7-5.56-11.5-8.78,5.4,4,10.35,8.52-1,5.72-9.42-2.31-25-8.57-31-10.93C61.93,430.9,61.42,436.23,61.88,436.66Z" style="fill:#263238"/><path d="M95.53,431.11s-4.89-1.44-9.79,3.14" style="fill:#263238"/><path d="M189.84,434.16c-1.48.59-44.65,3.19-46.36,2.25-.65-.35-1.94-7.93-2.5-15.54-.28-3.87-3.46-24.23-3.46-24.23l28-1.75,2.85,25.67s17.84,6.28,19.6,7.51S191.32,433.56,189.84,434.16Z" style="fill:#d3766a"/><path d="M141.44,425.86c.64,5.63,1.52,10.27,2,10.55,1.7.94,44.88-1.65,46.36-2.25s-.12-4.86-1.87-6.09c-.95-.66-6.51-2.78-11.46-4.59,5.63,2.4,9.94,5.12-.9,5.23C165.46,428.8,147,426.57,141.44,425.86Z" style="fill:#263238"/><path d="M176.51,423.48a12.67,12.67,0,0,0-12.34,4.74" style="fill:#263238"/><path d="M139.32,408.62l27.82-2.75s-2.73-36-6.12-50.76c-3.92-17-18.16-57.41-18.16-57.41l-31.12-.7s15.58,44.53,19,61.85C132.32,366.55,139.32,408.62,139.32,408.62Z" style="fill:#263238"/><path d="M139.22,297.62C137,305.71,131.06,328.35,127,344c-5.82-20.11-15.23-47-15.23-47Z" style="fill:#37474f"/><path d="M70.91,403.19l27.68,6.86s15.64-31.28,19.51-42.56c5.18-15.07,11.32-48,11.32-48l3.55-1c4.49-2.69,9.29-16.85,9.89-20.76l-41.08-.92s-6.37,17-3.4,27.61c0,0-7,31.78-9.51,35.91C82.55,370.82,70.91,403.19,70.91,403.19Z" style="fill:#263238"/><path d="M113.55,286a39.31,39.31,0,0,0,7,5.45c-3.36-7.31-1.12-22.79-.86-20.52,1.28,10.85,6.74,23.16,9.22,24l0,0a29.4,29.4,0,0,0,18.56-1.95s0,0,0,0c-4.45-8.34-2.59-24.12-2.33-23.13,2.78,10.72,10.14,17.57,11.52,17.7h0c5.63-4.37,8.85-9,8.17-9.54-4.94-4.16-8.49-13.94-11.54-24.2h0c-3-10.11-4.1-19.55-8.87-28.79-4.36-8.46-14.57-11-20.86-7.61C107.12,226.36,110.53,283,113.55,286Z" style="fill:#263238"/><path d="M124.75,216.81a10.54,10.54,0,0,0-3.71,2.45,23.66,23.66,0,0,0-2.89,3.42A42.66,42.66,0,0,0,114,230.6,67.37,67.37,0,0,0,109.74,248a105.29,105.29,0,0,0-.41,17.84c.07,1.49.23,3,.34,4.45l.48,4.43.65,4.41.78,4.39-.51-4.42-.42-4.43-.34-4.43c-.07-1.48-.18-2.95-.21-4.43a114.92,114.92,0,0,1,.62-17.7,70.86,70.86,0,0,1,4-17.19,43.07,43.07,0,0,1,3.84-7.94,24,24,0,0,1,2.69-3.49,15.32,15.32,0,0,1,1.63-1.49A7.61,7.61,0,0,1,124.75,216.81Z" style="fill:#263238"/><path d="M165.69,276.41a75,75,0,0,1-3.88-6.66c-1.21-2.26-2.34-4.57-3.35-6.92s-2-4.73-2.74-7.16-1.5-4.92-2.26-7.37c-1.56-4.91-3.11-9.82-5-14.64-.94-2.4-1.92-4.8-3.06-7.12a35.94,35.94,0,0,0-1.9-3.37,9.31,9.31,0,0,0-2.58-2.86,10,10,0,0,1,2.35,3,35.48,35.48,0,0,1,1.69,3.45c1,2.34,1.94,4.75,2.78,7.17,1.69,4.85,3.24,9.75,4.73,14.67.78,2.45,1.51,4.91,2.34,7.36a65.9,65.9,0,0,0,2.91,7.19A73.42,73.42,0,0,0,165.69,276.41Z" style="fill:#263238"/><path d="M133.1,258.79c13.35,1.66,27.42-1.77,37-5.28,3.83-1.4,11.31-23.39,13.45-33.66.6-2.88-18.82-5-21-1.8-1.23,1.77-3.71,23.09-5.64,23.86-3.55,1.41-13.88,4.91-23.2,9.22C126.83,254.29,126,257.91,133.1,258.79Z" style="fill:#d3766a"/><path d="M183.05,221.19c.84-2.26,4.3-13.61,4.45-16.77s-.06-12.27-2.46-12.64-2.56,2.31-2.56,2.31-.7-3.83-3.15-4-2.55,4-2.55,4-1-3.89-3.47-3.86-1.85,4.24-1.85,4.24-.76-3.6-2.77-2.72c-2.42,1-.29,7.52-.72,11-.1.78-3.12,15.83-3.12,15.83Z" style="fill:#d3766a"/><path d="M171.41,194.16c1.56,4.76,1.42,7.11.22,11.9a.08.08,0,0,0,.15.05c1.6-4.58,2.2-7.5-.14-12C171.53,193.85,171.34,193.93,171.41,194.16Z" style="fill:#263238"/><path d="M176.65,193.76c1.19,5.09,1.06,7.64.17,12.75,0,.07.1.1.12,0,1.3-4.94,1.83-7.87,0-12.8C176.83,193.52,176.59,193.53,176.65,193.76Z" style="fill:#263238"/><path d="M182.43,194.35c.8,5,.77,7.82-.73,12.66a.1.1,0,0,0,.18.07,16.81,16.81,0,0,0,.7-12.73C182.49,194,182.38,194,182.43,194.35Z" style="fill:#263238"/><path d="M161.79,221.19a61.61,61.61,0,0,1-2.73-8.64c-.44-2.79,1.76-13.8,4.16-13.46,3.1.44,3.09,7,2.66,10.27,0,0,7.18,1,8.19,5.75S161.79,221.19,161.79,221.19Z" style="fill:#d3766a"/><path d="M164,199.49c2.54,2.44,1.71,6.65,1.52,9.81a.3.3,0,0,0,.36.32c3,.62,7,2.36,8.27,5.32a.07.07,0,0,0,.14,0c-.92-3.36-4.73-5.4-8-5.87.23-3.24.89-7.5-2.22-9.56C164,199.45,164,199.48,164,199.49Z" style="fill:#263238"/><path d="M146.66,244.11l5.57,16.3s-13.91,1.17-21.29-1-5.32-5.33-.38-8.08S146.66,244.11,146.66,244.11Z" style="fill:#FFC727"/><path d="M144.36,246.28c0-.1,0-.16.06-.06a117.41,117.41,0,0,1,4.62,13.7s0,.05-.06,0C148,257.8,144.78,247.45,144.36,246.28Z" style="fill:#263238"/><path d="M151.78,260.44c-2.44.18-14.25.91-20.84-1.05s-5.61-4.79-1.61-7.35Z" style="opacity:0.1"/><path d="M99.14,298.34s46.18,1.44,46.55,1.18c.18-.13-4.06-35.78-9.35-45.47-1.35-2.47-9.19-6.62-14.79-2.53C109.72,260.14,99,298.08,99.14,298.34Z" style="fill:#FFC727"/><path d="M129.73,248.83c-3.47.09-3.6,3.95-2.69,7.15s2.79,5.65,5.09,5.68,2.19-3.53,2.19-3.53,1.43,2.82,2.79,2.33S135.13,248.69,129.73,248.83Z" style="fill:#fff"/><path d="M126.8,251.18c.13.83,3.64,6.4,7.39,6.49,1.21,0,1.66-6.61,1.66-6.61l.15-.49,2-6.76-8.82-6.52S126.75,250.82,126.8,251.18Z" style="fill:#d3766a"/><path d="M138,243.81l-2,6.76-.15.49s-.08,1.2-.27,2.58a10.7,10.7,0,0,1-7.9-7.81c.68-3.91,1.53-8.54,1.53-8.54Z" style="fill:#263238"/><path d="M148.51,230.59c5.67,13.77-1.93,18.72-4.9,19.94-2.69,1.11-12,4.54-19.08-8.56s-2.46-20.1,3.57-23S142.83,216.83,148.51,230.59Z" style="fill:#d3766a"/><path d="M146.4,230.41a8.6,8.6,0,0,1-1,.11,1.6,1.6,0,0,1-1.06-.08.52.52,0,0,1-.21-.61,1.35,1.35,0,0,1,1.14-.7,2,2,0,0,1,1.36.26A.57.57,0,0,1,146.4,230.41Z" style="fill:#263238"/><path d="M137,234.06a9.85,9.85,0,0,0,.89-.52c.33-.21.62-.33.8-.7a.55.55,0,0,0-.2-.62,1.33,1.33,0,0,0-1.33.12,1.91,1.91,0,0,0-.93,1A.57.57,0,0,0,137,234.06Z" style="fill:#263238"/><path d="M142.09,243.78c.29.16.61.42,1,.35a2.69,2.69,0,0,0,1-.52s.07,0,.06,0a1.37,1.37,0,0,1-1.1.87,1.08,1.08,0,0,1-1-.66C142,243.79,142,243.75,142.09,243.78Z" style="fill:#263238"/><path d="M145,239s.67,1.38.9,2.05c0,.07-.14.15-.36.24h0a3.4,3.4,0,0,1-3.53-.18c-.07-.05,0-.14.07-.12a5.07,5.07,0,0,0,3.22-.13c0-.2-1.23-2.34-1.12-2.35.48-.07,1.34-.14,1.66-.16-.42-.9-1.73-3.4-2.48-5.05-.05-.1.1-.19.16-.1a47.72,47.72,0,0,1,3.2,5.5C146.74,238.83,145.28,239,145,239Z" style="fill:#263238"/><path d="M138.33,236.87a1.14,1.14,0,0,1-.16.31.65.65,0,0,1-.48.28c-.6.06-1-.49-1.13-1.07,0,0,0-.08,0,0,.31.25.66.5,1,.38a1.31,1.31,0,0,0,.5-.54A3.38,3.38,0,0,0,138.33,236.87Z" style="fill:#263238"/><path d="M138,236.77a1.55,1.55,0,0,1,.14-.8,1.13,1.13,0,0,1,.69-.56,1,1,0,0,1,.88.2,1.9,1.9,0,0,1,.48.66,3.53,3.53,0,0,1,.15.46,2.12,2.12,0,0,1,0,1,2.72,2.72,0,0,0-.22-.7,5.43,5.43,0,0,0-.3-.59c-.24-.38-.57-.66-.9-.55s-.54.43-.57.88a6.86,6.86,0,0,0,.09,1.41A3.11,3.11,0,0,1,138,236.77Z" style="fill:#263238"/><path d="M147.07,233.72a1,1,0,0,0,.32.13.65.65,0,0,0,.52-.1,1.21,1.21,0,0,0,.15-1.53s-.05-.06-.06,0c-.06.39-.16.8-.47.92a1.15,1.15,0,0,1-.7-.08A2.9,2.9,0,0,1,147.07,233.72Z" style="fill:#263238"/><path d="M147.18,233.42a1.56,1.56,0,0,0-.6-.53,1.07,1.07,0,0,0-.86,0,1,1,0,0,0-.52.71,1.92,1.92,0,0,0,.06.8,3.38,3.38,0,0,0,.18.44,2,2,0,0,0,.59.78,4.16,4.16,0,0,1-.27-.66,5.27,5.27,0,0,1-.14-.64c-.06-.44,0-.87.31-1a.82.82,0,0,1,1,.31,6.84,6.84,0,0,1,.81,1.12A3.13,3.13,0,0,0,147.18,233.42Z" style="fill:#263238"/><path d="M145.12,241.1a3.66,3.66,0,0,1-.93,1.64,1.64,1.64,0,0,1-.91.45c-.75.11-1-.51-1.13-1.09a4,4,0,0,1,0-.95A4.74,4.74,0,0,0,145.12,241.1Z" style="fill:#263238"/><path d="M144.19,242.74a1.64,1.64,0,0,1-.91.45c-.75.11-1-.51-1.13-1.09A1.72,1.72,0,0,1,144.19,242.74Z" style="fill:#ff9bbc"/><path d="M126.55,244.53a6.26,6.26,0,0,0,1.23-6.05,15.81,15.81,0,0,0,4-7.45c0,.33.24,2.72.3,3.94a16.45,16.45,0,0,0,8-13.2,17.22,17.22,0,0,1,6.22,4.21s-2.24-5.58-6.55-8.18a9.34,9.34,0,0,0-9.57-.49A13,13,0,0,0,119.59,226C116.51,234.66,126.55,244.53,126.55,244.53Z" style="fill:#263238"/><path d="M138.16,230.81a17.11,17.11,0,0,1-3.81,3.5s0,0,0,0a14.5,14.5,0,0,0,4.81-6.59,14.15,14.15,0,0,0,.77-3.48,9.93,9.93,0,0,0-.26-3.91c0-.09.11-.13.14,0a11.84,11.84,0,0,1,.78,3.84,10.52,10.52,0,0,1-.72,3.77,11.71,11.71,0,0,1-1.69,2.93Z" style="fill:#263238"/><polygon points="128.73 237.77 123.92 236.7 123.73 238 128.61 238.5 128.73 237.77" style="fill:#FFC727"/><polygon points="128.66 239.03 123.73 238.83 123.78 240.14 128.67 239.76 128.66 239.03" style="fill:#FFC727"/><path d="M128.16,242.2s-4.5-3.46-6.16-1.73,2.69,7.44,5.32,7.57a2.52,2.52,0,0,0,2.82-2.3Z" style="fill:#d3766a"/><path d="M123.29,242.08s0,.06,0,.06a6.37,6.37,0,0,1,4.34,2.81,1.39,1.39,0,0,0-2.1.27s0,.09.07.07a1.56,1.56,0,0,1,1.79,0,7.58,7.58,0,0,1,1.19,1.07c.13.13.37,0,.26-.19l0,0C128.19,244,125.62,241.58,123.29,242.08Z" style="fill:#263238"/><polygon points="160.63 252.15 175.93 274.04 171.29 277.52 154.54 256.73 160.63 252.15" style="fill:#263238"/><path d="M151,245.6h0a6,6,0,0,0-1.21,8.46l1.26,1.67a5.65,5.65,0,0,0,7.92,1.12l.61-.46a5.66,5.66,0,0,0,1.13-7.92l-1.26-1.67A6,6,0,0,0,151,245.6Z" style="fill:#a6a6a6"/><rect x="148.98" y="250.85" width="12.84" height="1.32" transform="translate(-119.91 143.76) rotate(-36.91)" style="fill:#c7c7c7"/><path d="M119.05,263.54c3.65,12.52,11,29.75,16.15,34.41,3.73,3.38,21-5.89,29.79-11.91,2.12-1.46-11.12-18.39-13.21-16.61-5,4.29-9.69,7.45-10.29,7.1-.81-.5-7.48-8.84-15.09-16.81C118.06,251,117.62,258.63,119.05,263.54Z" style="fill:#d3766a"/><path d="M137.19,270.13l-13.91,9.41s-4.36-13.6-5.55-18.26.84-9.46,9.16-2S137.19,270.13,137.19,270.13Z" style="fill:#FFC727"/><path d="M135.53,271.26a15.68,15.68,0,0,1,1.6-1.1c-.79-.91-1.7-1.74-2.53-2.61s-1.73-1.81-2.58-2.72c-1.71-1.83-3.45-3.61-5.1-5.48,0,0,0-.09,0-.06A52.7,52.7,0,0,1,131,263c-.44-.63-.91-1.23-1.4-1.83,0,0,0-.1.07-.06a11.87,11.87,0,0,1,1.86,2.43c.28.28.56.56.83.85.86.9,1.7,1.83,2.5,2.78l2.57,3.05a12.92,12.92,0,0,1-1.9,1.14S135.5,271.29,135.53,271.26Z" style="fill:#263238"/><path d="M123.22,275.79a26.48,26.48,0,0,1,2.62-1.94c.89-.61,1.79-1.21,2.69-1.81s1.82-1.2,2.75-1.79,1.93-1.13,2.89-1.7c.06,0,.12.05.06.09-.87.65-1.72,1.31-2.62,1.94s-1.79,1.21-2.69,1.81-1.83,1.2-2.75,1.78a26.19,26.19,0,0,1-2.9,1.7A0,0,0,0,1,123.22,275.79Z" style="fill:#263238"/><path d="M176.31,255.41a3.2,3.2,0,0,1,.94,3.53,4.71,4.71,0,0,1,2.9,1.41c1.3,1.47-.44,4.14-.44,4.14a5.82,5.82,0,0,1,2.82,2c1.1,1.52-.27,4.47-.27,4.47a5.14,5.14,0,0,1,1.39,3.31c0,3.29-4.28,6-7,7.68s-12,4.09-13.69,4.71l-11.21-17.22s9.9-11.16,13.36-12.74C168.06,255.36,174.34,253.87,176.31,255.41Z" style="fill:#d3766a"/><path d="M177.18,258.88c-3.44.67-6.49,2.32-9.63,3.79-.07,0,0,.14,0,.11,3.11-1.5,6.47-2.37,9.63-3.74A.08.08,0,0,0,177.18,258.88Z" style="fill:#263238"/><path d="M179.69,264.42a8.69,8.69,0,0,0-2.18,1q-1.12.58-2.22,1.23-2.21,1.26-4.35,2.63c-.06,0,0,.15.06.11q2.19-1.26,4.44-2.43c.75-.38,1.5-.77,2.26-1.14a11.24,11.24,0,0,0,2.09-1.16A.12.12,0,0,0,179.69,264.42Z" style="fill:#263238"/><path d="M182.2,271a6.58,6.58,0,0,0-1.92,1l-2,1.19c-1.33.78-2.66,1.56-4,2.29-.06,0,0,.15.06.11,1.38-.74,2.77-1.46,4.15-2.21l2-1.12a5.92,5.92,0,0,0,1.74-1.17S182.23,271,182.2,271Z" style="fill:#263238"/><path d="M118.22,264c.86,4.57,3.41,11.94,4.73,16.07,0,.07,1.71-1.29,2-1.43.11-.05,0-.14-.08-.1-.26.1-1.22.79-1.5.85-1.33-4.17-3.62-11.27-5.08-15.4A0,0,0,0,0,118.22,264Z" style="fill:#263238"/></g></svg>